<svg width="195" height="48" viewBox="0 0 195 48" fill="none" xmlns="http://www.w3.org/2000/svg">
<path d="M1.97302 35.598L1.97303 11.866L13.839 18.4582V29.0717L23.3319 34.4114L32.8247 29.0717V18.4582L44.6908 11.866V35.598L23.3319 47.464L1.97302 35.598Z" fill="#192657"/>
<path fill-rule="evenodd" clip-rule="evenodd" d="M7.90604 15.1622L1.97302 11.866L23.3319 0L44.6908 11.866L38.7577 15.1622V32.6315L23.3319 41.5311L7.90603 32.6315L7.90604 15.1622ZM38.115 15.5193L32.8247 18.4583V18.3923L23.3319 13.0526L13.839 18.3923V18.4583L8.54878 15.5193V32.2665L23.3319 40.7952L38.115 32.2665V15.5193Z" fill="url(#paint0_linear_70_504)"/>
<path d="M56.0629 33.7225V13.7876H59.822V30.305H68.9352V33.7225H56.0629Z" fill="#192657"/>
<path d="M77.0532 34.1212C75.6483 34.1212 74.3858 33.8365 73.2656 33.2668C72.1454 32.6972 71.2626 31.8714 70.6171 30.7892C69.9715 29.7071 69.6488 28.4065 69.6488 26.8877V26.432C69.6488 24.9131 69.9715 23.6126 70.6171 22.5304C71.2626 21.4483 72.1454 20.6224 73.2656 20.0529C74.3858 19.4832 75.6483 19.1985 77.0532 19.1985C78.4582 19.1985 79.7207 19.4832 80.8409 20.0529C81.9611 20.6224 82.8439 21.4483 83.4894 22.5304C84.1348 23.6126 84.4577 24.9131 84.4577 26.432V26.8877C84.4577 28.4065 84.1348 29.7071 83.4894 30.7892C82.8439 31.8714 81.9611 32.6972 80.8409 33.2668C79.7207 33.8365 78.4582 34.1212 77.0532 34.1212ZM77.0532 30.9316C78.1544 30.9316 79.0658 30.5804 79.7872 29.8779C80.5087 29.1565 80.8693 28.1312 80.8693 26.8022V26.5175C80.8693 25.1885 80.5087 24.1727 79.7872 23.4702C79.0847 22.7488 78.1733 22.3881 77.0532 22.3881C75.9521 22.3881 75.0407 22.7488 74.3193 23.4702C73.5978 24.1727 73.2372 25.1885 73.2372 26.5175V26.8022C73.2372 28.1312 73.5978 29.1565 74.3193 29.8779C75.0407 30.5804 75.9521 30.9316 77.0532 30.9316Z" fill="#192657"/>
<path d="M85.8051 26.7168V26.2612C85.8051 24.7803 86.0992 23.5177 86.6879 22.4735C87.2764 21.4103 88.0549 20.6034 89.0231 20.0529C90.0104 19.4832 91.083 19.1985 92.2411 19.1985C93.5322 19.1985 94.51 19.4264 95.1744 19.882C95.8389 20.3376 96.3231 20.8123 96.6268 21.3059H97.1395V19.5971H100.671V36.2286C100.671 37.1968 100.386 37.9657 99.8164 38.5354C99.2468 39.1239 98.4874 39.4182 97.5381 39.4182H88.0833V36.2856H96.2851C96.8166 36.2856 97.0825 36.0008 97.0825 35.4312V31.7574H96.5698C96.38 32.0612 96.1142 32.3745 95.7725 32.6972C95.4307 33.001 94.9751 33.2573 94.4055 33.4662C93.836 33.675 93.1144 33.7795 92.2411 33.7795C91.083 33.7795 90.0104 33.5041 89.0231 32.9535C88.0549 32.384 87.2764 31.5771 86.6879 30.5329C86.0992 29.4697 85.8051 28.1977 85.8051 26.7168ZM93.2664 30.6469C94.3675 30.6469 95.2883 30.2956 96.0288 29.5931C96.7693 28.8907 97.1395 27.9034 97.1395 26.6314V26.3466C97.1395 25.0555 96.7693 24.0683 96.0288 23.3848C95.3073 22.6824 94.3866 22.3311 93.2664 22.3311C92.1652 22.3311 91.2443 22.6824 90.504 23.3848C89.7635 24.0683 89.3933 25.0555 89.3933 26.3466V26.6314C89.3933 27.9034 89.7635 28.8907 90.504 29.5931C91.2443 30.2956 92.1652 30.6469 93.2664 30.6469Z" fill="#192657"/>
<path d="M110.086 34.1212C108.681 34.1212 107.419 33.8365 106.299 33.2668C105.179 32.6972 104.296 31.8714 103.65 30.7892C103.005 29.7071 102.682 28.4065 102.682 26.8877V26.432C102.682 24.9131 103.005 23.6126 103.65 22.5304C104.296 21.4483 105.179 20.6224 106.299 20.0529C107.419 19.4832 108.681 19.1985 110.086 19.1985C111.491 19.1985 112.754 19.4832 113.874 20.0529C114.994 20.6224 115.877 21.4483 116.522 22.5304C117.168 23.6126 117.491 24.9131 117.491 26.432V26.8877C117.491 28.4065 117.168 29.7071 116.522 30.7892C115.877 31.8714 114.994 32.6972 113.874 33.2668C112.754 33.8365 111.491 34.1212 110.086 34.1212ZM110.086 30.9316C111.187 30.9316 112.099 30.5804 112.82 29.8779C113.542 29.1565 113.903 28.1312 113.903 26.8022V26.5175C113.903 25.1885 113.542 24.1727 112.82 23.4702C112.118 22.7488 111.207 22.3881 110.086 22.3881C108.985 22.3881 108.074 22.7488 107.352 23.4702C106.631 24.1727 106.27 25.1885 106.27 26.5175V26.8022C106.27 28.1312 106.631 29.1565 107.352 29.8779C108.074 30.5804 108.985 30.9316 110.086 30.9316Z" fill="#192657"/>
<path d="M119.525 33.7226V19.5972H123.113V33.7226H119.525ZM121.319 17.9455C120.673 17.9455 120.123 17.7367 119.667 17.319C119.23 16.9013 119.012 16.3506 119.012 15.6673C119.012 14.9838 119.23 14.4332 119.667 14.0154C120.123 13.5978 120.673 13.3889 121.319 13.3889C121.983 13.3889 122.534 13.5978 122.971 14.0154C123.407 14.4332 123.626 14.9838 123.626 15.6673C123.626 16.3506 123.407 16.9013 122.971 17.319C122.534 17.7367 121.983 17.9455 121.319 17.9455Z" fill="#192657"/>
<path d="M125.805 39.4182V19.5971H129.337V21.3059H129.849C130.172 20.7553 130.674 20.2712 131.359 19.8534C132.042 19.4168 133.02 19.1985 134.292 19.1985C135.431 19.1985 136.485 19.4832 137.452 20.0529C138.421 20.6034 139.199 21.4197 139.788 22.502C140.377 23.5842 140.671 24.8942 140.671 26.432V26.8877C140.671 28.4255 140.377 29.7355 139.788 30.8176C139.199 31.8999 138.421 32.7258 137.452 33.2953C136.485 33.8459 135.431 34.1212 134.292 34.1212C133.437 34.1212 132.716 34.0167 132.127 33.8079C131.557 33.6181 131.092 33.3712 130.732 33.0675C130.39 32.7447 130.115 32.422 129.906 32.0992H129.393V39.4182H125.805ZM133.209 30.9886C134.33 30.9886 135.251 30.6373 135.972 29.9348C136.712 29.2134 137.082 28.1692 137.082 26.8022V26.5175C137.082 25.1505 136.712 24.1157 135.972 23.4133C135.232 22.6919 134.311 22.3311 133.209 22.3311C132.108 22.3311 131.187 22.6919 130.447 23.4133C129.707 24.1157 129.337 25.1505 129.337 26.5175V26.8022C129.337 28.1692 129.707 29.2134 130.447 29.9348C131.187 30.6373 132.108 30.9886 133.209 30.9886Z" fill="#192657"/>
<path d="M148.552 34.1212C146.71 34.1212 145.2 33.7225 144.023 32.9251C142.847 32.1277 142.135 30.9886 141.887 29.5076L145.192 28.6534C145.324 29.3178 145.543 29.84 145.846 30.2197C146.169 30.5994 146.558 30.8746 147.014 31.0455C147.488 31.1973 148.001 31.2734 148.552 31.2734C149.386 31.2734 150.004 31.1309 150.403 30.8462C150.801 30.5424 151.001 30.1722 151.001 29.7355C151.001 29.2988 150.811 28.9666 150.431 28.7387C150.052 28.4919 149.445 28.2926 148.608 28.1408L147.811 27.9983C146.824 27.8084 145.922 27.5521 145.106 27.2294C144.29 26.8877 143.634 26.4225 143.14 25.834C142.648 25.2453 142.4 24.4859 142.4 23.5556C142.4 22.1507 142.913 21.0781 143.938 20.3376C144.963 19.5782 146.312 19.1985 147.982 19.1985C149.558 19.1985 150.868 19.5498 151.912 20.2522C152.956 20.9547 153.64 21.8755 153.963 23.0146L150.631 24.0398C150.479 23.3184 150.166 22.8057 149.691 22.502C149.235 22.1982 148.665 22.0463 147.982 22.0463C147.298 22.0463 146.777 22.1697 146.416 22.4165C146.056 22.6444 145.875 22.9671 145.875 23.3848C145.875 23.8405 146.064 24.1821 146.445 24.41C146.824 24.6188 147.336 24.7803 147.982 24.8942L148.779 25.0365C149.842 25.2264 150.801 25.4827 151.656 25.8054C152.529 26.1092 153.213 26.5554 153.706 27.144C154.219 27.7136 154.476 28.4919 154.476 29.4792C154.476 30.9601 153.934 32.1087 152.851 32.9251C151.789 33.7225 150.355 34.1212 148.552 34.1212Z" fill="#192657"/>
<path d="M161.719 33.9503C160.619 33.9503 159.65 33.7035 158.815 33.21C157.999 32.6973 157.362 31.9948 156.906 31.1025C156.452 30.2102 156.223 29.1849 156.223 28.0269V19.5972H159.812V27.742C159.812 28.8052 160.068 29.6026 160.581 30.1342C161.111 30.6658 161.862 30.9316 162.831 30.9316C163.931 30.9316 164.786 30.5709 165.394 29.8495C166.001 29.109 166.304 28.0838 166.304 26.7738V19.5972H169.893V33.7226H166.361V31.8714H165.85C165.621 32.3461 165.194 32.8112 164.567 33.2668C163.941 33.7226 162.991 33.9503 161.719 33.9503Z" fill="#192657"/>
<path d="M172.606 33.7225V19.5971H176.136V21.135H176.649C176.896 20.6603 177.305 20.2522 177.873 19.9104C178.443 19.5498 179.193 19.3694 180.124 19.3694C181.13 19.3694 181.937 19.5687 182.544 19.9674C183.152 20.3471 183.617 20.8502 183.94 21.4767H184.452C184.775 20.8693 185.231 20.3661 185.82 19.9674C186.408 19.5687 187.243 19.3694 188.326 19.3694C189.199 19.3694 189.987 19.5592 190.689 19.9389C191.41 20.2996 191.98 20.8597 192.398 21.6192C192.834 22.3595 193.053 23.2993 193.053 24.4386V33.7225H189.464V24.6949C189.464 23.9164 189.266 23.3373 188.866 22.9576C188.467 22.559 187.908 22.3595 187.186 22.3595C186.37 22.3595 185.734 22.6254 185.278 23.157C184.842 23.6696 184.624 24.41 184.624 25.3784V33.7225H181.035V24.6949C181.035 23.9164 180.835 23.3373 180.437 22.9576C180.038 22.559 179.479 22.3595 178.756 22.3595C177.94 22.3595 177.305 22.6254 176.849 23.157C176.412 23.6696 176.193 24.41 176.193 25.3784V33.7225H172.606Z" fill="#192657"/>
<defs>
<linearGradient id="paint0_linear_70_504" x1="7.90603" y1="9.22911" x2="39.9443" y2="9.22912" gradientUnits="userSpaceOnUse">
<stop stop-color="#64C2DB"/>
<stop offset="0.307292" stop-color="#7476ED"/>
<stop offset="0.604167" stop-color="#C994DF"/>
<stop offset="1" stop-color="#E56F8C"/>
</linearGradient>
</defs>
</svg>
