<svg width="125" height="48" viewBox="0 0 125 48" fill="none" xmlns="http://www.w3.org/2000/svg">
<g clip-path="url(#clip0_70_501)">
<path d="M29.6871 0C24.8134 0 20.1393 1.93608 16.693 5.38234L5.44593 16.6294C1.99968 20.0757 0.0635986 24.7498 0.0635986 29.6235C0.0635986 39.7726 8.29102 48 18.4401 48C23.3138 48 27.9879 46.0638 31.4342 42.6176L39.2138 34.8379C39.214 34.8381 39.2138 34.8378 39.2138 34.8379L61.8812 12.1706C63.5271 10.5247 65.7594 9.6 68.0871 9.6C71.9841 9.6 75.2879 12.1399 76.4334 15.6545L83.5871 8.50074C80.3236 3.38934 74.6012 0 68.0871 0C63.2134 0 58.5393 1.93608 55.093 5.38234L24.646 35.8294C23.0001 37.4754 20.7678 38.4 18.4401 38.4C13.5929 38.4 9.6636 34.4707 9.6636 29.6235C9.6636 27.2958 10.5883 25.0635 12.2342 23.4176L23.4812 12.1706C25.1271 10.5247 27.3594 9.6 29.6871 9.6C33.5842 9.6 36.8879 12.14 38.0334 15.6547L45.1873 8.50091C41.9238 3.38944 36.2014 0 29.6871 0Z" fill="#394149"/>
<path d="M63.0462 35.8294C61.4003 37.4754 59.168 38.4 56.8403 38.4C52.9438 38.4 49.6403 35.8608 48.4945 32.3467L41.3409 39.5003C44.6046 44.611 50.3267 48 56.8403 48C61.7141 48 66.3881 46.0638 69.8344 42.6176L100.281 12.1706C101.927 10.5247 104.16 9.6 106.487 9.6C111.335 9.6 115.264 13.5293 115.264 18.3765C115.264 20.7042 114.339 22.9365 112.693 24.5824L101.446 35.8294C99.8003 37.4754 97.568 38.4 95.2403 38.4C91.3435 38.4 88.0398 35.8603 86.8942 32.3459L79.7406 39.4997C83.0041 44.6109 88.7264 48 95.2403 48C100.114 48 104.788 46.0638 108.234 42.6176L119.481 31.3706C122.928 27.9243 124.864 23.2502 124.864 18.3765C124.864 8.22742 116.636 0 106.487 0C101.614 0 96.9395 1.93608 93.4933 5.38234L63.0462 35.8294Z" fill="#394149"/>
</g>
<defs>
<clipPath id="clip0_70_501">
<rect width="124.8" height="48" fill="white" transform="translate(0.0635986)"/>
</clipPath>
</defs>
</svg>
