<svg width="222" height="48" viewBox="0 0 222 48" fill="none" xmlns="http://www.w3.org/2000/svg">
<path d="M33.9437 38.0144L5.23974 18.2144C2.33094 16.208 3.31974 12.0303 6.94694 11.0479L37.4541 2.76793C38.1004 2.53474 38.7929 2.45905 39.4743 2.54713C40.1556 2.63521 40.8061 2.88452 41.3719 3.27437C41.9375 3.66423 42.4021 4.18338 42.7269 4.78874C43.0517 5.3941 43.2276 6.06821 43.2397 6.75513L41.4317 34.8336C41.2173 38.1664 36.8525 40.0208 33.9437 38.0144Z" fill="#E9327C"/>
<path d="M24.8437 42.9024L7.93322 9.83204C7.54666 9.0755 7.37656 8.22687 7.44167 7.37978C7.50677 6.5327 7.80456 5.72004 8.30218 5.03145C8.79981 4.34286 9.47794 3.80506 10.2618 3.47738C11.0457 3.1497 11.9048 3.04487 12.7444 3.17446L44.0837 8.01124C44.8051 8.12261 45.4899 8.40365 46.0817 8.83125C46.6734 9.25887 47.1552 9.82082 47.4875 10.4709C47.8197 11.121 47.9929 11.8407 47.9928 12.5708C47.9926 13.3008 47.8192 14.0205 47.4869 14.6704L33.0501 42.904C32.6624 43.6584 32.0742 44.2913 31.3502 44.7331C30.6262 45.175 29.7945 45.4086 28.9464 45.4085C28.0982 45.4083 27.2665 45.1744 26.5427 44.7323C25.8189 44.2901 25.231 43.6569 24.8437 42.9024Z" fill="#1DACE3"/>
<path d="M43.1649 7.86872L27.5425 5.45752L8.36169 10.6655L16.0177 25.6431L33.9457 38.0143C34.3412 38.2842 34.7763 38.4909 35.2353 38.6271L42.0449 25.3103L43.1649 7.86872Z" fill="#001A49"/>
<path d="M122.297 11.7343C122.297 11.1536 122.469 10.586 122.792 10.1032C123.115 9.62037 123.573 9.24405 124.11 9.02182C124.646 8.79962 125.236 8.74147 125.806 8.85475C126.375 8.96805 126.899 9.24768 127.309 9.65827C127.72 10.0689 127.999 10.592 128.113 11.1616C128.226 11.7311 128.168 12.3214 127.946 12.8579C127.723 13.3944 127.347 13.8529 126.864 14.1755C126.382 14.4981 125.814 14.6703 125.233 14.6703C124.457 14.6624 123.715 14.3506 123.166 13.8017C122.617 13.2528 122.305 12.5106 122.297 11.7343ZM122.787 16.1055H127.681V32.4159H122.787V16.1055Z" fill="#001A49"/>
<path d="M148.817 24.2607C148.874 25.3388 148.717 26.4175 148.355 27.4348C147.994 28.4519 147.435 29.3878 146.71 30.1883C145.986 30.9886 145.11 31.6379 144.134 32.0988C143.158 32.5596 142.1 32.823 141.022 32.8735C140.115 32.9228 139.208 32.7699 138.367 32.4257C137.526 32.0814 136.773 31.5545 136.161 30.8831V38.9407H131.268V16.1055H136.161V17.6383C136.773 16.9671 137.526 16.4406 138.367 16.0966C139.208 15.7527 140.115 15.5999 141.022 15.6495C142.1 15.6999 143.158 15.963 144.134 16.4236C145.11 16.8844 145.986 17.5335 146.71 18.3339C147.435 19.1342 147.994 20.0697 148.355 21.087C148.717 22.1041 148.874 23.1827 148.817 24.2607ZM143.924 24.2607C143.905 23.4971 143.661 22.7561 143.222 22.1303C142.784 21.5047 142.171 21.0222 141.46 20.7433C140.749 20.4643 139.971 20.4014 139.225 20.5622C138.478 20.723 137.795 21.1004 137.262 21.6473C136.728 22.1942 136.368 22.8863 136.226 23.6369C136.084 24.3875 136.167 25.1633 136.464 25.8671C136.761 26.571 137.259 27.1716 137.895 27.594C138.532 28.0164 139.278 28.2415 140.042 28.2415C140.567 28.2652 141.091 28.1775 141.579 27.9846C142.067 27.7915 142.509 27.4972 142.876 27.1214C143.242 26.7454 143.525 26.2963 143.706 25.8031C143.886 25.3102 143.961 24.7844 143.924 24.2607Z" fill="#001A49"/>
<path d="M163.92 27.52C163.92 31.272 160.657 32.8704 157.134 32.8704C155.711 32.9992 154.282 32.6979 153.032 32.0056C151.781 31.3134 150.768 30.2619 150.121 28.9872L154.361 26.5744C154.534 27.1637 154.903 27.6758 155.408 28.0253C155.913 28.3747 156.522 28.5403 157.134 28.4944C158.309 28.4944 158.894 28.1344 158.894 27.4832C158.894 25.688 150.87 26.6352 150.87 20.9904C150.87 17.4352 153.87 15.6416 157.27 15.6416C158.546 15.6015 159.808 15.9042 160.926 16.5179C162.046 17.1317 162.979 18.0341 163.63 19.1312L159.456 21.3824C159.273 20.9542 158.969 20.5893 158.58 20.3333C158.191 20.0771 157.736 19.9413 157.27 19.9424C156.422 19.9424 155.901 20.2624 155.901 20.856C155.896 22.728 163.92 21.488 163.92 27.52Z" fill="#001A49"/>
<path d="M181.801 16.1055V32.4159H176.908V30.8799C176.343 31.5565 175.625 32.0896 174.813 32.4357C174.004 32.7816 173.122 32.9306 172.242 32.8703C168.948 32.8703 166.143 30.5215 166.143 26.1167V16.1055H171.036V25.4031C170.994 25.7919 171.039 26.185 171.165 26.5549C171.292 26.9248 171.497 27.2629 171.767 27.5455C172.037 27.828 172.365 28.0482 172.729 28.1908C173.093 28.3335 173.484 28.3949 173.874 28.3711C175.668 28.3711 176.914 27.3279 176.914 25.0111V16.1055H181.801Z" fill="#001A49"/>
<path d="M209.847 22.4V32.416H204.954V22.8256C204.954 21.1952 204.17 20.1504 202.605 20.1504C200.973 20.1504 200.061 21.2928 200.061 23.2176V32.416H195.167V22.8256C195.167 21.1952 194.384 20.1504 192.818 20.1504C191.188 20.1504 190.274 21.2928 190.274 23.2176V32.416H185.381V16.1056H190.282V17.6C190.789 16.9346 191.455 16.4069 192.218 16.065C192.981 15.7232 193.82 15.5782 194.653 15.6432C195.49 15.6023 196.325 15.779 197.074 16.1562C197.823 16.5333 198.461 17.0979 198.927 17.7952C199.469 17.0658 200.188 16.4856 201.015 16.1093C201.842 15.7329 202.752 15.5726 203.658 15.6432C207.402 15.6496 209.847 18.3232 209.847 22.4Z" fill="#001A49"/>
<path d="M213.992 16.0047C215.998 16.0047 217.624 14.3786 217.624 12.3727C217.624 10.3668 215.998 8.74072 213.992 8.74072C211.985 8.74072 210.36 10.3668 210.36 12.3727C210.36 14.3786 211.985 16.0047 213.992 16.0047Z" fill="#001A49"/>
<path d="M55.4926 8.60303H60.387V32.4159H55.4926V8.60303ZM63.1582 24.2607C63.1529 22.5506 63.655 20.8775 64.601 19.4532C65.5471 18.0287 66.8946 16.917 68.4729 16.2589C70.0513 15.6008 71.7892 15.4258 73.4671 15.7561C75.1449 16.0865 76.687 16.9071 77.898 18.1145C79.109 19.3217 79.9346 20.861 80.2702 22.5378C80.6057 24.2146 80.4362 25.9532 79.7831 27.5335C79.13 29.1138 78.0226 30.4649 76.6012 31.4154C75.1797 32.366 73.5082 32.8735 71.7981 32.8735C70.6625 32.8855 69.5358 32.6713 68.4838 32.2431C67.4319 31.8149 66.4758 31.1814 65.6714 30.3796C64.867 29.5777 64.2305 28.6236 63.7989 27.573C63.3674 26.5225 63.1497 25.3964 63.1582 24.2607ZM75.5549 24.2607C75.5357 23.5229 75.2996 22.8074 74.8757 22.2034C74.4521 21.5994 73.8596 21.1337 73.1726 20.8645C72.4854 20.5956 71.7343 20.5349 71.013 20.6906C70.2918 20.8461 69.6324 21.2111 69.1174 21.7394C68.6023 22.2679 68.2546 22.9364 68.1175 23.6613C67.9806 24.3865 68.0602 25.1357 68.347 25.8157C68.6335 26.4956 69.1143 27.0759 69.729 27.4841C70.3438 27.8922 71.0652 28.11 71.803 28.1103C72.3082 28.1247 72.8111 28.0341 73.2796 27.8445C73.7482 27.6551 74.1724 27.3705 74.5255 27.0087C74.8786 26.6471 75.153 26.2162 75.3313 25.7433C75.5095 25.2701 75.5879 24.7653 75.5614 24.2607H75.5549ZM99.9533 16.1007V31.5967C99.9533 37.0767 95.6797 39.3919 91.3421 39.3919C89.8154 39.5071 88.2863 39.1997 86.9225 38.5034C85.5588 37.8073 84.413 36.7489 83.6109 35.4447L87.7853 33.0303C88.1223 33.7109 88.6591 34.2725 89.3239 34.6401C89.9887 35.0074 90.7497 35.1631 91.5054 35.0863C91.9878 35.1521 92.4786 35.1089 92.942 34.9596C93.4053 34.8103 93.8292 34.5591 94.1825 34.2241C94.5356 33.8892 94.809 33.4793 94.9826 33.0244C95.1562 32.5697 95.2255 32.0817 95.1853 31.5967V30.0959C94.6122 30.7967 93.8828 31.3535 93.0557 31.7217C92.2285 32.0898 91.3266 32.2591 90.4221 32.2159C88.2693 32.1489 86.227 31.2466 84.7278 29.7001C83.2286 28.1535 82.3902 26.0842 82.3902 23.9303C82.3902 21.7762 83.2286 19.7069 84.7278 18.1604C86.227 16.6138 88.2693 15.7115 90.4221 15.6446C91.3266 15.6014 92.2285 15.7706 93.0557 16.1388C93.8828 16.5069 94.6122 17.0637 95.1853 17.7647V16.1007H99.9533ZM95.1918 23.9295C95.2241 23.1417 95.0199 22.3623 94.6057 21.6914C94.1914 21.0205 93.586 20.4889 92.8671 20.1649C92.1484 19.8409 91.349 19.7393 90.5721 19.8732C89.7951 20.0071 89.0759 20.3703 88.5069 20.9162C87.938 21.4621 87.5453 22.1657 87.3796 22.9364C87.2137 23.7073 87.2822 24.51 87.5762 25.2417C87.8702 25.9732 88.3764 26.6001 89.0295 27.0417C89.6826 27.4833 90.453 27.7194 91.2413 27.7199C91.7554 27.7559 92.2714 27.6841 92.7561 27.5089C93.2407 27.3337 93.6833 27.0589 94.0554 26.7023C94.4274 26.3458 94.7209 25.9153 94.9166 25.4386C95.1122 24.9618 95.206 24.4493 95.1918 23.9343V23.9295ZM102.725 24.2495C102.719 22.5394 103.221 20.8663 104.167 19.442C105.114 18.0175 106.461 16.9058 108.039 16.2477C109.618 15.5896 111.356 15.4146 113.034 15.7449C114.711 16.0753 116.253 16.8959 117.464 18.1033C118.675 19.3105 119.501 20.8498 119.837 22.5266C120.172 24.2034 120.003 25.942 119.35 27.5223C118.696 29.1026 117.589 30.4537 116.168 31.4042C114.746 32.3548 113.075 32.8623 111.365 32.8623C110.23 32.8743 109.104 32.6604 108.053 32.2329C107.002 31.8055 106.046 31.1729 105.242 30.3722C104.438 29.5716 103.801 28.619 103.369 27.5695C102.936 26.5202 102.718 25.3954 102.725 24.2607V24.2495ZM115.121 24.2495C115.102 23.5114 114.866 22.7953 114.443 22.1906C114.019 21.5861 113.426 21.1201 112.739 20.8506C112.051 20.5812 111.3 20.5205 110.578 20.6762C109.856 20.8317 109.196 21.1969 108.681 21.7255C108.166 22.2543 107.818 22.9233 107.681 23.6487C107.544 24.3741 107.624 25.1241 107.91 25.8042C108.198 26.4845 108.679 27.065 109.294 27.4733C109.909 27.8815 110.631 28.0991 111.369 28.0991C111.873 28.1124 112.374 28.0217 112.841 27.8324C113.308 27.6431 113.731 27.3593 114.083 26.9989C114.436 26.6386 114.71 26.2093 114.888 25.7381C115.067 25.2669 115.146 24.7639 115.121 24.2607V24.2495Z" fill="#001A49"/>
</svg>
