<svg width="218" height="48" viewBox="0 0 218 48" fill="none" xmlns="http://www.w3.org/2000/svg">
<g clip-path="url(#clip0_70_516)">
<path fill-rule="evenodd" clip-rule="evenodd" d="M69.2419 3.1945C69.2419 1.5679 70.5749 0.249268 72.2195 0.249268H77.4065C78.5769 0.249268 79.7112 0.650476 80.6162 1.3846L82.1941 2.66454L82.2336 2.70014C82.27 2.68799 82.3064 2.67611 82.3429 2.66454C85.1897 1.76262 88.6435 1.59109 92.1687 1.59109C95.6939 1.59109 99.1478 1.76262 101.995 2.66454C102.031 2.67611 102.068 2.68799 102.104 2.70014L102.143 2.66454L103.721 1.3846C104.626 0.650476 105.761 0.249268 106.931 0.249268H112.118C113.763 0.249268 115.096 1.5679 115.096 3.1945V5.0152C115.096 6.42388 114.496 7.7674 113.443 8.71616L112.17 9.86347C111.549 10.4236 110.803 10.8312 109.993 11.0534L109.691 11.136C110.871 13.9199 111.523 16.8957 111.523 19.303C111.523 28.9866 105.465 33.1688 100.128 36.8538C95.9251 39.7558 92.1687 42.3493 92.1687 47.0786C92.1687 42.3493 88.4123 39.7558 84.2093 36.8538C78.8721 33.1688 72.8149 28.9866 72.8149 19.303C72.8149 16.8957 73.4665 13.9199 74.646 11.136L74.3449 11.0534C73.5348 10.8312 72.7889 10.4236 72.1675 9.86347L70.8945 8.71616C69.8418 7.7674 69.2419 6.42388 69.2419 5.0152V3.1945ZM96.0395 27.2197C96.0395 27.6824 95.8356 28.126 95.4727 28.4532C95.1097 28.7803 94.6174 28.9641 94.1041 28.9641C93.6609 28.9641 93.2334 28.827 92.8913 28.579C93.4736 30.1209 94.9639 31.5818 97.2305 29.2324C99.2315 27.0494 97.1415 22.445 95.1054 19.7127C94.4267 18.802 93.3125 18.3637 92.1687 18.3637C91.0249 18.3637 89.9107 18.802 89.2321 19.7127C87.1959 22.445 85.1059 27.0494 87.107 29.2324C89.3736 31.5818 90.8638 30.1209 91.4462 28.579C91.1041 28.827 90.6765 28.9641 90.2334 28.9641C89.72 28.9641 89.2277 28.7803 88.8648 28.4532C88.5019 28.126 88.2979 27.6824 88.2979 27.2197H96.0395ZM84.7572 13.5899H79.3655L83.6147 16.9554C84.5497 17.6959 85.9164 17.4592 86.495 16.4565C87.2256 15.1904 86.2553 13.5899 84.7572 13.5899ZM99.5803 13.5899H104.972L100.723 16.9554C99.7877 17.6959 98.421 17.4592 97.8424 16.4565C97.1119 15.1904 98.0822 13.5899 99.5803 13.5899Z" fill="#72B800"/>
<path d="M121.519 33.4201H126.296V15.4025H121.519V33.4201ZM121.519 12.5928H126.296V8.30786H121.519V12.5928Z" fill="#355030"/>
<path d="M129.371 39.3206H134.147V31.3831H134.218C135.236 32.9284 136.887 33.947 139.416 33.947C144.052 33.947 147.213 30.2592 147.213 24.4289C147.213 18.8094 144.157 14.9109 139.381 14.9109C136.922 14.9109 135.236 16.0699 134.077 17.6504H133.972V15.4026H129.371V39.3206ZM138.397 29.9782C135.552 29.9782 134.042 27.8358 134.042 24.5694C134.042 21.3382 135.236 18.7743 138.222 18.7743C141.172 18.7743 142.366 21.1626 142.366 24.5694C142.366 27.9763 140.821 29.9782 138.397 29.9782Z" fill="#355030"/>
<path d="M156.745 33.947C161.241 33.947 164.332 31.7694 164.332 28.1519C164.332 23.9372 160.995 23.0943 157.975 22.4621C155.411 21.9353 153.023 21.7948 153.023 20.2494C153.023 18.9499 154.252 18.2475 156.113 18.2475C158.15 18.2475 159.38 18.9499 159.59 20.8816H163.91C163.559 17.2641 160.925 14.9109 156.183 14.9109C152.074 14.9109 148.843 16.7724 148.843 20.6709C148.843 24.6045 152.004 25.4826 155.235 26.1148C157.694 26.6065 159.977 26.7821 159.977 28.5031C159.977 29.7675 158.783 30.5753 156.675 30.5753C154.533 30.5753 153.058 29.6621 152.742 27.5899H148.316C148.597 31.4182 151.512 33.947 156.745 33.947Z" fill="#355030"/>
<path d="M182.464 33.4201V15.4026H177.688V25.7987C177.688 28.187 176.318 29.8728 174.07 29.8728C172.033 29.8728 171.085 28.7138 171.085 26.6065V15.4026H166.344V27.4143C166.344 31.348 168.591 33.9119 172.595 33.9119C175.124 33.9119 176.529 32.9636 177.758 31.3128H177.864V33.4201H182.464Z" fill="#355030"/>
<path d="M185.558 33.4202H190.335V22.9538C190.335 20.5655 191.634 19.0202 193.566 19.0202C195.322 19.0202 196.341 20.0738 196.341 22.1109V33.4202H201.117V22.9538C201.117 20.5655 202.347 19.0202 204.349 19.0202C206.105 19.0202 207.123 20.0738 207.123 22.1109V33.4202H211.9V21.3031C211.9 17.3694 209.757 14.9109 205.964 14.9109C203.681 14.9109 201.785 16.105 200.555 18.0719H200.485C199.607 16.1753 197.781 14.9109 195.498 14.9109C193.004 14.9109 191.248 16.1753 190.265 17.826H190.159V15.4026H185.558V33.4202Z" fill="#355030"/>
<path d="M0.925537 33.4201H5.70212V8.30786H0.925537V33.4201Z" fill="#355030"/>
<path d="M17.3852 33.947C22.9695 33.947 26.7978 29.8026 26.7978 24.4289C26.7978 19.0553 22.9695 14.9109 17.3852 14.9109C11.8007 14.9109 7.97241 19.0553 7.97241 24.4289C7.97241 29.8026 11.8007 33.947 17.3852 33.947ZM17.3852 30.2943C14.4349 30.2943 12.8193 27.9411 12.8193 24.4289C12.8193 20.9167 14.4349 18.5284 17.3852 18.5284C20.3003 18.5284 21.951 20.9167 21.951 24.4289C21.951 27.9411 20.3003 30.2943 17.3852 30.2943Z" fill="#355030"/>
<path d="M36.956 39.5665C39.6253 39.5665 41.9433 38.9343 43.4536 37.5294C44.7882 36.3002 45.596 34.5792 45.596 32.0504V15.4026H40.995V17.2992H40.9248C39.836 15.7889 38.1853 14.9109 35.9375 14.9109C31.3716 14.9109 28.1404 18.3528 28.1404 23.7265C28.1404 29.1704 32.074 32.3314 36.0779 32.3314C38.3609 32.3314 39.7306 31.4182 40.7843 30.2241H40.8896V32.1909C40.8896 34.6494 39.5901 35.9489 36.8857 35.9489C34.6731 35.9489 33.6545 35.0709 33.2682 33.947H28.5267C29.0184 37.4592 32.0389 39.5665 36.956 39.5665ZM36.8857 28.5031C34.4272 28.5031 32.8116 26.7119 32.8116 23.6563C32.8116 20.6358 34.4272 18.7392 36.8506 18.7392C39.7306 18.7392 41.1355 20.987 41.1355 23.6211C41.1355 26.2904 39.9062 28.5031 36.8857 28.5031Z" fill="#355030"/>
<path d="M57.2054 33.947C62.7898 33.947 66.6181 29.8026 66.6181 24.4289C66.6181 19.0553 62.7898 14.9109 57.2054 14.9109C51.621 14.9109 47.7927 19.0553 47.7927 24.4289C47.7927 29.8026 51.621 33.947 57.2054 33.947ZM57.2054 30.2943C54.2552 30.2943 52.6396 27.9411 52.6396 24.4289C52.6396 20.9167 54.2552 18.5284 57.2054 18.5284C60.1205 18.5284 61.7713 20.9167 61.7713 24.4289C61.7713 27.9411 60.1205 30.2943 57.2054 30.2943Z" fill="#355030"/>
<path d="M211.679 11.4688C211.679 10.6606 212.334 10.0054 213.143 10.0054H216.07C216.877 10.0054 217.533 10.6606 217.533 11.4688C217.533 12.277 216.877 12.9322 216.07 12.9322H213.143C212.334 12.9322 211.679 12.277 211.679 11.4688Z" fill="#355030"/>
</g>
<defs>
<clipPath id="clip0_70_516">
<rect width="217.756" height="48" fill="white" transform="translate(0.126709)"/>
</clipPath>
</defs>
</svg>
