<svg width="77" height="48" viewBox="0 0 77 48" fill="none" xmlns="http://www.w3.org/2000/svg">
<g clip-path="url(#clip0_70_454)">
<path d="M71.4855 5.9002C71.4855 5.95616 71.4855 6.02612 71.4712 6.0681C71.3997 6.61379 71.3997 7.15947 71.4425 7.71915C71.4712 7.85907 71.4998 7.99899 71.6143 8.11093C71.8003 8.3208 72.0865 8.27883 72.201 8.02697C72.2583 7.90105 72.2583 7.77511 72.2296 7.64919C72.0865 7.11749 72.0579 6.55782 72.0436 6.01213C72.0436 5.98415 72.0436 5.94217 72.0436 5.9002C72.201 5.8862 72.3442 5.87221 72.4729 5.87221C72.5731 5.85822 72.659 5.84423 72.7306 5.80225C72.9451 5.69032 72.9451 5.45246 72.7162 5.34052C72.6303 5.29854 72.5159 5.28455 72.4157 5.28455C72.0579 5.29854 71.7002 5.29854 71.3424 5.29854C71.2137 5.29854 71.0848 5.31254 70.956 5.32652C70.8844 5.34052 70.7986 5.34052 70.7414 5.3825C70.6412 5.42447 70.584 5.49443 70.584 5.59237C70.5983 5.69032 70.6412 5.74628 70.7414 5.78826C70.7986 5.83024 70.8701 5.84423 70.9417 5.84423C71.1134 5.85822 71.2995 5.8862 71.4855 5.9002ZM75.4209 6.54383C75.4209 6.55782 75.4351 6.57181 75.4351 6.57181C75.4924 6.94959 75.5497 7.31339 75.5926 7.67717C75.607 7.80309 75.6213 7.91503 75.7071 8.01298C75.8931 8.25084 76.1794 8.22285 76.3081 7.97101C76.3654 7.84507 76.3797 7.71915 76.3511 7.57923C76.2652 7.15947 76.2222 6.73971 76.1364 6.33395C76.0791 6.08209 76.0077 5.84423 75.9361 5.62036C75.8931 5.48044 75.793 5.38249 75.6213 5.3685C75.4495 5.34052 75.3207 5.42447 75.2491 5.5504C75.1633 5.66233 75.0917 5.77427 75.0345 5.9002C74.9343 6.12407 74.8485 6.34794 74.734 6.55782C74.7196 6.61379 74.7053 6.65576 74.6767 6.69773C74.6625 6.66975 74.6482 6.65576 74.6482 6.65576C74.4621 6.30596 74.2903 5.95616 74.1043 5.62036C74.0757 5.59237 74.0614 5.56439 74.0471 5.5364C73.9612 5.41048 73.8611 5.34052 73.7037 5.34052C73.5605 5.35451 73.446 5.43846 73.3745 5.56439C73.3458 5.62036 73.3458 5.66233 73.3315 5.7183C73.2743 6.16604 73.2027 6.61379 73.1455 7.06153C73.1169 7.31339 73.1026 7.56523 73.1026 7.81709C73.0883 7.87305 73.1026 7.94301 73.1311 7.99899C73.1598 8.11092 73.2457 8.18089 73.3601 8.19487C73.5033 8.20887 73.6034 8.16689 73.6464 8.05495C73.6893 7.97101 73.7037 7.90105 73.7179 7.83109C73.7752 7.57923 73.8181 7.34137 73.8611 7.10351C73.8897 6.96359 73.9039 6.85165 73.9469 6.69773C73.9755 6.75371 74.0041 6.79568 74.0328 6.83765C74.1615 7.00556 74.2903 7.17347 74.4478 7.31339C74.6052 7.42531 74.734 7.41133 74.8627 7.28539C74.8914 7.25741 74.9057 7.24343 74.9343 7.21543C75.0631 7.01955 75.2206 6.82367 75.3493 6.62777C75.378 6.59979 75.3923 6.57181 75.4209 6.54383Z" fill="black"/>
<path d="M42.4457 6.17507C42.3462 6.44098 42.3272 6.63256 42.3731 6.79179C42.4239 7.00831 42.5555 7.0792 42.7342 7.02413C44.4151 6.61773 48.101 7.77126 49.4656 8.09276C49.7874 8.16027 50.0492 7.75407 49.8296 7.38988C49.5091 7.03719 45.8249 5.52718 44.4191 5.44485C43.8681 5.4144 42.883 5.27625 42.4457 6.17507Z" fill="black"/>
<path d="M56.8504 1.28704C57.0295 1.38814 57.1297 1.48457 57.1791 1.59232C57.2527 1.73366 57.2139 1.83145 57.0902 1.88135C55.9791 2.41155 54.5006 4.69418 53.9038 5.48143C53.7591 5.66254 53.4254 5.5573 53.375 5.25948C53.3854 4.92274 54.696 2.44558 55.4274 1.77088C55.7149 1.50746 56.1898 0.990596 56.8504 1.28704Z" fill="black"/>
<path d="M48.001 0.163414C48.2162 0.0048206 48.4398 -0.0507552 48.5541 0.0523104C50.2305 1.45407 51.1194 3.67389 51.6699 5.70608C51.6906 5.75342 51.6919 5.82136 51.6754 5.89224C51.6685 5.95282 51.6232 6.01681 51.5513 6.06633C51.4745 6.12099 51.4084 6.13764 51.3773 6.09053C50.6426 5.11344 46.4462 1.31173 48.001 0.163414Z" fill="black"/>
<path d="M12.5029 24.4664C12.9047 24.1739 13.3415 23.9304 13.8037 23.7415C14.2873 23.6063 14.8028 23.6287 15.2722 23.8054C15.7415 23.9822 16.1393 24.3034 16.4053 24.7208C16.6432 25.1371 16.7363 25.6178 16.6706 26.0903C16.6049 26.5628 16.384 27.0017 16.0411 27.3408C15.7752 27.6158 15.4733 27.8552 15.1436 28.0531C13.6737 28.9816 12.1907 29.8591 10.7078 30.7876C10.4043 31.0199 10.0825 31.2284 9.74518 31.4108C9.23216 31.661 8.64586 31.7279 8.08765 31.6002C7.52945 31.4726 7.03447 31.158 6.68828 30.7113C6.42948 30.395 6.21107 30.049 6.03787 29.6811C4.63299 26.794 3.17609 23.9195 1.82325 20.9815C1.19885 19.7097 0.691541 18.247 0.197234 16.8353C-0.0166261 16.4251 -0.0583882 15.9496 0.0808404 15.5097C0.220069 15.0699 0.529304 14.7005 0.942765 14.4801C1.35623 14.2598 1.84129 14.2059 2.2948 14.3298C2.74832 14.4537 3.1345 14.7458 3.3712 15.1437C4.09879 16.0891 4.74285 17.0933 5.29641 18.1454C6.70128 20.689 8.04112 23.2327 9.39396 25.7001C9.47273 25.8365 9.55959 25.968 9.65412 26.0944C10.6724 25.6758 11.6301 25.1285 12.5029 24.4664Z" fill="black"/>
<path d="M27.0271 23.5792C23.8141 27.2548 18.4287 26.3263 15.7231 21.5951C13.7978 18.2374 13.4597 12.6921 17.6483 9.19446C18.5427 8.46221 19.6123 7.96339 20.7572 7.74453C22.161 7.54777 23.5925 7.7899 24.847 8.43636C26.1015 9.08281 27.115 10.1005 27.7426 11.3439C30.032 15.4139 29.7068 20.603 27.0271 23.5792ZM25.7263 15.0069C25.3849 14.0067 24.7002 13.1529 23.7881 12.5903C23.2719 12.2306 22.6448 12.0557 22.0123 12.0951C21.3797 12.1345 20.7803 12.3857 20.3149 12.8065C18.4548 14.4218 18.0645 18.2501 19.4173 20.5267C19.5898 20.898 19.843 21.2279 20.1595 21.4934C20.4759 21.7589 20.8479 21.9537 21.2494 22.0638C21.6509 22.1741 22.0721 22.1973 22.4837 22.1317C22.8953 22.066 23.2871 21.9133 23.6321 21.6841C24.6404 20.9197 25.3801 19.8672 25.7484 18.6729C26.1168 17.4784 26.0954 16.2015 25.6873 15.0196L25.7263 15.0069Z" fill="black"/>
<path d="M40.1395 16.6092C39.8106 16.6784 39.4708 16.6825 39.1401 16.6213C38.8096 16.5601 38.4947 16.435 38.2144 16.2532C37.969 16.1159 37.7578 15.9273 37.5959 15.7007C37.4342 15.4741 37.3257 15.2154 37.2785 14.9429C37.2311 14.6705 37.2463 14.3912 37.3226 14.1251C37.3989 13.8591 37.5347 13.6128 37.7201 13.4041C38.043 12.9848 38.5014 12.6846 39.0209 12.552C40.3772 12.1672 41.7735 11.9325 43.1835 11.8525C43.4933 11.8173 43.8071 11.8429 44.1066 11.9279C44.4062 12.013 44.6852 12.1556 44.9276 12.3476C45.1699 12.5395 45.3706 12.7769 45.5179 13.0457C45.6651 13.3145 45.7559 13.6093 45.7851 13.9129C46.1915 15.4042 46.2361 16.9678 45.9151 18.4789C44.7445 23.3628 40.7119 25.0416 36.1851 23.4773C34.9144 23.059 33.8002 22.2797 32.9851 21.2388C31.8979 19.9854 31.1271 18.4999 30.7347 16.9018C30.4168 15.4787 30.4516 14.0021 30.8363 12.5949C31.221 11.1877 31.9444 9.89093 32.9461 8.81278C33.8967 7.64096 35.1305 6.71874 36.5363 6.12916C37.4247 5.65041 38.4642 5.51429 39.4502 5.7476C39.6738 5.80812 39.8768 5.92605 40.0382 6.08915C40.1995 6.25226 40.3133 6.45459 40.3677 6.67519C40.4222 6.89577 40.4152 7.12657 40.3477 7.34366C40.28 7.56074 40.1543 7.7562 39.9835 7.90976C39.6586 8.19727 39.3057 8.45287 38.9298 8.67287C37.7733 9.39295 36.767 10.3208 35.9639 11.4073C35.4376 12.1104 35.0751 12.9178 34.9021 13.7725C34.7289 14.6273 34.7495 15.5087 34.9624 16.3549C35.2574 17.5087 35.912 18.5443 36.8355 19.3183C39.6973 21.8621 43.4176 19.4073 42.7672 15.9352C41.8177 16.1641 40.9851 16.4058 40.1395 16.6092Z" fill="black"/>
<path d="M57.624 23.7825C53.3964 26.3263 48.5835 23.7825 47.5297 18.4408C46.7623 14.6252 48.2192 9.28339 53.3184 7.24842C54.4033 6.82476 55.5801 6.67602 56.7395 6.81598C58.1325 7.06531 59.4104 7.73581 60.3929 8.73298C61.3753 9.73014 62.0131 11.0036 62.2159 12.374C63.0744 16.9145 61.1232 21.7603 57.624 23.7825ZM59.094 15.2229C59.0927 14.1664 58.7105 13.144 58.0144 12.3358C57.6423 11.836 57.1043 11.4778 56.4923 11.3224C55.8802 11.167 55.2321 11.224 54.6582 11.4837C52.3688 12.4503 50.7558 15.9606 51.3412 18.5426C51.3859 18.9477 51.5205 19.3385 51.7357 19.6875C51.951 20.0365 52.2416 20.3353 52.5873 20.563C52.9329 20.7907 53.3253 20.9419 53.7369 21.0059C54.1486 21.0699 54.5696 21.0452 54.9704 20.9336C56.1805 20.5203 57.2284 19.7478 57.9676 18.724C58.7069 17.7002 59.1007 16.4762 59.094 15.2229Z" fill="black"/>
<path d="M66.4912 24.8509C66.4274 25.3164 66.1771 25.7381 65.7953 26.0231C65.4135 26.3081 64.9315 26.4332 64.4555 26.3708C63.9794 26.3084 63.5481 26.0636 63.2567 25.6903C62.9651 25.3171 62.8372 24.8458 62.901 24.3803C62.9648 23.9148 63.2152 23.4932 63.5969 23.2081C63.9787 22.9231 64.4607 22.7981 64.9368 22.8605C65.4128 22.9229 65.8441 23.1676 66.1357 23.5409C66.4272 23.9142 66.5551 24.3855 66.4912 24.8509ZM65.3595 7.69353C65.6069 7.32409 65.9699 7.04276 66.3942 6.89148C66.8185 6.74021 67.2815 6.72709 67.714 6.85411C68.1537 6.96168 68.5422 7.21369 68.8146 7.56794C69.0869 7.92221 69.2264 8.35719 69.21 8.80005C69.1526 9.51042 69.0439 10.2159 68.8848 10.9113C68.4555 13.2643 68.0392 15.6172 67.584 17.9447C67.3758 18.8732 67.1027 19.7635 66.8034 20.7046C66.6993 20.9988 66.5255 21.2647 66.2961 21.4805C66.1536 21.6428 65.9715 21.7673 65.7666 21.8424C65.5617 21.9177 65.3408 21.9412 65.1243 21.9107C64.9077 21.8803 64.7024 21.7969 64.5276 21.6684C64.3527 21.5398 64.2138 21.3702 64.1238 21.1752C63.9691 20.8255 63.8851 20.4497 63.8766 20.0687C63.8766 18.4916 63.8766 16.9018 63.9807 15.3119C64.1575 13.0431 64.5053 10.79 65.0213 8.57111C65.0821 8.27384 65.1965 7.98956 65.3595 7.73169V7.69353Z" fill="black"/>
<path fill-rule="evenodd" clip-rule="evenodd" d="M7.00651 35.0713C6.85292 35.4066 6.8108 35.7803 6.88586 36.14C6.93579 36.6141 7.04546 37.0805 7.21236 37.5284C7.42075 38.0769 7.65393 38.6193 7.94145 39.2878C8.00757 39.4416 8.07667 39.6022 8.14898 39.7712C8.53671 40.6769 9.02321 41.8343 9.67214 43.5094C9.85581 43.9853 10.0189 44.465 10.1832 44.9481C10.2495 45.1433 10.3161 45.3391 10.3843 45.5353C10.6286 46.2331 11.049 46.8599 11.6062 47.3567C11.8428 47.6298 12.1567 47.8287 12.5086 47.9282C12.8674 48.0297 13.249 48.0233 13.604 47.9098C13.959 47.7962 14.2708 47.5809 14.4989 47.2917C14.7225 47.0082 14.8555 46.6665 14.8813 46.3096C15.0264 45.6142 14.9769 44.8932 14.7378 44.2229C14.3582 43.1098 13.9259 41.9951 13.4274 40.9049L13.4251 40.9001C12.6049 39.1943 11.7713 37.5003 10.8981 35.8057L10.8916 35.7938C10.636 35.3524 10.3038 34.9577 9.91002 34.6276C9.65435 34.3329 9.3017 34.1341 8.91224 34.0656C8.51448 33.9957 8.10426 34.0662 7.7548 34.2646C7.42421 34.4492 7.16215 34.7316 7.00651 35.0713Z" fill="black"/>
<path fill-rule="evenodd" clip-rule="evenodd" d="M19.5346 30.8712C18.2486 30.5455 16.9056 30.4981 15.5991 30.7322C14.5872 30.8296 13.592 31.0578 12.9009 31.5099C12.5494 31.74 12.2652 32.0354 12.1072 32.4109C11.9482 32.7884 11.9279 33.2202 12.0582 33.7013C12.296 34.5825 12.6048 35.4393 12.9126 36.2934L12.9624 36.4317L12.9636 36.4348C13.8902 38.916 14.8257 41.3887 15.7697 43.853C15.8797 44.2413 16.0354 44.616 16.2335 44.9693L16.2372 44.9758C16.4989 45.4148 16.8346 45.8074 17.2301 46.1372C17.4278 46.3185 17.6724 46.444 17.9376 46.5001C18.2054 46.5566 18.4839 46.5402 18.7428 46.4525C19.0018 46.3649 19.2311 46.2094 19.4059 46.003C19.5778 45.8 19.6904 45.5554 19.7317 45.2952C19.9023 44.588 19.8477 43.8468 19.575 43.1708C19.4899 42.9434 19.4231 42.7109 19.3528 42.4662C19.3293 42.3846 19.3055 42.3016 19.2804 42.217C21.4412 41.3912 23.7403 40.2808 24.5488 37.6975C24.8653 36.8048 24.8917 35.8382 24.6242 34.9301C24.3565 34.021 23.8073 33.2153 23.0521 32.6238C22.0244 31.7958 20.8238 31.1976 19.5346 30.8712ZM15.9701 34.0397C16.0126 34.0277 16.0555 34.0166 16.0985 34.0062C17.5052 33.79 18.9444 34.0781 20.1512 34.8173C20.683 35.1789 20.9009 35.5807 20.9383 35.9673C20.9769 36.3654 20.8289 36.7968 20.5315 37.2114C19.9696 37.9947 18.9441 38.6216 18.0178 38.7385C17.3425 37.218 16.6568 35.6359 15.9701 34.0397Z" fill="black"/>
<path d="M28.105 28.088C29.6364 27.3964 31.5334 27.277 33.0178 27.7632C33.3916 27.8697 33.716 28.1 33.9353 28.4147C34.1533 28.7275 34.2539 29.1044 34.2203 29.4812C34.2181 29.7258 34.1567 29.9664 34.0412 30.1835C33.9236 30.4045 33.7533 30.5946 33.5447 30.7377C33.3361 30.8807 33.0953 30.9727 32.8428 31.0055C32.5901 31.0385 32.3332 31.0114 32.0936 30.9266L32.0753 30.9202L32.0582 30.9114C31.9356 30.8486 31.8053 30.8014 31.6706 30.7706L31.6621 30.7688C30.6179 30.4976 29.6329 30.9469 29.2731 31.499C29.1015 31.7623 29.0803 32.028 29.2232 32.2698C29.3762 32.5286 29.7516 32.8191 30.5112 33.0262C30.7201 33.0823 30.9343 33.1364 31.1515 33.1914C31.7521 33.3434 32.3763 33.5014 32.9799 33.7203L32.9822 33.7212C35.7669 34.7571 36.8038 36.9026 36.4488 38.9206C36.0976 40.9162 34.3931 42.7323 31.8298 43.1607C30.8971 43.3629 29.9264 43.3235 29.0138 43.0465C28.099 42.7687 27.2744 42.2617 26.6219 41.5758L26.6049 41.5579C26.3989 41.2994 26.2604 40.9958 26.1989 40.6737C26.1424 40.383 26.1722 40.0825 26.2846 39.8077C26.3963 39.5346 26.5852 39.2982 26.8291 39.1259C27.0866 38.9306 27.3971 38.8135 27.7221 38.789C28.046 38.7647 28.3701 38.8335 28.6545 38.9869C28.9385 39.1211 29.2028 39.2923 29.4399 39.4958L29.4444 39.4995C29.864 39.8747 30.3716 39.9725 30.8583 39.8819C31.3522 39.7901 31.8166 39.5043 32.1153 39.1253C32.412 38.7486 32.5311 38.3011 32.3897 37.8667C32.2475 37.4291 31.8197 36.9389 30.8799 36.529C30.6343 36.427 30.3795 36.3447 30.1145 36.2647C30.0431 36.2431 29.9704 36.2216 29.8969 36.1998C29.701 36.1416 29.4994 36.0817 29.3017 36.0157C29.1656 35.9703 29.0305 35.9274 28.8968 35.8847C28.5312 35.7683 28.1748 35.6549 27.8318 35.5027C27.0853 35.2542 26.4404 34.777 25.993 34.1418C25.5437 33.504 25.3177 32.7414 25.3485 31.9677C25.3509 30.0823 26.5654 28.7833 28.105 28.088Z" fill="black"/>
<path d="M47.5209 27.887C47.224 27.7452 46.8956 27.6779 46.5655 27.6911C46.2353 27.7044 45.9137 27.7978 45.6297 27.963C45.3475 28.1271 45.1112 28.3569 44.9419 28.6319C44.7867 28.8635 44.6792 29.1225 44.6256 29.3944C44.5721 29.6662 44.5734 29.9454 44.6293 30.2165C44.6847 30.565 44.746 30.9038 44.8065 31.238C44.9068 31.7909 45.0043 32.3315 45.0687 32.8826L45.0711 32.8966C45.2176 33.7609 45.2943 34.635 45.3011 35.511L45.3018 35.5235C45.3519 36.4695 45.0222 37.3971 44.3835 38.1095L44.3733 38.1221C44.1655 38.3825 43.8876 38.5813 43.5707 38.6962C43.2539 38.811 42.9107 38.8374 42.5794 38.7724C42.2481 38.7074 41.9419 38.5536 41.6949 38.3281C41.4479 38.1026 41.2698 37.8135 41.1809 37.4949C40.9911 36.8232 40.8812 36.1323 40.8533 35.4361L41.1775 30.3892C41.1823 30.3233 41.1877 30.2557 41.1933 30.1874C41.2056 30.0341 41.2183 29.878 41.2235 29.7324C41.2312 29.5181 41.2246 29.2978 41.1736 29.0892C41.1213 28.876 41.0219 28.6732 40.8456 28.5005C40.6711 28.3296 40.4355 28.2035 40.1389 28.1176C39.6028 27.9659 39.1494 27.9707 38.7716 28.1274C38.3936 28.2842 38.1346 28.5753 37.9513 28.9115C37.7695 29.2449 37.6527 29.6396 37.5643 30.0349C37.4987 30.3282 37.446 30.6362 37.396 30.9293C37.3786 31.0304 37.3617 31.1295 37.3446 31.2258L37.3441 31.2287C37.0762 32.8362 36.9965 34.4685 37.1064 36.0937C37.1269 36.972 37.3143 37.8389 37.659 38.6502C38.0479 39.6971 38.7523 40.6041 39.6792 41.2515C40.6081 41.9003 41.7166 42.2578 42.8579 42.2766C43.9992 42.2955 45.1195 41.9749 46.0703 41.3573C47.0196 40.7406 47.7553 39.8568 48.1801 38.8227C48.7744 37.5054 49.0534 36.0729 48.9958 34.6342C48.9609 33.5838 48.9024 32.5254 48.8443 31.4724C48.8157 30.9558 48.7872 30.4404 48.7617 29.9281C48.7488 29.4144 48.5756 28.9168 48.2651 28.5022C48.073 28.24 47.8173 28.0286 47.5209 27.887Z" fill="black"/>
<path d="M58.0322 35.8007C58.0021 35.8381 57.9703 35.8768 57.9372 35.9171C57.6956 34.5547 57.4718 33.1928 57.2476 31.8289C57.1672 31.3395 57.0864 30.848 57.0051 30.358L56.9959 30.3033L56.9662 30.2561C56.9103 30.1672 56.9047 30.08 56.9047 29.8941V29.8727L56.9013 29.8514C56.8407 29.4675 56.6631 29.1102 56.3918 28.8264C56.1212 28.5433 55.7698 28.3463 55.3833 28.2607C54.9975 28.1677 54.592 28.1882 54.2179 28.3197C53.8448 28.451 53.5196 28.6868 53.2829 28.9977C53.0861 29.2363 52.9247 29.501 52.8039 29.7837C52.5295 30.3929 52.2528 31.0036 51.9752 31.6159L51.9704 31.6265C51.2776 33.1552 50.5801 34.6941 49.9028 36.2452L49.9007 36.2502C49.485 37.2559 49.1418 38.3156 48.7998 39.3721C48.7315 39.5829 48.6632 39.7937 48.5944 40.0039C48.4709 40.3373 48.4169 40.6914 48.4354 41.0454C48.413 41.3623 48.4905 41.6785 48.6579 41.9511C48.8285 42.2293 49.0841 42.4481 49.3886 42.5769C49.7113 42.7153 50.072 42.7446 50.4138 42.6604C50.7548 42.5763 51.0577 42.3839 51.2746 42.1133C51.5517 41.78 51.7901 41.4165 51.9845 41.0315C52.5582 39.884 53.1065 38.7227 53.6523 37.5663C53.8635 37.119 54.0687 36.7184 54.3021 36.2822C54.3182 36.336 54.3345 36.3884 54.3514 36.441C54.5961 37.4943 55.0092 38.5032 55.5752 39.4307C55.6824 39.6271 55.8316 39.7988 56.0127 39.934C56.1959 40.0708 56.4075 40.1668 56.6325 40.2156C56.8576 40.2643 57.0908 40.2645 57.316 40.2162C57.5408 40.168 57.753 40.0719 57.9364 39.9357L58.2993 39.6701L61.1164 37.3501L60.9498 38.3881C60.7212 39.8149 60.4942 41.2298 60.2531 42.645C60.0954 43.2723 60.0956 43.9275 60.2538 44.5545C60.3223 44.9075 60.4969 45.2323 60.7552 45.4878C61.0157 45.7454 61.3493 45.9204 61.7128 45.9902C62.0763 46.0599 62.4529 46.0213 62.7935 45.8791C63.1293 45.7392 63.4149 45.5051 63.6146 45.2067C64.0791 44.6432 64.3682 43.9611 64.4476 43.2414C64.5671 42.2251 64.7022 41.195 64.8374 40.1652C64.993 38.9781 65.1487 37.7915 65.2802 36.6276L65.2806 36.624C65.4071 35.3499 65.4684 34.0706 65.4641 32.7905C65.4918 32.386 65.3888 31.983 65.1693 31.6386C64.9491 31.293 64.6229 31.0243 64.2374 30.8706C63.8364 30.6924 63.3874 30.6447 62.9566 30.7348C62.5287 30.8243 62.1413 31.0448 61.8507 31.3644C61.3311 31.8342 60.8437 32.337 60.3915 32.8695L60.3884 32.8731C59.8948 33.4745 59.4045 34.0877 58.9174 34.697C58.6213 35.0673 58.3259 35.4368 58.0322 35.8007Z" fill="black"/>
</g>
<defs>
<clipPath id="clip0_70_454">
<rect width="76.3636" height="48" fill="white"/>
</clipPath>
</defs>
</svg>
