<svg width="54" height="48" viewBox="0 0 54 48" fill="none" xmlns="http://www.w3.org/2000/svg">
<g clip-path="url(#clip0_70_558)">
<path d="M7.87708 36.2855C9.82256 37.6425 12.9768 37.6425 14.9223 36.2855C16.8677 34.9285 16.8677 32.7283 14.9223 31.3713C12.9768 30.0143 9.82256 30.0143 7.87708 31.3713C5.9316 32.7283 5.9316 34.9285 7.87708 36.2855Z" fill="#25CAAC"/>
<path d="M28.0714 17.8573C30.9897 19.8928 35.721 19.8928 38.6393 17.8573C41.5574 15.8217 41.5574 12.5216 38.6393 10.4861C35.721 8.4506 30.9897 8.4506 28.0714 10.4861C25.1533 12.5216 25.1533 15.8217 28.0714 17.8573Z" fill="#25CAAC"/>
<path d="M17.3512 27.0714C19.783 28.7675 23.7259 28.7675 26.1577 27.0714C28.5895 25.3751 28.5895 22.6249 26.1577 20.9286C23.7259 19.2325 19.783 19.2325 17.3512 20.9286C14.9194 22.6249 14.9194 25.3751 17.3512 27.0714Z" fill="#25CAAC"/>
<path d="M1.71152 25.8429C3.17062 26.8606 5.5363 26.8606 6.99541 25.8429C8.45451 24.8251 8.45451 23.1751 6.99541 22.1572C5.5363 21.1395 3.17062 21.1395 1.71152 22.1572C0.25241 23.1751 0.252411 24.8251 1.71152 25.8429Z" fill="#25CAAC"/>
<path d="M17.3512 7.41484C19.783 9.11108 23.7259 9.11108 26.1577 7.41484C28.5895 5.71859 28.5895 2.96843 26.1577 1.27219C23.7259 -0.424062 19.783 -0.424063 17.3512 1.27219C14.9194 2.96843 14.9194 5.71859 17.3512 7.41484Z" fill="#25CAAC"/>
<path d="M7.87707 16.6289C9.82255 17.9859 12.9768 17.9859 14.9223 16.6289C16.8677 15.2719 16.8677 13.0717 14.9223 11.7148C12.9768 10.3578 9.82255 10.3578 7.87707 11.7148C5.93159 13.0717 5.93161 15.2719 7.87707 16.6289Z" fill="#25CAAC"/>
<path d="M17.3512 46.7279C19.783 48.424 23.7259 48.424 26.1577 46.7279C28.5895 45.0316 28.5895 42.2814 26.1577 40.5851C23.7259 38.8889 19.783 38.8889 17.3512 40.5851C14.9194 42.2814 14.9194 45.0316 17.3512 46.7279Z" fill="#25CAAC"/>
<path d="M40.9152 27.6857C43.8334 29.7211 48.5649 29.7211 51.483 27.6857C54.4013 25.6502 54.4013 22.35 51.483 20.3145C48.5649 18.2789 43.8334 18.2789 40.9152 20.3145C37.997 22.35 37.997 25.6502 40.9152 27.6857Z" fill="#25CAAC"/>
<path d="M28.0714 37.5137C30.9897 39.5493 35.721 39.5493 38.6393 37.5137C41.5574 35.4783 41.5574 32.1781 38.6393 30.1426C35.721 28.1071 30.9897 28.1071 28.0714 30.1426C25.1533 32.1781 25.1533 35.4783 28.0714 37.5137Z" fill="#25CAAC"/>
</g>
<defs>
<clipPath id="clip0_70_558">
<rect width="53.0526" height="48" fill="white" transform="translate(0.617188)"/>
</clipPath>
</defs>
</svg>
