<svg width="100" height="48" viewBox="0 0 100 48" fill="none" xmlns="http://www.w3.org/2000/svg">
<g clip-path="url(#clip0_70_496)">
<path d="M88.7026 23.652C88.7026 27.1368 86.0134 30.024 82.3786 30.024C78.7426 30.024 76.105 27.1368 76.105 23.652C76.105 20.166 78.7438 17.2776 82.3786 17.2776C86.0134 17.2776 88.7026 20.1672 88.7026 23.652Z" fill="#FFD43D"/>
<path d="M59.1819 23.4528C59.1819 26.988 56.3943 29.6268 52.8579 29.6268C49.3731 29.6268 46.5854 26.9868 46.5854 23.4528C46.5854 19.9164 49.373 17.328 52.859 17.328C56.3942 17.328 59.1819 19.9176 59.1819 23.4528Z" fill="#FF0C81"/>
<path d="M24.7497 30.024C28.3845 30.024 31.0737 27.1368 31.0737 23.652C31.0737 20.166 28.3845 17.2776 24.7497 17.2776C21.1137 17.2776 18.4761 20.166 18.4761 23.6508C18.4761 27.1368 21.1149 30.024 24.7497 30.024Z" fill="#11EEFC"/>
<path d="M82.3776 36.648C74.8092 36.648 69.0336 30.7716 69.0336 23.6016C69.0336 16.4808 74.8596 10.6056 82.3776 10.6056C89.9964 10.6056 95.772 16.5312 95.772 23.6016C95.772 30.7716 89.946 36.6468 82.3776 36.6468V36.648ZM82.3776 30.024C86.0136 30.024 88.7016 27.1368 88.7016 23.652C88.7016 20.166 86.0136 17.2776 82.3776 17.2776C78.7428 17.2776 76.104 20.166 76.104 23.6508C76.104 27.1368 78.7428 30.024 82.3776 30.024ZM52.3596 48C46.584 48 42.1524 45.4608 39.912 40.8792L45.7872 37.6932C46.8828 39.834 48.924 41.5272 52.26 41.5272C56.4432 41.5272 59.28 38.5896 59.28 33.7596V33.3108C57.936 35.004 55.5468 36.2988 52.0608 36.2988C45.1392 36.2988 39.6132 30.9216 39.6132 23.6016C39.6132 16.4808 45.3888 10.656 52.9572 10.656C60.6744 10.656 66.3516 16.182 66.3516 23.6016V33.5604C66.3516 42.324 60.3756 48 52.3596 48ZM52.8576 29.6268C56.3928 29.6268 59.1816 26.9868 59.1816 23.4528C59.1816 19.9164 56.3928 17.328 52.8576 17.328C49.3716 17.328 46.584 19.9176 46.584 23.4528C46.584 26.988 49.3716 29.6268 52.8576 29.6268ZM24.7524 36.648C17.184 36.648 11.4084 30.7716 11.4084 23.6016C11.4084 16.4808 17.2332 10.6056 24.7524 10.6056C32.37 10.6056 38.1468 16.5312 38.1468 23.6016C38.1468 30.7716 32.3208 36.6468 24.7524 36.6468V36.648ZM24.7524 30.024C28.3872 30.024 31.0764 27.1368 31.0764 23.652C31.0764 20.166 28.3872 17.2776 24.7524 17.2776C21.1164 17.2776 18.4788 20.166 18.4788 23.6508C18.4788 27.1368 21.1176 30.024 24.7524 30.024ZM0.663574 0H7.73397V36H0.663574V0ZM99.0636 7.8C99.0636 8.59565 98.7475 9.35871 98.1849 9.92132C97.6223 10.4839 96.8592 10.8 96.0636 10.8C95.2679 10.8 94.5049 10.4839 93.9423 9.92132C93.3796 9.35871 93.0636 8.59565 93.0636 7.8C93.0636 7.00435 93.3796 6.24129 93.9423 5.67868C94.5049 5.11607 95.2679 4.8 96.0636 4.8C96.8592 4.8 97.6223 5.11607 98.1849 5.67868C98.7475 6.24129 99.0636 7.00435 99.0636 7.8Z" fill="#171A26"/>
</g>
<defs>
<clipPath id="clip0_70_496">
<rect width="98.4" height="48" fill="white" transform="translate(0.663574)"/>
</clipPath>
</defs>
</svg>
