<svg width="69" height="48" viewBox="0 0 69 48" fill="none" xmlns="http://www.w3.org/2000/svg">
<path d="M6.16575 43.5088V33.7297H4.5625V43.5088H6.16575Z" fill="#152C4F"/>
<path d="M7.14453 40.2491C7.14453 42.2469 8.48497 43.6664 10.5219 43.6664C12.5587 43.6664 13.8992 42.2469 13.8992 40.2491C13.8992 38.2512 12.5587 36.8317 10.5219 36.8317C8.48497 36.8317 7.14453 38.2512 7.14453 40.2491ZM8.76091 40.2491C8.76091 39.0792 9.45742 38.2643 10.5219 38.2643C11.5863 38.2643 12.2828 39.0792 12.2828 40.2491C12.2828 41.4057 11.5863 42.2337 10.5219 42.2337C9.45742 42.2337 8.76091 41.4057 8.76091 40.2491Z" fill="#152C4F"/>
<path d="M14.4375 40.1176C14.4375 42.0103 15.6596 43.3773 17.4863 43.3773C18.4325 43.3773 19.2472 42.9961 19.6546 42.3652V43.4693C19.6546 44.5339 18.9844 45.2437 17.8674 45.2437C16.8686 45.2437 16.1853 44.7573 16.0933 43.903H14.4769C14.6872 45.5986 15.9882 46.7026 17.7754 46.7026C19.878 46.7026 21.2184 45.3225 21.2184 43.1801V37.0157H19.7992L19.7072 37.8963C19.3129 37.2128 18.4982 36.8053 17.5388 36.8053C15.6859 36.8053 14.4375 38.2117 14.4375 40.1176ZM16.067 40.0781C16.067 39.0003 16.7504 38.2117 17.7623 38.2117C18.8661 38.2117 19.602 39.0135 19.602 40.0781C19.602 41.1559 18.8661 41.984 17.7623 41.984C16.7635 41.984 16.067 41.1691 16.067 40.0781Z" fill="#152C4F"/>
<path d="M22.0156 40.2491C22.0156 42.2469 23.3561 43.6664 25.3929 43.6664C27.4298 43.6664 28.7703 42.2469 28.7703 40.2491C28.7703 38.2512 27.4298 36.8317 25.3929 36.8317C23.3561 36.8317 22.0156 38.2512 22.0156 40.2491ZM23.632 40.2491C23.632 39.0792 24.3285 38.2643 25.3929 38.2643C26.4574 38.2643 27.1539 39.0792 27.1539 40.2491C27.1539 41.4057 26.4574 42.2337 25.3929 42.2337C24.3285 42.2337 23.632 41.4057 23.632 40.2491Z" fill="#152C4F"/>
<path d="M30.5048 35.6882C31.0304 35.6882 31.4641 35.2676 31.4641 34.7287C31.4641 34.2029 31.0304 33.7823 30.5048 33.7823C29.966 33.7823 29.5586 34.2029 29.5586 34.7287C29.5586 35.2676 29.966 35.6882 30.5048 35.6882ZM29.7032 43.5088H31.3064V37.0157H29.7032V43.5088Z" fill="#152C4F"/>
<path d="M32.7109 46.5186H34.2747V42.6149C34.6821 43.2852 35.5626 43.6796 36.535 43.6796C38.4537 43.6796 39.597 42.2075 39.5707 40.1833C39.5313 38.146 38.3617 36.8185 36.5219 36.8185C35.5363 36.8185 34.6427 37.2522 34.2484 38.0014L34.1565 37.0157H32.7109V46.5186ZM34.3404 40.2622C34.3404 39.0924 35.0501 38.2774 36.1671 38.2774C37.2841 38.2774 37.9543 39.1055 37.9543 40.2622C37.9543 41.4188 37.2841 42.2337 36.1671 42.2337C35.0501 42.2337 34.3404 41.432 34.3404 40.2622Z" fill="#152C4F"/>
<path d="M39.9766 41.5634C40.0292 42.8515 41.0279 43.6796 42.5786 43.6796C44.1029 43.6796 45.1411 42.8647 45.1411 41.6028C45.1411 40.6696 44.5629 40.0387 43.4985 39.7759L42.3552 39.4998C41.8689 39.3684 41.5404 39.1975 41.5404 38.7769C41.5404 38.33 41.8952 38.0146 42.4734 38.0146C43.0779 38.0146 43.4722 38.3563 43.4722 38.9215H44.9309C44.8783 37.6334 43.919 36.8185 42.5128 36.8185C41.1199 36.8185 40.0817 37.6334 40.0817 38.8689C40.0817 39.7102 40.5679 40.4067 41.8164 40.7353L42.9465 41.0245C43.367 41.1428 43.6299 41.3399 43.6299 41.708C43.6299 42.2206 43.1437 42.4572 42.5523 42.4572C41.8427 42.4572 41.4352 42.1286 41.4352 41.5634H39.9766Z" fill="#152C4F"/>
<path d="M48.4684 43.6795C49.3489 43.6795 50.19 43.272 50.571 42.6674L50.6762 43.5087H52.1743V37.0156H50.571V40.4199C50.571 41.5896 50.1242 42.2468 49.073 42.2468C48.2582 42.2468 47.6931 41.8525 47.6931 40.5118V37.0156H46.0898V41.0771C46.0898 42.628 46.9309 43.6795 48.4684 43.6795Z" fill="#152C4F"/>
<path d="M55.1891 43.5087V39.7759C55.1891 38.7243 55.8068 38.2249 56.569 38.2249C57.3312 38.2249 57.8306 38.7112 57.8306 39.6313V43.5087H59.3944V39.789C59.3944 38.7243 59.9989 38.2249 60.7611 38.2249C61.5364 38.2249 62.0358 38.7112 62.0358 39.6313V43.5087H63.5865V39.2632C63.5865 37.7649 62.7585 36.8185 61.1816 36.8185C60.196 36.8185 59.4207 37.2917 59.1053 38.054C58.7505 37.2917 58.0409 36.8185 56.9633 36.8185C56.201 36.8185 55.5177 37.1734 55.1366 37.7517L55.0577 37.0157H53.5859V43.5087H55.1891Z" fill="#152C4F"/>
<path d="M30.1726 24.8771C28.0605 28.6781 23.76 30.4864 19.4116 30.4864H1.96484C20.127 28.2162 32.7757 19.1351 34.3973 6.48645C36.0189 19.1351 48.6675 28.2162 66.8297 30.4864H49.3829C45.0345 30.4864 40.7341 28.6781 38.6219 24.8771C36.3358 20.7632 34.8794 16.1081 34.3973 11.027C33.9152 16.1081 32.4587 20.7632 30.1726 24.8771Z" fill="#1A4688"/>
<path d="M20.1983 23.5339C19.1795 24.1075 18.1078 24.6462 16.9856 25.1481C16.3482 22.9462 16.1137 20.636 16.3007 18.3348C16.5482 15.2903 17.5259 12.3553 19.1473 9.78967C20.7687 7.22407 22.9836 5.107 25.596 3.62606C28.2084 2.14513 31.1375 1.34602 34.124 1.29952C37.1104 1.25301 40.062 1.96055 42.7172 3.35946C45.3725 4.75836 47.6494 6.80543 49.3463 9.3194C51.0433 11.8334 52.108 14.7366 52.446 17.7719C52.7224 20.2546 52.5057 22.763 51.8152 25.1481C50.6931 24.6462 49.6214 24.1074 48.6025 23.5338C49.0321 21.7901 49.1525 19.9761 48.9523 18.1788C48.6798 15.7312 47.8212 13.39 46.4528 11.3628C45.0844 9.33555 43.2483 7.68474 41.1071 6.55667C38.9659 5.42859 36.5857 4.85804 34.1775 4.89553C31.7692 4.93303 29.4071 5.57744 27.3006 6.77163C25.194 7.96586 23.4078 9.67304 22.1003 11.742C20.7928 13.8109 20.0044 16.1777 19.8049 18.6328C19.6707 20.2829 19.8054 21.9388 20.1983 23.5339Z" fill="#7FB5E6"/>
</svg>
