<svg width="186" height="48" viewBox="0 0 186 48" fill="none" xmlns="http://www.w3.org/2000/svg">
<path d="M61.9001 12.3406H57.6016V31.7365H69.5012V27.936H61.9001V12.3406Z" fill="#243A5A"/>
<path d="M69.9102 25.1578C69.9102 29.2992 72.6885 32.0512 76.8822 32.0512C81.0496 32.0512 83.828 29.2992 83.828 25.1578C83.828 21.0165 81.0496 18.2382 76.8822 18.2382C72.6885 18.2382 69.9102 21.0165 69.9102 25.1578ZM73.9728 25.1316C73.9728 23.1658 75.1261 21.8553 76.8822 21.8553C78.6121 21.8553 79.7654 23.1658 79.7654 25.1316C79.7654 27.1237 78.6121 28.4342 76.8822 28.4342C75.1261 28.4342 73.9728 27.1237 73.9728 25.1316Z" fill="#243A5A"/>
<path d="M84.4782 24.9482C84.4782 28.9059 87.0469 31.5793 90.6901 31.5793C92.4463 31.5793 93.9665 30.9503 94.7266 29.9281V31.7367C94.7266 33.5452 93.5995 34.7508 91.6075 34.7508C89.8252 34.7508 88.5933 33.9122 88.5147 32.4182H84.4258C84.7927 36.009 87.5711 38.4203 91.3716 38.4203C95.8536 38.4203 98.6844 35.511 98.6844 30.8979V18.6314H95.0411L94.8315 19.968C94.0975 18.8934 92.5511 18.1858 90.7689 18.1858C87.0993 18.1858 84.4782 20.9379 84.4782 24.9482ZM88.5671 24.8433C88.5671 22.956 89.8252 21.698 91.4241 21.698C93.285 21.698 94.648 22.9299 94.648 24.8433C94.648 26.7567 93.3112 28.0672 91.4502 28.0672C89.8515 28.0672 88.5671 26.7567 88.5671 24.8433Z" fill="#243A5A"/>
<path d="M99.8613 25.1577C99.8613 29.299 102.64 32.0511 106.833 32.0511C111.001 32.0511 113.779 29.299 113.779 25.1577C113.779 21.0164 111.001 18.238 106.833 18.238C102.64 18.238 99.8613 21.0164 99.8613 25.1577ZM103.924 25.1314C103.924 23.1657 105.077 21.8552 106.833 21.8552C108.563 21.8552 109.717 23.1657 109.717 25.1314C109.717 27.1236 108.563 28.4341 106.833 28.4341C105.077 28.4341 103.924 27.1236 103.924 25.1314Z" fill="#243A5A"/>
<path d="M117.26 16.5869C118.518 16.5869 119.54 15.5646 119.54 14.2804C119.54 12.996 118.518 12 117.26 12C115.975 12 114.953 12.996 114.953 14.2804C114.953 15.5646 115.975 16.5869 117.26 16.5869ZM115.215 31.7366H119.278V18.6313H115.215V31.7366Z" fill="#243A5A"/>
<path d="M121.641 38.0272H125.625V30.4261C126.384 31.4221 128.115 32.1036 129.923 32.1036C133.828 32.1036 136.187 29.1156 136.083 24.9743C135.977 20.7544 133.54 18.2119 129.897 18.2119C128.035 18.2119 126.28 19.0244 125.545 20.2302L125.335 18.6313H121.641V38.0272ZM125.703 25.1839C125.703 23.2182 127.013 21.9077 128.901 21.9077C130.813 21.9077 132.019 23.2444 132.019 25.1839C132.019 27.1236 130.813 28.4603 128.901 28.4603C127.013 28.4603 125.703 27.1498 125.703 25.1839Z" fill="#243A5A"/>
<path d="M136.516 27.5953C136.62 30.2426 138.718 32.0773 142.02 32.0773C145.192 32.0773 147.394 30.3998 147.394 27.7002C147.394 25.7606 146.24 24.4763 144.09 23.952L141.758 23.3754C140.92 23.1658 140.395 22.956 140.395 22.2745C140.395 21.593 140.945 21.1475 141.758 21.1475C142.675 21.1475 143.278 21.7504 143.252 22.6415H146.896C146.79 19.9156 144.72 18.2119 141.836 18.2119C138.928 18.2119 136.752 19.9418 136.752 22.5629C136.752 24.319 137.722 25.7606 140.316 26.4421L142.622 27.0449C143.304 27.2284 143.592 27.5429 143.592 27.9884C143.592 28.6438 142.99 29.0632 141.967 29.0632C140.788 29.0632 140.159 28.5127 140.159 27.5953H136.516Z" fill="#243A5A"/>
<path d="M153.569 32.0773C155.168 32.0773 156.767 31.3434 157.579 30.2688L157.842 31.7367H161.642V18.6313H157.606V25.4461C157.606 27.4119 157.03 28.4865 155.169 28.4865C153.726 28.4865 152.783 27.8313 152.783 25.3937V18.6313H148.746V26.8614C148.746 29.9806 150.476 32.0773 153.569 32.0773Z" fill="#243A5A"/>
<path d="M168.044 31.7367V24.5812C168.044 22.3794 169.223 21.7504 170.376 21.7504C171.66 21.7504 172.499 22.5368 172.499 24.1618V31.7367H176.483V24.5812C176.483 22.3533 177.636 21.7242 178.79 21.7242C180.074 21.7242 180.939 22.5105 180.939 24.1618V31.7367H184.871V23.1658C184.871 20.1778 183.298 18.1858 179.916 18.1858C178.03 18.1858 176.483 19.1031 175.802 20.5185C175.016 19.1031 173.652 18.1858 171.477 18.1858C170.036 18.1858 168.699 18.841 167.913 19.8894L167.756 18.6314H163.98V31.7367H168.044Z" fill="#243A5A"/>
<path d="M0 24C0 12.6863 0 7.02943 3.51472 3.51472C7.02943 0 12.6863 0 24 0C35.3137 0 40.9705 0 44.4853 3.51472C48 7.02943 48 12.6863 48 24C48 35.3137 48 40.9705 44.4853 44.4853C40.9705 48 35.3137 48 24 48C12.6863 48 7.02943 48 3.51472 44.4853C0 40.9705 0 35.3137 0 24Z" fill="#243A5A"/>
<path d="M28.8016 31.2C29.4643 31.2 30.0137 31.7425 29.8821 32.392C29.6494 33.5392 29.0842 34.6026 28.2442 35.4426C27.1191 36.5678 25.5929 37.2 24.0016 37.2C22.4103 37.2 20.8842 36.5678 19.759 35.4426C18.919 34.6026 18.3538 33.5392 18.1212 32.392C17.9895 31.7425 18.5388 31.2 19.2016 31.2H28.8016Z" fill="#2DF8BB"/>
<path d="M31.3241 21.3318C30.6839 21.5033 30.2918 22.173 30.6164 22.7508C30.9581 23.3589 31.4306 23.8897 32.0055 24.3017C32.9082 24.9485 34.0071 25.2624 35.1153 25.1897C36.2234 25.1171 37.2721 24.6625 38.0826 23.9034C38.8932 23.1443 39.4153 22.1275 39.5603 21.0265C39.7052 19.9255 39.464 18.8083 38.8776 17.8652C38.2911 16.9223 37.3958 16.2117 36.3443 15.8547C35.2927 15.4977 34.1499 15.5165 33.1106 15.9077C32.4487 16.1568 31.8549 16.5471 31.3675 17.0461C30.9044 17.5202 31.1097 18.2687 31.6837 18.6L32.2925 18.9515C33.2183 19.4861 33.0357 20.8731 32.003 21.1499L31.3241 21.3318Z" fill="#2DF8BB"/>
<path d="M16.6777 21.3319C17.3179 21.5034 17.7099 22.1731 17.3853 22.7509C17.0437 23.3591 16.5711 23.8898 15.9963 24.3018C15.0937 24.9486 13.9946 25.2625 12.8865 25.1898C11.7783 25.1172 10.7297 24.6626 9.91916 23.9035C9.10864 23.1444 8.58641 22.1276 8.44146 21.0266C8.29652 19.9256 8.5378 18.8084 9.12423 17.8653C9.71064 16.9224 10.6059 16.2119 11.6575 15.8549C12.709 15.4979 13.8519 15.5166 14.8912 15.9078C15.553 16.1569 16.1469 16.5473 16.6344 17.0462C17.0974 17.5203 16.892 18.2688 16.318 18.6001L15.7093 18.9516C14.7835 19.4862 14.9661 20.8733 15.9987 21.15L16.6777 21.3319Z" fill="#2DF8BB"/>
</svg>
