<svg width="168" height="48" viewBox="0 0 168 48" fill="none" xmlns="http://www.w3.org/2000/svg">
<path fill-rule="evenodd" clip-rule="evenodd" d="M28.4206 3.8861C26.8618 2.32805 24.3353 2.32856 22.7773 3.88725L9.77412 16.8957L9.76303 16.8925L9.72194 16.8969C9.73887 16.905 9.75548 16.913 9.77176 16.9212C7.49074 17.1601 6.52293 17.8456 6.51197 18.7259C6.51583 19.0533 6.65018 19.407 6.89695 19.7741L6.88509 19.786C8.95877 22.9136 19.2317 27.0394 26.4995 24.244C21.0526 26.9675 8.22476 27.5073 4.45702 22.2193C3.63879 23.1045 3.29644 24.2678 3.42537 25.3857C4.4207 30.8717 15.5486 32.3683 26.6765 24.4198L29.0846 26.8279C26.0881 29.9063 21.662 47.7879 28.2387 45.0577C28.3947 44.9518 28.5271 44.8571 28.7072 44.7208L29.0004 44.4441C28.9834 44.4482 28.9666 44.4522 28.95 44.4562L46.5639 27.8276C48.1993 26.2836 48.2363 23.6938 46.6456 22.1036L28.4206 3.8861ZM26.5025 9.30518L27.1045 6.89716L27.7064 9.30518L29.5125 9.90719L27.7064 10.5092L27.1045 12.9173L26.5025 10.5092L24.6964 9.90719L26.5025 9.30518ZM19.0511 17.1661L19.4524 15.5607L19.8537 17.1661L21.0578 17.5674L19.8537 17.9687L19.4524 19.5741L19.0511 17.9687L17.8471 17.5674L19.0511 17.1661ZM33.0291 30.7072L32.6278 32.3125L31.4238 32.7139L32.6278 33.1152L33.0291 34.7205L33.4304 33.1152L34.6345 32.7139L33.4304 32.3125L33.0291 30.7072Z" fill="#4845D2"/>
<path d="M57.9451 12.8092H54.2073V29.6752H64.5548V26.3704H57.9451V12.8092Z" fill="#4845D2"/>
<path d="M64.9106 23.9544C64.9106 27.5555 67.3266 29.9486 70.9733 29.9486C74.5973 29.9486 77.0131 27.5555 77.0131 23.9544C77.0131 20.3532 74.5973 17.9374 70.9733 17.9374C67.3266 17.9374 64.9106 20.3532 64.9106 23.9544ZM68.4434 23.9316C68.4434 22.2222 69.4462 21.0826 70.9733 21.0826C72.4775 21.0826 73.4804 22.2222 73.4804 23.9316C73.4804 25.6638 72.4775 26.8034 70.9733 26.8034C69.4462 26.8034 68.4434 25.6638 68.4434 23.9316Z" fill="#4845D2"/>
<path d="M77.5792 23.7722C77.5792 27.2137 79.8129 29.5384 82.9809 29.5384C84.508 29.5384 85.8299 28.9914 86.4908 28.1026V29.6752C86.4908 31.2478 85.5108 32.2963 83.7786 32.2963C82.2287 32.2963 81.1576 31.5669 81.0891 30.2678H77.5337C77.8527 33.3903 80.2686 35.4872 83.5734 35.4872C87.4709 35.4872 89.9324 32.9573 89.9324 28.9458V18.2793H86.7643L86.582 19.4416C85.9438 18.5072 84.5991 17.8918 83.0493 17.8918C79.8585 17.8918 77.5792 20.285 77.5792 23.7722ZM81.1347 23.681C81.1347 22.04 82.2288 20.9459 83.6191 20.9459C85.2373 20.9459 86.4225 22.0171 86.4225 23.681C86.4225 25.3448 85.2601 26.4844 83.6419 26.4844C82.2516 26.4844 81.1347 25.3448 81.1347 23.681Z" fill="#4845D2"/>
<path d="M90.9556 23.9544C90.9556 27.5555 93.3714 29.9486 97.0182 29.9486C100.642 29.9486 103.058 27.5555 103.058 23.9544C103.058 20.3532 100.642 17.9374 97.0182 17.9374C93.3714 17.9374 90.9556 20.3532 90.9556 23.9544ZM94.4883 23.9316C94.4883 22.2222 95.4911 21.0826 97.0182 21.0826C98.5225 21.0826 99.5252 22.2222 99.5252 23.9316C99.5252 25.6638 98.5225 26.8034 97.0182 26.8034C95.4911 26.8034 94.4883 25.6638 94.4883 23.9316Z" fill="#4845D2"/>
<path d="M106.084 16.5015C107.178 16.5015 108.067 15.6127 108.067 14.4959C108.067 13.379 107.178 12.5129 106.084 12.5129C104.968 12.5129 104.079 13.379 104.079 14.4959C104.079 15.6127 104.968 16.5015 106.084 16.5015ZM104.307 29.6752H107.84V18.2793H104.307V29.6752Z" fill="#4845D2"/>
<path d="M109.895 35.1452H113.359V28.5356C114.021 29.4017 115.524 29.9943 117.098 29.9943C120.493 29.9943 122.545 27.396 122.453 23.7949C122.362 20.1254 120.243 17.9146 117.075 17.9146C115.457 17.9146 113.93 18.6211 113.291 19.6696L113.109 18.2792H109.895V35.1452ZM113.428 23.9772C113.428 22.2678 114.567 21.1283 116.209 21.1283C117.872 21.1283 118.921 22.2906 118.921 23.9772C118.921 25.6638 117.872 26.8262 116.209 26.8262C114.567 26.8262 113.428 25.6866 113.428 23.9772Z" fill="#4845D2"/>
<path d="M122.827 26.074C122.917 28.376 124.741 29.9714 127.613 29.9714C130.371 29.9714 132.286 28.5127 132.286 26.1652C132.286 24.4787 131.282 23.3618 129.413 22.906L127.385 22.4045C126.655 22.2222 126.2 22.0399 126.2 21.4473C126.2 20.8548 126.678 20.4672 127.385 20.4672C128.183 20.4672 128.707 20.9915 128.684 21.7664H131.853C131.761 19.3961 129.961 17.9146 127.453 17.9146C124.923 17.9146 123.032 19.4188 123.032 21.698C123.032 23.2251 123.875 24.4787 126.131 25.0712L128.137 25.5954C128.73 25.7549 128.98 26.0284 128.98 26.416C128.98 26.9857 128.456 27.3504 127.567 27.3504C126.541 27.3504 125.995 26.8718 125.995 26.074H122.827Z" fill="#4845D2"/>
<path d="M137.659 29.9715C139.05 29.9715 140.44 29.3334 141.146 28.3988L141.375 29.6752H144.68V18.2793H141.169V24.2052C141.169 25.9145 140.667 26.8491 139.05 26.8491C137.796 26.8491 136.976 26.2792 136.976 24.1596V18.2793H133.465V25.4359C133.465 28.1482 134.97 29.9715 137.659 29.9715Z" fill="#4845D2"/>
<path d="M150.245 29.6752V23.4531C150.245 21.5385 151.27 20.9915 152.273 20.9915C153.39 20.9915 154.119 21.6753 154.119 23.0884V29.6752H157.583V23.4531C157.583 21.5157 158.586 20.9687 159.589 20.9687C160.706 20.9687 161.458 21.6524 161.458 23.0884V29.6752H164.877V22.2223C164.877 19.624 163.509 17.8918 160.569 17.8918C158.928 17.8918 157.583 18.6896 156.991 19.9203C156.307 18.6896 155.122 17.8918 153.23 17.8918C151.977 17.8918 150.814 18.4616 150.131 19.3733L149.994 18.2793H146.711V29.6752H150.245Z" fill="#4845D2"/>
<path fill-rule="evenodd" clip-rule="evenodd" d="M47.9194 5.47961C44.1538 5.47961 40.5827 7.15222 38.172 10.0451L29.5956 20.3368L34.548 12.9082L26.3275 16.4313C25.2835 16.8787 25.0215 18.2389 25.8246 19.042L28.47 21.6874L27.1194 23.3082L30.0909 26.2796L31.7116 24.9289L34.357 27.5743C35.1601 28.3774 36.5204 28.1155 36.9677 27.0716L40.4908 18.8511L33.0623 23.8034L43.354 15.227C46.2468 12.8163 47.9194 9.24524 47.9194 5.47961ZM39.748 13.6512C40.5685 14.4717 41.8989 14.4717 42.7195 13.6512C43.5399 12.8306 43.5399 11.5003 42.7195 10.6798C41.8989 9.85923 40.5685 9.85923 39.748 10.6798C38.9275 11.5003 38.9275 12.8306 39.748 13.6512Z" fill="#A3A2FF"/>
<path opacity="0.6" d="M4.36377 22.0809C6.33121 28.8216 18.2928 28.4702 26.4996 24.245C21.0042 26.991 8.00449 27.5155 4.36377 22.0809Z" fill="#424242"/>
<path opacity="0.6" d="M28.2398 45.0577C22.6981 47.3581 24.9688 35.0238 27.6133 29.2429C25.6856 34.3812 24.0401 45.7083 29.0015 44.444L28.7084 44.7207C28.5283 44.857 28.3958 44.9518 28.2398 45.0577Z" fill="#424242"/>
</svg>
