<svg width="275" height="48" viewBox="0 0 275 48" fill="none" xmlns="http://www.w3.org/2000/svg">
<g clip-path="url(#clip0_70_528)">
<path d="M42.0439 36.7902H56.2574L21.0476 1.58032H6.83398L42.0439 36.7902Z" fill="#7476ED"/>
<path d="M28.3477 1.58032L62.2893 35.522V1.58032H53.1041V12.2963L42.388 1.58032L28.3477 1.58032Z" fill="#E56F8C"/>
<path d="M0.882812 2.75903V36.7901H10.068V26.074L20.784 36.7901H34.9139L0.882812 2.75903Z" fill="#64C2DB"/>
<path d="M84.4584 31.4959H92.6883V36.3456H78.1758V10.5537H84.4584V31.4959Z" fill="#3A3B7B"/>
<path d="M103.913 36.6396C101.905 36.6396 100.092 36.211 98.4757 35.3536C96.8835 34.4964 95.6222 33.2716 94.6913 31.6796C93.7852 30.0875 93.332 28.226 93.332 26.0949C93.332 23.9886 93.7973 22.1392 94.7281 20.5472C95.659 18.9305 96.9326 17.6936 98.5491 16.8363C100.166 15.9791 101.978 15.5504 103.987 15.5504C105.995 15.5504 107.808 15.9791 109.424 16.8363C111.041 17.6936 112.315 18.9305 113.245 20.5472C114.176 22.1392 114.642 23.9886 114.642 26.0949C114.642 28.2014 114.164 30.0629 113.209 31.6796C112.278 33.2716 110.992 34.4964 109.351 35.3536C107.734 36.211 105.922 36.6396 103.913 36.6396ZM103.913 31.202C105.114 31.202 106.13 30.7611 106.963 29.8793C107.82 28.9975 108.249 27.7362 108.249 26.0949C108.249 24.4539 107.832 23.1925 107 22.3108C106.191 21.429 105.187 20.9881 103.987 20.9881C102.762 20.9881 101.746 21.429 100.937 22.3108C100.129 23.168 99.7249 24.4295 99.7249 26.0949C99.7249 27.7362 100.117 28.9975 100.901 29.8793C101.709 30.7611 102.713 31.202 103.913 31.202Z" fill="#3A3B7B"/>
<path d="M124.661 15.5504C126.106 15.5504 127.368 15.8443 128.445 16.4322C129.548 17.02 130.393 17.7916 130.98 18.7468V15.8443H137.263V36.309C137.263 38.195 136.883 39.8972 136.124 41.4158C135.389 42.9589 134.25 44.1836 132.707 45.09C131.189 45.9963 129.29 46.4494 127.012 46.4494C123.975 46.4494 121.514 45.7268 119.628 44.2816C117.742 42.861 116.664 40.926 116.394 38.4766H122.604C122.8 39.2604 123.265 39.8727 124 40.3136C124.735 40.779 125.641 41.0117 126.719 41.0117C128.017 41.0117 129.045 40.6322 129.805 39.8727C130.588 39.138 130.98 37.95 130.98 36.309V33.4064C130.368 34.3616 129.523 35.1454 128.445 35.7579C127.368 36.3456 126.106 36.6396 124.661 36.6396C122.971 36.6396 121.44 36.211 120.068 35.3536C118.697 34.4718 117.607 33.235 116.799 31.6428C116.015 30.0263 115.623 28.1648 115.623 26.0583C115.623 23.9518 116.015 22.1026 116.799 20.5104C117.607 18.9184 118.697 17.6936 120.068 16.8363C121.44 15.9791 122.971 15.5504 124.661 15.5504ZM130.98 26.0949C130.98 24.5275 130.54 23.2905 129.658 22.3842C128.801 21.4779 127.747 21.0247 126.498 21.0247C125.249 21.0247 124.184 21.4779 123.302 22.3842C122.444 23.266 122.016 24.4907 122.016 26.0583C122.016 27.626 122.444 28.875 123.302 29.8059C124.184 30.7122 125.249 31.1652 126.498 31.1652C127.747 31.1652 128.801 30.7122 129.658 29.8059C130.54 28.8996 130.98 27.6626 130.98 26.0949Z" fill="#3A3B7B"/>
<path d="M150.038 36.6396C148.03 36.6396 146.217 36.211 144.601 35.3536C143.009 34.4964 141.747 33.2716 140.817 31.6796C139.91 30.0875 139.457 28.226 139.457 26.0949C139.457 23.9886 139.922 22.1392 140.853 20.5472C141.784 18.9305 143.058 17.6936 144.674 16.8363C146.291 15.9791 148.103 15.5504 150.112 15.5504C152.12 15.5504 153.933 15.9791 155.549 16.8363C157.166 17.6936 158.44 18.9305 159.37 20.5472C160.301 22.1392 160.767 23.9886 160.767 26.0949C160.767 28.2014 160.289 30.0629 159.334 31.6796C158.403 33.2716 157.117 34.4964 155.476 35.3536C153.859 36.211 152.047 36.6396 150.038 36.6396ZM150.038 31.202C151.239 31.202 152.255 30.7611 153.088 29.8793C153.945 28.9975 154.374 27.7362 154.374 26.0949C154.374 24.4539 153.957 23.1925 153.125 22.3108C152.316 21.429 151.312 20.9881 150.112 20.9881C148.887 20.9881 147.871 21.429 147.062 22.3108C146.254 23.168 145.85 24.4295 145.85 26.0949C145.85 27.7362 146.242 28.9975 147.026 29.8793C147.834 30.7611 148.838 31.202 150.038 31.202Z" fill="#3A3B7B"/>
<path d="M166.158 13.7133C165.055 13.7133 164.149 13.3949 163.439 12.758C162.753 12.0967 162.41 11.2884 162.41 10.3331C162.41 9.3534 162.753 8.5451 163.439 7.90826C164.149 7.24693 165.055 6.91626 166.158 6.91626C167.235 6.91626 168.117 7.24693 168.803 7.90826C169.513 8.5451 169.868 9.3534 169.868 10.3331C169.868 11.2884 169.513 12.0967 168.803 12.758C168.117 13.3949 167.235 13.7133 166.158 13.7133ZM169.281 15.8443V36.3455H162.998V15.8443H169.281Z" fill="#3A3B7B"/>
<path d="M179.013 18.7468C179.626 17.7916 180.471 17.02 181.548 16.4322C182.625 15.8443 183.887 15.5504 185.333 15.5504C187.023 15.5504 188.554 15.9791 189.925 16.8363C191.297 17.6936 192.375 18.9184 193.159 20.5104C193.967 22.1026 194.371 23.9518 194.371 26.0583C194.371 28.1648 193.967 30.0263 193.159 31.6428C192.375 33.235 191.297 34.4718 189.925 35.3536C188.554 36.211 187.023 36.6396 185.333 36.6396C183.912 36.6396 182.65 36.3456 181.548 35.7579C180.471 35.17 179.626 34.4107 179.013 33.4798V46.1188H172.73V15.8443H179.013V18.7468ZM187.978 26.0583C187.978 24.4907 187.537 23.266 186.655 22.3842C185.799 21.4779 184.732 21.0247 183.459 21.0247C182.209 21.0247 181.144 21.4779 180.263 22.3842C179.406 23.2905 178.977 24.5275 178.977 26.0949C178.977 27.6626 179.406 28.8996 180.263 29.8059C181.144 30.7122 182.209 31.1652 183.459 31.1652C184.709 31.1652 185.774 30.7122 186.655 29.8059C187.537 28.875 187.978 27.626 187.978 26.0583Z" fill="#3A3B7B"/>
<path d="M204.905 36.6396C203.116 36.6396 201.525 36.3335 200.13 35.7211C198.732 35.1088 197.63 34.2759 196.823 33.2228C196.014 32.1451 195.561 30.9447 195.463 29.622H201.673C201.746 30.3324 202.076 30.9081 202.665 31.349C203.252 31.7899 203.975 32.0103 204.832 32.0103C205.616 32.0103 206.215 31.8633 206.633 31.5694C207.074 31.251 207.294 30.8468 207.294 30.357C207.294 29.7691 206.987 29.3404 206.375 29.0709C205.762 28.7771 204.77 28.4587 203.399 28.1157C201.929 27.7728 200.704 27.4176 199.724 27.0503C198.745 26.6583 197.9 26.0583 197.189 25.25C196.48 24.4172 196.124 23.3028 196.124 21.9065C196.124 20.7308 196.443 19.6654 197.079 18.71C197.74 17.7304 198.697 16.9588 199.945 16.3954C201.22 15.8321 202.725 15.5504 204.464 15.5504C207.036 15.5504 209.058 16.1873 210.526 17.4609C212.021 18.7346 212.878 20.4247 213.099 22.5312H207.294C207.195 21.8208 206.876 21.2574 206.338 20.8411C205.824 20.4247 205.138 20.2165 204.281 20.2165C203.547 20.2165 202.983 20.3634 202.59 20.6574C202.199 20.9268 202.004 21.3065 202.004 21.7963C202.004 22.3842 202.309 22.8251 202.921 23.1189C203.557 23.413 204.539 23.7068 205.861 24.0007C207.38 24.3927 208.617 24.7845 209.572 25.1765C210.526 25.5438 211.36 26.1563 212.069 27.0135C212.805 27.8464 213.184 28.973 213.209 30.3936C213.209 31.5939 212.866 32.6716 212.18 33.6268C211.518 34.5577 210.551 35.2924 209.278 35.8313C208.028 36.3701 206.571 36.6396 204.905 36.6396Z" fill="#3A3B7B"/>
<path d="M236.192 15.8442V36.3455H229.91V33.5533C229.273 34.4596 228.404 35.1944 227.302 35.7578C226.224 36.2966 225.024 36.5659 223.702 36.5659C222.134 36.5659 220.749 36.2232 219.549 35.5373C218.349 34.8269 217.419 33.8104 216.758 32.4877C216.096 31.1651 215.766 29.6099 215.766 27.8218V15.8442H222.011V26.9766C222.011 28.3483 222.367 29.4138 223.076 30.1731C223.787 30.9325 224.742 31.3121 225.942 31.3121C227.167 31.3121 228.134 30.9325 228.845 30.1731C229.556 29.4138 229.91 28.3483 229.91 26.9766V15.8442H236.192Z" fill="#3A3B7B"/>
<path d="M265.764 15.6239C268.311 15.6239 270.333 16.3955 271.826 17.9385C273.346 19.4816 274.105 21.6249 274.105 24.3682V36.3456H267.858V25.2132C267.858 23.8905 267.504 22.8741 266.793 22.1637C266.107 21.429 265.152 21.0615 263.927 21.0615C262.702 21.0615 261.735 21.429 261.024 22.1637C260.34 22.8741 259.997 23.8905 259.997 25.2132V36.3456H253.749V25.2132C253.749 23.8905 253.396 22.8741 252.685 22.1637C251.998 21.429 251.044 21.0615 249.819 21.0615C248.594 21.0615 247.627 21.429 246.916 22.1637C246.231 22.8741 245.888 23.8905 245.888 25.2132V36.3456H239.605V15.8443H245.888V18.4162C246.525 17.5589 247.357 16.8853 248.386 16.3955C249.415 15.8811 250.578 15.6239 251.876 15.6239C253.419 15.6239 254.791 15.9546 255.991 16.6159C257.216 17.2772 258.171 18.2203 258.857 19.445C259.568 18.3182 260.535 17.3997 261.76 16.6894C262.985 15.9791 264.32 15.6239 265.764 15.6239Z" fill="#3A3B7B"/>
</g>
<defs>
<clipPath id="clip0_70_528">
<rect width="273.778" height="48" fill="white" transform="translate(0.882812)"/>
</clipPath>
</defs>
</svg>
