<svg width="49" height="48" viewBox="0 0 49 48" fill="none" xmlns="http://www.w3.org/2000/svg">
<g clip-path="url(#clip0_70_541)">
<path d="M24.6592 0C37.9144 0 48.6592 10.7448 48.6592 24V40.8C48.6592 42.7096 47.9006 44.5409 46.5504 45.8912C45.2001 47.2414 43.3688 48 41.4592 48H25.8592V37.4712C25.8592 35.0688 26.0056 32.58 27.2656 30.5352C28.1677 29.0698 29.3744 27.8156 30.8038 26.8575C32.2333 25.8995 33.8521 25.2602 35.5504 24.9828L36.01 24.9084C36.1995 24.8436 36.3639 24.7212 36.4804 24.5584C36.5969 24.3955 36.6595 24.2002 36.6595 24C36.6595 23.7998 36.5969 23.6045 36.4804 23.4416C36.3639 23.2788 36.1995 23.1564 36.01 23.0916L35.5504 23.0172C33.069 22.6119 30.7776 21.4373 28.9997 19.6595C27.2219 17.8816 26.0473 15.5902 25.642 13.1088L25.5676 12.6492C25.5028 12.4597 25.3804 12.2952 25.2175 12.1788C25.0547 12.0623 24.8594 11.9997 24.6592 11.9997C24.4589 11.9997 24.2637 12.0623 24.1008 12.1788C23.9379 12.2952 23.8156 12.4597 23.7508 12.6492L23.6764 13.1088C23.3991 14.8071 22.7598 16.4259 21.8017 17.8554C20.8437 19.2849 19.5894 20.4916 18.124 21.3936C16.0792 22.6536 13.5904 22.8 11.188 22.8H0.687988C1.31559 10.1028 11.8072 0 24.6592 0Z" fill="#F06225"/>
<path d="M0.660645 25.2H11.1894C13.5918 25.2 16.0806 25.3464 18.1254 26.6064C19.7238 27.5913 21.0693 28.9368 22.0542 30.5352C23.3142 32.58 23.4606 35.0688 23.4606 37.4712V48H7.86064C5.95109 48 4.11974 47.2414 2.76948 45.8912C1.41921 44.5409 0.660645 42.7096 0.660645 40.8L0.660645 25.2ZM48.6606 2.4C48.6606 3.03652 48.4078 3.64697 47.9577 4.09706C47.5076 4.54714 46.8972 4.8 46.2606 4.8C45.6241 4.8 45.0137 4.54714 44.5636 4.09706C44.1135 3.64697 43.8606 3.03652 43.8606 2.4C43.8606 1.76348 44.1135 1.15303 44.5636 0.702944C45.0137 0.252856 45.6241 0 46.2606 0C46.8972 0 47.5076 0.252856 47.9577 0.702944C48.4078 1.15303 48.6606 1.76348 48.6606 2.4Z" fill="#F06225"/>
</g>
<defs>
<clipPath id="clip0_70_541">
<rect width="48" height="48" fill="white" transform="translate(0.660645)"/>
</clipPath>
</defs>
</svg>
