<svg width="150" height="48" viewBox="0 0 150 48" fill="none" xmlns="http://www.w3.org/2000/svg">
<g clip-path="url(#clip0_70_437)">
<path d="M106.633 44.6701C107.544 44.6701 108.082 43.9801 108.082 42.9013C108.082 41.7829 107.504 41.1325 106.652 41.1325C106.165 41.1325 105.826 41.3485 105.573 41.6917H105.561V39.9241H105.033V44.5717H105.561V44.1301H105.573C105.847 44.5069 106.178 44.6701 106.633 44.6701ZM106.594 44.2273C105.879 44.2273 105.528 43.6621 105.528 42.9073C105.528 42.1801 105.866 41.5813 106.6 41.5813C107.238 41.5813 107.544 42.1537 107.544 42.9073C107.544 43.6681 107.238 44.2273 106.594 44.2273ZM108.974 45.6841C109.383 45.6841 109.644 45.5401 109.916 44.8441L111.354 41.2105H110.794L110.026 43.3045C109.923 43.5841 109.806 43.9609 109.806 43.9609H109.794C109.794 43.9609 109.669 43.5841 109.566 43.3045L108.772 41.2105H108.2L109.513 44.4745L109.383 44.8057C109.254 45.1309 109.104 45.2161 108.883 45.2161C108.759 45.2223 108.637 45.1976 108.525 45.1441H108.499V45.6121C108.643 45.6709 108.772 45.6841 108.974 45.6841ZM112.701 44.5717H113.586V39.9241H112.701V44.5717ZM115.748 44.6701C116.781 44.6701 117.49 43.9021 117.49 42.9073C117.49 41.9125 116.782 41.1457 115.748 41.1457C114.715 41.1457 114.006 41.9137 114.006 42.9073C114.006 43.9033 114.714 44.6701 115.748 44.6701ZM115.748 43.9933C115.202 43.9933 114.903 43.5577 114.903 42.9073C114.903 42.2581 115.202 41.8153 115.748 41.8153C116.288 41.8153 116.593 42.2581 116.593 42.9073C116.593 43.5577 116.288 43.9933 115.748 43.9933ZM119.371 45.7093C119.865 45.7093 120.294 45.5929 120.573 45.3325C120.82 45.1045 120.97 44.7865 120.97 44.3185V41.2369H120.118V41.5885H120.105C119.904 41.3089 119.599 41.1457 119.181 41.1457C118.338 41.1457 117.739 41.7829 117.739 42.7777C117.739 43.7857 118.467 44.3701 119.209 44.3701C119.631 44.3701 119.884 44.2021 120.079 43.9801H120.099V44.3449C120.099 44.7997 119.859 45.0409 119.358 45.0409C118.948 45.0409 118.76 44.8777 118.688 44.6689H117.811C117.901 45.3193 118.46 45.7093 119.371 45.7093ZM119.359 43.6621C118.903 43.6621 118.603 43.3309 118.603 42.7645C118.603 42.2053 118.903 41.8549 119.352 41.8549C119.884 41.8549 120.145 42.2701 120.145 42.7585C120.145 43.2529 119.917 43.6621 119.358 43.6621H119.359ZM123.12 44.6701C124.153 44.6701 124.862 43.9021 124.862 42.9073C124.862 41.9125 124.153 41.1457 123.12 41.1457C122.085 41.1457 121.377 41.9137 121.377 42.9073C121.377 43.9033 122.085 44.6701 123.12 44.6701ZM123.12 43.9933C122.574 43.9933 122.274 43.5577 122.274 42.9073C122.274 42.2581 122.574 41.8153 123.12 41.8153C123.658 41.8153 123.964 42.2581 123.964 42.9073C123.964 43.5577 123.658 43.9933 123.12 43.9933ZM125.272 44.5717H126.157V41.2369H125.272V44.5717ZM125.272 40.7173H126.157V39.9241H125.272V40.7173ZM126.727 45.6637H127.611V44.1961H127.623C127.813 44.4829 128.118 44.6713 128.586 44.6713C129.444 44.6713 130.029 43.9873 130.029 42.9085C130.029 41.8681 129.464 41.1469 128.58 41.1469C128.387 41.1437 128.196 41.1885 128.025 41.277C127.854 41.3656 127.707 41.4953 127.598 41.6545H127.579V41.2381H126.727V45.6661V45.6637ZM128.397 43.9357C127.87 43.9357 127.591 43.5385 127.591 42.9337C127.591 42.3361 127.813 41.8609 128.365 41.8609C128.911 41.8609 129.132 42.3025 129.132 42.9337C129.132 43.5649 128.846 43.9357 128.397 43.9357ZM131.793 44.6701C132.625 44.6701 133.197 44.2669 133.197 43.5973C133.197 42.8173 132.579 42.6613 132.02 42.5437C131.546 42.4465 131.104 42.4201 131.104 42.1345C131.104 41.8945 131.331 41.7625 131.676 41.7625C132.054 41.7625 132.28 41.8945 132.32 42.2509H133.119C133.054 41.5813 132.567 41.1469 131.689 41.1469C130.928 41.1469 130.33 41.4901 130.33 42.2125C130.33 42.9397 130.915 43.1029 131.514 43.2205C131.968 43.3105 132.391 43.3429 132.391 43.6621C132.391 43.8961 132.17 44.0461 131.78 44.0461C131.384 44.0461 131.11 43.8769 131.052 43.4929H130.233C130.285 44.2009 130.825 44.6701 131.793 44.6701ZM136.555 44.5717V41.2369H135.67V43.1617C135.67 43.6033 135.416 43.9153 135.001 43.9153C134.624 43.9153 134.448 43.7005 134.448 43.3105V41.2369H133.57V43.4605C133.57 44.1889 133.987 44.6629 134.727 44.6629C135.195 44.6629 135.456 44.4877 135.684 44.1829H135.703V44.5717H136.555ZM137.126 44.5717H138.01V42.6361C138.01 42.1933 138.25 41.9077 138.608 41.9077C138.933 41.9077 139.122 42.1033 139.122 42.4801V44.5729H140.006V42.6361C140.006 42.1933 140.234 41.9077 140.605 41.9077C140.93 41.9077 141.118 42.1033 141.118 42.4801V44.5729H142.003V42.3301C142.003 41.6017 141.606 41.1469 140.904 41.1469C140.481 41.1469 140.13 41.3677 139.903 41.7325H139.89C139.81 41.5553 139.679 41.4055 139.515 41.3015C139.351 41.1974 139.16 41.1437 138.966 41.1469C138.771 41.142 138.578 41.1895 138.408 41.2845C138.237 41.3795 138.096 41.5184 137.997 41.6869H137.978V41.2381H137.126V44.5741V44.5717Z" fill="#E5708C"/>
<path d="M142.177 2.5788C142.177 1.1592 143.328 0.00719942 144.747 0.00719942H146.462C147.144 0.00719942 147.798 0.278135 148.28 0.760404C148.763 1.24267 149.034 1.89677 149.034 2.5788C149.034 3.26083 148.763 3.91493 148.28 4.3972C147.798 4.87946 147.144 5.1504 146.462 5.1504H144.747C144.409 5.1504 144.075 5.08387 143.763 4.95462C143.451 4.82538 143.168 4.63593 142.929 4.39712C142.69 4.15831 142.501 3.87481 142.372 3.56282C142.243 3.25082 142.177 2.91645 142.177 2.5788ZM70.1875 17.148C70.1875 26.6136 62.5147 34.2876 53.0479 34.2876C43.5823 34.2876 35.9083 26.6136 35.9083 17.148C35.9083 7.68 43.5823 0.00839942 53.0479 0.00839942C62.5147 0.00839942 70.1875 7.68 70.1875 17.148ZM32.5651 17.0628C33.5131 17.0628 34.2883 17.8308 34.1935 18.774C33.8695 22.0018 32.6362 25.0714 30.6368 27.626C28.6374 30.1806 25.9541 32.1153 22.8988 33.2054C19.8434 34.2954 16.5414 34.4959 13.3765 33.7837C10.2117 33.0715 7.31393 31.4757 5.02008 29.1818C2.72622 26.888 1.13044 23.9902 0.418206 20.8254C-0.29403 17.6605 -0.0934786 14.3585 0.996553 11.3032C2.08659 8.24777 4.02134 5.56447 6.57595 3.56509C9.13056 1.56571 12.2001 0.332369 15.4279 0.00839942C16.3699 -0.0876006 17.1391 0.69 17.1391 1.6356V15.348C17.1391 16.296 17.9071 17.0628 18.8539 17.0628H32.5651ZM94.1839 37.716C95.5477 37.716 96.8555 38.2577 97.8199 39.2221C98.7842 40.1864 99.3259 41.4943 99.3259 42.858C99.3259 44.2217 98.7842 45.5296 97.8199 46.4939C96.8555 47.4583 95.5477 48 94.1839 48H85.6147C84.251 48 82.9431 47.4583 81.9788 46.4939C81.0145 45.5296 80.4727 44.2217 80.4727 42.858C80.4727 41.4943 81.0145 40.1864 81.9788 39.2221C82.9431 38.2577 84.251 37.716 85.6147 37.716H94.1839ZM89.0419 34.2876C98.5087 34.2876 106.183 26.6136 106.183 17.148C106.187 14.2403 105.448 11.3799 104.036 8.838L106.868 6.006C107.194 5.67964 107.453 5.29222 107.629 4.86587C107.806 4.43952 107.897 3.98258 107.896 3.52115C107.896 3.05972 107.805 2.60283 107.629 2.17656C107.452 1.75029 107.193 1.363 106.867 1.0368C106.54 0.710596 106.153 0.451868 105.727 0.275388C105.3 0.0989085 104.843 0.00813289 104.382 0.00824433C103.92 0.00835576 103.464 0.0993521 103.037 0.276038C102.611 0.452723 102.224 0.711638 101.898 1.038L99.4255 3.51C96.4432 1.23229 92.7933 0.00116123 89.0407 0.00719942C79.5763 0.00839942 71.9035 7.68 71.9035 17.148C71.9035 26.6136 79.5763 34.2876 89.0419 34.2876ZM142.177 17.148C142.177 26.6136 134.503 34.2876 125.036 34.2876C115.57 34.2876 107.896 26.6136 107.896 17.148C107.896 7.68 115.57 0.00839942 125.036 0.00839942C134.503 0.00839942 142.177 7.6812 142.177 17.148Z" fill="url(#paint0_linear_70_437)"/>
</g>
<defs>
<linearGradient id="paint0_linear_70_437" x1="-0.00048196" y1="19.2" x2="142.8" y2="19.2" gradientUnits="userSpaceOnUse">
<stop stop-color="#64C2DB"/>
<stop offset="0.307" stop-color="#7476ED"/>
<stop offset="0.604" stop-color="#C994DF"/>
<stop offset="1" stop-color="#E56F8C"/>
</linearGradient>
<clipPath id="clip0_70_437">
<rect width="150" height="48" fill="white"/>
</clipPath>
</defs>
</svg>
