<svg width="257" height="48" viewBox="0 0 257 48" fill="none" xmlns="http://www.w3.org/2000/svg">
<g clip-path="url(#clip0_70_480)">
<path d="M101.537 9.4259H96.1636V33.6708H111.038V28.9201H101.537V9.4259Z" fill="#4845D2"/>
<path d="M111.55 25.4472C111.55 30.6239 115.023 34.064 120.265 34.064C125.475 34.064 128.948 30.6239 128.948 25.4472C128.948 20.2706 125.475 16.7976 120.265 16.7976C115.023 16.7976 111.55 20.2706 111.55 25.4472ZM116.629 25.4144C116.629 22.9572 118.07 21.3191 120.265 21.3191C122.428 21.3191 123.869 22.9572 123.869 25.4144C123.869 27.9045 122.428 29.5427 120.265 29.5427C118.07 29.5427 116.629 27.9045 116.629 25.4144Z" fill="#4845D2"/>
<path d="M129.76 25.1851C129.76 30.1323 132.971 33.4741 137.525 33.4741C139.721 33.4741 141.621 32.6878 142.571 31.4101V33.6708C142.571 35.9314 141.162 37.4385 138.672 37.4385C136.444 37.4385 134.904 36.3901 134.806 34.5226H129.695C130.154 39.0112 133.626 42.0253 138.377 42.0253C143.98 42.0253 147.518 38.3887 147.518 32.6223V17.2891H142.964L142.702 18.96C141.785 17.6167 139.851 16.7322 137.624 16.7322C133.037 16.7322 129.76 20.1723 129.76 25.1851ZM134.871 25.054C134.871 22.695 136.444 21.1224 138.443 21.1224C140.769 21.1224 142.473 22.6623 142.473 25.054C142.473 27.4458 140.802 29.0839 138.475 29.0839C136.477 29.0839 134.871 27.4458 134.871 25.054Z" fill="#4845D2"/>
<path d="M148.988 25.4472C148.988 30.6239 152.461 34.064 157.703 34.064C162.913 34.064 166.385 30.6239 166.385 25.4472C166.385 20.2706 162.913 16.7976 157.703 16.7976C152.461 16.7976 148.988 20.2706 148.988 25.4472ZM154.066 25.4144C154.066 22.9572 155.507 21.3191 157.703 21.3191C159.865 21.3191 161.306 22.9572 161.306 25.4144C161.306 27.9045 159.865 29.5427 157.703 29.5427C155.507 29.5427 154.066 27.9045 154.066 25.4144Z" fill="#4845D2"/>
<path d="M170.736 14.7336C172.308 14.7336 173.586 13.4558 173.586 11.8504C173.586 10.245 172.308 9 170.736 9C169.131 9 167.853 10.245 167.853 11.8504C167.853 13.4558 169.131 14.7336 170.736 14.7336ZM168.18 33.6708H173.259V17.2892H168.18V33.6708Z" fill="#4845D2"/>
<path d="M176.214 41.5339H181.194V32.0326C182.144 33.2776 184.307 34.1295 186.567 34.1295C191.448 34.1295 194.397 30.3945 194.267 25.2178C194.135 19.9429 191.088 16.7649 186.534 16.7649C184.208 16.7649 182.013 17.7805 181.095 19.2877L180.833 17.2891H176.214V41.5339ZM181.292 25.4799C181.292 23.0227 182.93 21.3846 185.289 21.3846C187.68 21.3846 189.188 23.0554 189.188 25.4799C189.188 27.9045 187.68 29.5753 185.289 29.5753C182.93 29.5753 181.292 27.9372 181.292 25.4799Z" fill="#4845D2"/>
<path d="M194.806 28.4941C194.937 31.8033 197.559 34.0966 201.687 34.0966C205.651 34.0966 208.404 31.9998 208.404 28.6252C208.404 26.2008 206.962 24.5953 204.274 23.94L201.36 23.2192C200.311 22.9572 199.656 22.695 199.656 21.8431C199.656 20.9913 200.343 20.4343 201.36 20.4343C202.506 20.4343 203.259 21.1879 203.227 22.3018H207.781C207.649 18.8944 205.062 16.7649 201.457 16.7649C197.821 16.7649 195.102 18.9273 195.102 22.2036C195.102 24.3987 196.314 26.2008 199.557 27.0526L202.44 27.8061C203.292 28.0354 203.652 28.4286 203.652 28.9855C203.652 29.8047 202.899 30.3289 201.621 30.3289C200.146 30.3289 199.36 29.6409 199.36 28.4941H194.806Z" fill="#4845D2"/>
<path d="M216.126 34.0967C218.125 34.0967 220.123 33.1793 221.139 31.836L221.467 33.6708H226.218V17.2892H221.172V25.8077C221.172 28.2648 220.452 29.6081 218.125 29.6081C216.322 29.6081 215.143 28.7891 215.143 25.7421V17.2892H210.097V27.5768C210.097 31.4757 212.26 34.0967 216.126 34.0967Z" fill="#4845D2"/>
<path d="M234.219 33.6708V24.7264C234.219 21.9742 235.694 21.1879 237.135 21.1879C238.74 21.1879 239.789 22.1709 239.789 24.2022V33.6708H244.769V24.7264C244.769 21.9415 246.21 21.1552 247.652 21.1552C249.257 21.1552 250.338 22.138 250.338 24.2022V33.6708H255.254V22.9572C255.254 19.2222 253.287 16.7322 249.06 16.7322C246.702 16.7322 244.769 17.8788 243.917 19.648C242.934 17.8788 241.23 16.7322 238.511 16.7322C236.709 16.7322 235.038 17.5512 234.056 18.8617L233.859 17.2891H229.14V33.6708H234.219Z" fill="#4845D2"/>
<path d="M0.163574 24C0.163574 10.7452 10.9087 0 24.1636 0H55.6636C68.9185 0 79.6636 10.7452 79.6636 24V48H24.1636C10.9087 48 0.163574 37.2549 0.163574 24Z" fill="#4845D2"/>
<path d="M55.6636 9H24.1636C15.8793 9 9.16357 15.7157 9.16357 24C9.16357 32.2843 15.8793 39 24.1636 39H55.6636C63.9478 39 70.6636 32.2843 70.6636 24C70.6636 15.7157 63.9478 9 55.6636 9Z" fill="#A5B4FC"/>
<path d="M24.1636 31.5C28.3057 31.5 31.6636 28.1421 31.6636 24C31.6636 19.8579 28.3057 16.5 24.1636 16.5C20.0214 16.5 16.6636 19.8579 16.6636 24C16.6636 28.1421 20.0214 31.5 24.1636 31.5Z" fill="black"/>
<path d="M21.1636 22.5C21.992 22.5 22.6636 21.8284 22.6636 21C22.6636 20.1716 21.992 19.5 21.1636 19.5C20.3351 19.5 19.6636 20.1716 19.6636 21C19.6636 21.8284 20.3351 22.5 21.1636 22.5Z" fill="white"/>
<path d="M57.1636 31.5C61.3057 31.5 64.6636 28.1421 64.6636 24C64.6636 19.8579 61.3057 16.5 57.1636 16.5C53.0214 16.5 49.6636 19.8579 49.6636 24C49.6636 28.1421 53.0214 31.5 57.1636 31.5Z" fill="black"/>
<path d="M54.1636 22.5C54.992 22.5 55.6636 21.8284 55.6636 21C55.6636 20.1716 54.992 19.5 54.1636 19.5C53.3351 19.5 52.6636 20.1716 52.6636 21C52.6636 21.8284 53.3351 22.5 54.1636 22.5Z" fill="white"/>
</g>
<defs>
<clipPath id="clip0_70_480">
<rect width="256.5" height="48" fill="white" transform="translate(0.163574)"/>
</clipPath>
</defs>
</svg>
