<svg width="48" height="48" viewBox="0 0 48 48" fill="none" xmlns="http://www.w3.org/2000/svg">
<g clip-path="url(#clip0_46_890)">
<path d="M23.8925 4.53809C23.8925 -8.4301 31.9959 9.95273 28.7602 15.5678C32.0016 9.95273 51.9763 7.77943 40.7434 14.2649C51.9763 7.77943 40.1079 24.0005 33.625 24.0005C40.1079 24.0005 51.9763 40.2127 40.7434 33.7358C51.9763 40.2214 32.0016 38.0482 28.7602 32.4331C32.0016 38.0482 23.8925 56.431 23.8925 43.4628C23.8925 56.431 15.7863 38.0482 19.0248 32.4331C15.7834 38.0482 -4.19141 40.2214 7.04157 33.7358C-4.19141 40.2214 7.67723 24.0005 14.1628 24.0005C7.67723 24.0005 -4.19141 7.78802 7.04157 14.2649C-4.19141 7.77943 15.7834 9.95273 19.0248 15.5678C15.7863 9.94699 23.8925 -8.4301 23.8925 4.53809Z" fill="url(#paint0_linear_46_890)"/>
</g>
<defs>
<linearGradient id="paint0_linear_46_890" x1="42" y1="43.5" x2="8.5" y2="10.5" gradientUnits="userSpaceOnUse">
<stop stop-color="#2913B4"/>
<stop offset="0.949014" stop-color="#AB9FF5"/>
</linearGradient>
<clipPath id="clip0_46_890">
<rect width="48" height="48" fill="white"/>
</clipPath>
</defs>
</svg>
