<svg width="48" height="48" viewBox="0 0 48 48" fill="none" xmlns="http://www.w3.org/2000/svg">
<g clip-path="url(#clip0_46_888)">
<path fill-rule="evenodd" clip-rule="evenodd" d="M23.9986 44.0906C25.6274 46.0454 27.2561 48 30.5136 48C38.0122 48 40.1782 38.0266 40.181 30.5174C40.181 27.2602 42.1356 25.6315 44.0904 24.0029C46.0452 22.3741 48 20.7455 48 17.4882C48 9.98734 38.0122 7.81858 30.5162 7.81858C27.259 7.81858 25.6301 5.86394 24.0014 3.90929C22.3727 1.95464 20.7439 0 17.4864 0C9.98515 0 7.81627 9.98734 7.81627 17.4827C7.81627 20.74 5.86222 22.3686 3.90814 23.9972C1.95407 25.626 0 27.2546 0 30.5119C0 38.0126 9.98515 40.1815 17.4837 40.1815C20.7412 40.1815 22.3699 42.1361 23.9986 44.0906ZM24 32.88C28.9044 32.88 32.88 28.9044 32.88 24C32.88 19.0957 28.9044 15.12 24 15.12C19.0957 15.12 15.12 19.0957 15.12 24C15.12 28.9044 19.0957 32.88 24 32.88Z" fill="url(#paint0_linear_46_888)"/>
</g>
<defs>
<linearGradient id="paint0_linear_46_888" x1="4" y1="7" x2="48" y2="45" gradientUnits="userSpaceOnUse">
<stop stop-color="#FC8EBA"/>
<stop offset="1" stop-color="#95043E"/>
</linearGradient>
<clipPath id="clip0_46_888">
<rect width="48" height="48" fill="white"/>
</clipPath>
</defs>
</svg>
