<svg width="48" height="48" viewBox="0 0 48 48" fill="none" xmlns="http://www.w3.org/2000/svg">
<g clip-path="url(#clip0_46_886)">
<path fill-rule="evenodd" clip-rule="evenodd" d="M24 0C17.3726 0 12 5.37259 12 12C5.37259 12 5.24537e-07 17.3726 0 24C0 30.6274 5.37259 36 12 36C12 42.6274 17.3726 48 24 48C30.6274 48 36 42.6274 36 36C42.6274 36 48 30.6274 48 24C48 17.3726 42.6274 12 36 12C36 5.37259 30.6274 0 24 0ZM33.6734 14.3265C33.6734 8.98402 29.3424 4.65307 24 4.65307C18.6575 4.65307 14.3265 8.98402 14.3265 14.3265C8.98402 14.3265 4.65307 18.6575 4.65307 24C4.65307 29.3424 8.98402 33.6734 14.3265 33.6734C14.3265 39.0161 18.6575 43.3469 24 43.3469C29.3424 43.3469 33.6734 39.0161 33.6734 33.6734C39.0161 33.6734 43.3469 29.3424 43.3469 24C43.3469 18.6575 39.0161 14.3265 33.6734 14.3265ZM16.6531 16.6531C16.6531 12.5955 19.9424 9.30612 24 9.30612C28.0577 9.30612 31.3469 12.5955 31.3469 16.6531C35.4046 16.6531 38.6938 19.9424 38.6938 24C38.6938 28.0577 35.4046 31.3469 31.3469 31.3469C31.3469 35.4046 28.0577 38.6938 24 38.6938C19.9424 38.6938 16.6531 35.4046 16.6531 31.3469C12.5955 31.3469 9.30612 28.0577 9.30612 24C9.30612 19.9424 12.5955 16.653 16.6531 16.6531Z" fill="url(#paint0_linear_46_886)"/>
</g>
<defs>
<linearGradient id="paint0_linear_46_886" x1="3.36" y1="6.24" x2="42.96" y2="43.08" gradientUnits="userSpaceOnUse">
<stop stop-color="#71C09F"/>
<stop offset="1" stop-color="#2F6A52"/>
</linearGradient>
<clipPath id="clip0_46_886">
<rect width="48" height="48" fill="white"/>
</clipPath>
</defs>
</svg>
