<svg width="21" height="21" viewBox="0 0 21 21" fill="none" xmlns="http://www.w3.org/2000/svg">
<path fill-rule="evenodd" clip-rule="evenodd" d="M10.5 2.5C14.9175 2.5 18.5 6.0825 18.5 10.5C18.5 14.9175 14.9175 18.5 10.5 18.5C6.0825 18.5 2.5 14.9175 2.5 10.5C2.5 6.0825 6.0825 2.5 10.5 2.5ZM8.8387 13.0985L6.8801 11.1382C6.54643 10.8044 6.54636 10.2599 6.8801 9.92611C7.21392 9.59236 7.7608 9.59445 8.09218 9.92611L9.47298 11.308L12.9079 7.87303C13.2418 7.53921 13.7863 7.53921 14.12 7.87303C14.4538 8.20677 14.4534 8.75176 14.12 9.0851L10.078 13.1271C9.7447 13.4604 9.19971 13.4609 8.86596 13.1271C8.85659 13.1177 8.84754 13.1082 8.8387 13.0985Z" fill="#101012"/>
<path d="M8.8387 13.0985L6.8801 11.1382C6.54643 10.8044 6.54636 10.2599 6.8801 9.92611C7.21392 9.59236 7.7608 9.59445 8.09218 9.92611L9.47298 11.308L12.9079 7.87303C13.2418 7.53921 13.7863 7.53921 14.12 7.87303C14.4538 8.20677 14.4534 8.75176 14.12 9.0851L10.078 13.1271C9.7447 13.4604 9.19971 13.4609 8.86596 13.1271C8.85659 13.1177 8.84754 13.1082 8.8387 13.0985Z" fill="white"/>
</svg>
