<svg width="147" height="46" viewBox="0 0 147 46" fill="none" xmlns="http://www.w3.org/2000/svg">
<path d="M4.64182 19.594H13.4038V22.87H4.64182V19.594ZM4.95382 27.082H14.8598V30.462H0.767822V12.262H14.5218V15.642H4.95382V27.082Z" fill="#096746"/>
<path d="M26.429 30.462V27.732L26.169 27.134V22.246C26.169 21.3793 25.9003 20.7033 25.363 20.218C24.843 19.7327 24.037 19.49 22.945 19.49C22.1997 19.49 21.463 19.6113 20.735 19.854C20.0243 20.0793 19.4177 20.3913 18.915 20.79L17.459 17.956C18.2217 17.4187 19.1403 17.0027 20.215 16.708C21.2897 16.4133 22.3817 16.266 23.491 16.266C25.623 16.266 27.2783 16.7687 28.457 17.774C29.6357 18.7793 30.225 20.348 30.225 22.48V30.462H26.429ZM22.165 30.67C21.073 30.67 20.137 30.488 19.357 30.124C18.577 29.7427 17.979 29.2313 17.563 28.59C17.147 27.9487 16.939 27.2293 16.939 26.432C16.939 25.6 17.1383 24.872 17.537 24.248C17.953 23.624 18.603 23.1387 19.487 22.792C20.371 22.428 21.5237 22.246 22.945 22.246H26.663V24.612H23.387C22.4337 24.612 21.775 24.768 21.411 25.08C21.0643 25.392 20.891 25.782 20.891 26.25C20.891 26.77 21.0903 27.186 21.489 27.498C21.905 27.7927 22.4683 27.94 23.179 27.94C23.855 27.94 24.4617 27.784 24.999 27.472C25.5363 27.1427 25.9263 26.666 26.169 26.042L26.793 27.914C26.4983 28.8153 25.961 29.5 25.181 29.968C24.401 30.436 23.3957 30.67 22.165 30.67Z" fill="#096746"/>
<path d="M39.6159 30.67C37.9692 30.67 36.6866 30.254 35.7679 29.422C34.8492 28.5727 34.3899 27.316 34.3899 25.652V13.38H38.4459V25.6C38.4459 26.1893 38.6019 26.6487 38.9139 26.978C39.2259 27.29 39.6506 27.446 40.1879 27.446C40.8292 27.446 41.3752 27.2727 41.8259 26.926L42.9179 29.786C42.5019 30.0807 41.9992 30.306 41.4099 30.462C40.8379 30.6007 40.2399 30.67 39.6159 30.67ZM32.2319 19.906V16.786H41.9299V19.906H32.2319Z" fill="#096746"/>
<path d="M51.7051 30.67C50.1104 30.67 48.7064 30.358 47.4931 29.734C46.2971 29.11 45.3697 28.2607 44.7111 27.186C44.0524 26.094 43.7231 24.8547 43.7231 23.468C43.7231 22.064 44.0437 20.8247 44.6851 19.75C45.3437 18.658 46.2364 17.8087 47.3631 17.202C48.4897 16.578 49.7637 16.266 51.1851 16.266C52.5544 16.266 53.7851 16.5607 54.8771 17.15C55.9864 17.722 56.8617 18.554 57.5031 19.646C58.1444 20.7207 58.4651 22.012 58.4651 23.52C58.4651 23.676 58.4564 23.858 58.4391 24.066C58.4217 24.2567 58.4044 24.4387 58.3871 24.612H47.0251V22.246H56.2551L54.6951 22.948C54.6951 22.22 54.5477 21.5873 54.2531 21.05C53.9584 20.5127 53.5511 20.0967 53.0311 19.802C52.5111 19.49 51.9044 19.334 51.2111 19.334C50.5177 19.334 49.9024 19.49 49.3651 19.802C48.8451 20.0967 48.4377 20.5213 48.1431 21.076C47.8484 21.6133 47.7011 22.2547 47.7011 23V23.624C47.7011 24.3867 47.8657 25.0627 48.1951 25.652C48.5417 26.224 49.0184 26.666 49.6251 26.978C50.2491 27.2727 50.9771 27.42 51.8091 27.42C52.5544 27.42 53.2044 27.3073 53.7591 27.082C54.3311 26.8567 54.8511 26.5187 55.3191 26.068L57.4771 28.408C56.8357 29.136 56.0297 29.6993 55.0591 30.098C54.0884 30.4793 52.9704 30.67 51.7051 30.67Z" fill="#096746"/>
<path d="M61.1654 30.462V11.17H65.2214V30.462H61.1654Z" fill="#096746"/>
<path d="M68.9857 30.462V11.17H73.0417V30.462H68.9857Z" fill="#096746"/>
<path d="M91.2044 35.714C89.887 35.714 88.613 35.5493 87.3824 35.22C86.169 34.908 85.155 34.4313 84.3404 33.79L85.9524 30.878C86.5417 31.3633 87.287 31.7447 88.1884 32.022C89.107 32.3167 90.0084 32.464 90.8924 32.464C92.331 32.464 93.371 32.1433 94.0124 31.502C94.671 30.8607 95.0004 29.9073 95.0004 28.642V26.536L95.2604 23.026L95.2084 19.49V16.474H99.0564V28.122C99.0564 30.722 98.3804 32.6373 97.0284 33.868C95.6764 35.0987 93.735 35.714 91.2044 35.714ZM90.5804 29.786C89.2804 29.786 88.1017 29.5087 87.0444 28.954C86.0044 28.382 85.1637 27.5933 84.5224 26.588C83.8984 25.5653 83.5864 24.378 83.5864 23.026C83.5864 21.6567 83.8984 20.4693 84.5224 19.464C85.1637 18.4413 86.0044 17.6527 87.0444 17.098C88.1017 16.5433 89.2804 16.266 90.5804 16.266C91.759 16.266 92.799 16.5087 93.7004 16.994C94.6017 17.462 95.3037 18.1987 95.8064 19.204C96.309 20.192 96.5604 21.466 96.5604 23.026C96.5604 24.5687 96.309 25.8427 95.8064 26.848C95.3037 27.836 94.6017 28.5727 93.7004 29.058C92.799 29.5433 91.759 29.786 90.5804 29.786ZM91.3864 26.458C92.097 26.458 92.7297 26.3193 93.2844 26.042C93.839 25.7473 94.2724 25.34 94.5844 24.82C94.8964 24.3 95.0524 23.702 95.0524 23.026C95.0524 22.3327 94.8964 21.7347 94.5844 21.232C94.2724 20.712 93.839 20.3133 93.2844 20.036C92.7297 19.7413 92.097 19.594 91.3864 19.594C90.6757 19.594 90.043 19.7413 89.4883 20.036C88.9337 20.3133 88.4917 20.712 88.1624 21.232C87.8504 21.7347 87.6944 22.3327 87.6944 23.026C87.6944 23.702 87.8504 24.3 88.1624 24.82C88.4917 25.34 88.9337 25.7473 89.4883 26.042C90.043 26.3193 90.6757 26.458 91.3864 26.458Z" fill="#096746"/>
<path d="M109.773 30.67C108.179 30.67 106.775 30.358 105.561 29.734C104.365 29.11 103.438 28.2607 102.779 27.186C102.121 26.094 101.791 24.8547 101.791 23.468C101.791 22.064 102.112 20.8247 102.753 19.75C103.412 18.658 104.305 17.8087 105.431 17.202C106.558 16.578 107.832 16.266 109.253 16.266C110.623 16.266 111.853 16.5607 112.945 17.15C114.055 17.722 114.93 18.554 115.571 19.646C116.213 20.7207 116.533 22.012 116.533 23.52C116.533 23.676 116.525 23.858 116.507 24.066C116.49 24.2567 116.473 24.4387 116.455 24.612H105.093V22.246H114.323L112.763 22.948C112.763 22.22 112.616 21.5873 112.321 21.05C112.027 20.5127 111.619 20.0967 111.099 19.802C110.579 19.49 109.973 19.334 109.279 19.334C108.586 19.334 107.971 19.49 107.433 19.802C106.913 20.0967 106.506 20.5213 106.211 21.076C105.917 21.6133 105.769 22.2547 105.769 23V23.624C105.769 24.3867 105.934 25.0627 106.263 25.652C106.61 26.224 107.087 26.666 107.693 26.978C108.317 27.2727 109.045 27.42 109.877 27.42C110.623 27.42 111.273 27.3073 111.827 27.082C112.399 26.8567 112.919 26.5187 113.387 26.068L115.545 28.408C114.904 29.136 114.098 29.6993 113.127 30.098C112.157 30.4793 111.039 30.67 109.773 30.67Z" fill="#096746"/>
<path d="M127.736 16.266C128.845 16.266 129.833 16.4913 130.7 16.942C131.584 17.3753 132.277 18.0513 132.78 18.97C133.282 19.8713 133.534 21.0327 133.534 22.454V30.462H129.478V23.078C129.478 21.9513 129.226 21.1193 128.724 20.582C128.238 20.0447 127.545 19.776 126.644 19.776C126.002 19.776 125.422 19.9147 124.902 20.192C124.399 20.452 124 20.8593 123.706 21.414C123.428 21.9687 123.29 22.6793 123.29 23.546V30.462H119.234V16.474H123.108V20.348L122.38 19.178C122.882 18.242 123.602 17.5227 124.538 17.02C125.474 16.5173 126.54 16.266 127.736 16.266Z" fill="#096746"/>
<path d="M142.93 30.67C141.284 30.67 140.001 30.254 139.082 29.422C138.164 28.5727 137.704 27.316 137.704 25.652V13.38H141.76V25.6C141.76 26.1893 141.916 26.6487 142.228 26.978C142.54 27.29 142.965 27.446 143.502 27.446C144.144 27.446 144.69 27.2727 145.14 26.926L146.232 29.786C145.816 30.0807 145.314 30.306 144.724 30.462C144.152 30.6007 143.554 30.67 142.93 30.67ZM135.546 19.906V16.786H145.244V19.906H135.546Z" fill="#096746"/>
<path fill-rule="evenodd" clip-rule="evenodd" d="M76.806 16.474V30.462H80.862V16.474H76.806Z" fill="#096746"/>
<path d="M78.834 14.524C78.0887 14.524 77.482 14.3073 77.014 13.874C76.546 13.4407 76.312 12.9033 76.312 12.262C76.312 11.6207 76.546 11.0833 77.014 10.65C77.482 10.2167 78.0887 10 78.834 10C79.5794 10 80.186 10.208 80.654 10.624C81.122 11.0227 81.356 11.5427 81.356 12.184C81.356 12.86 81.122 13.4233 80.654 13.874C80.2034 14.3073 79.5967 14.524 78.834 14.524Z" fill="#18A976"/>
</svg>
