<svg width="26" height="26" viewBox="0 0 26 26" fill="none" xmlns="http://www.w3.org/2000/svg">
<g clip-path="url(#clip0_46_959)">
<path d="M25.5 13.0762C25.5 6.1293 19.9031 0.498047 13 0.498047C6.0937 0.499609 0.496826 6.1293 0.496826 13.0777C0.496826 19.3543 5.0687 24.5574 11.0437 25.5012V16.7121H7.87183V13.0777H11.0468V10.3043C11.0468 7.15273 12.914 5.41211 15.7687 5.41211C17.1375 5.41211 18.5671 5.65742 18.5671 5.65742V8.75117H16.9906C15.439 8.75117 14.9546 9.72148 14.9546 10.7168V13.0762H18.4203L17.8671 16.7105H14.9531V25.4996C20.9281 24.5559 25.5 19.3527 25.5 13.0762Z" fill="#096746"/>
</g>
<defs>
<clipPath id="clip0_46_959">
<rect width="25" height="25" fill="white" transform="translate(0.5 0.5)"/>
</clipPath>
</defs>
</svg>
