<svg width="30" height="30" viewBox="0 0 30 30" fill="none" xmlns="http://www.w3.org/2000/svg">
<g clip-path="url(#clip0_46_959)">
<path d="M30 15.0918C30 6.75555 23.2837 -0.00195312 15 -0.00195312C6.71247 -7.81248e-05 -0.00378418 6.75555 -0.00378418 15.0937C-0.00378418 22.6255 5.48247 28.8693 12.6525 30.0018V19.4549H8.84622V15.0937H12.6562V11.7655C12.6562 7.98367 14.8968 5.89492 18.3225 5.89492C19.965 5.89492 21.6806 6.1893 21.6806 6.1893V9.9018H19.7887C17.9268 9.9018 17.3456 11.0662 17.3456 12.2605V15.0918H21.5043L20.8406 19.453H17.3437V29.9999C24.5137 28.8674 30 22.6237 30 15.0918Z" fill="#101012"/>
</g>
<defs>
<clipPath id="clip0_46_959">
<rect width="30" height="30" fill="white"/>
</clipPath>
</defs>
</svg>
