<svg width="26" height="26" viewBox="0 0 26 26" fill="none" xmlns="http://www.w3.org/2000/svg">
<g clip-path="url(#clip0_46_955)">
<path d="M13 0.5C9.60781 0.5 9.18125 0.515625 7.84844 0.575C6.51563 0.6375 5.60781 0.846875 4.8125 1.15625C3.97827 1.47003 3.22264 1.96223 2.59844 2.59844C1.96262 3.22296 1.47048 3.9785 1.15625 4.8125C0.846875 5.60625 0.635938 6.51562 0.575 7.84375C0.515625 9.17969 0.5 9.60469 0.5 13.0016C0.5 16.3953 0.515625 16.8203 0.575 18.1531C0.6375 19.4844 0.846875 20.3922 1.15625 21.1875C1.47656 22.0094 1.90313 22.7062 2.59844 23.4016C3.29219 24.0969 3.98906 24.525 4.81094 24.8437C5.60781 25.1531 6.51406 25.3641 7.84531 25.425C9.17969 25.4844 9.60469 25.5 13 25.5C16.3953 25.5 16.8188 25.4844 18.1531 25.425C19.4828 25.3625 20.3938 25.1531 21.1891 24.8437C22.0228 24.5298 22.7778 24.0376 23.4016 23.4016C24.0969 22.7062 24.5234 22.0094 24.8437 21.1875C25.1516 20.3922 25.3625 19.4844 25.425 18.1531C25.4844 16.8203 25.5 16.3953 25.5 13C25.5 9.60469 25.4844 9.17969 25.425 7.84531C25.3625 6.51563 25.1516 5.60625 24.8437 4.8125C24.5296 3.97848 24.0374 3.22293 23.4016 2.59844C22.7775 1.96199 22.0219 1.46976 21.1875 1.15625C20.3906 0.846875 19.4812 0.635938 18.1516 0.575C16.8172 0.515625 16.3938 0.5 12.9969 0.5H13.0016H13ZM11.8797 2.75313H13.0016C16.3391 2.75313 16.7344 2.76406 18.0516 2.825C19.2703 2.87969 19.9328 3.08438 20.3734 3.25469C20.9562 3.48125 21.3734 3.75312 21.8109 4.19062C22.2484 4.62812 22.5188 5.04375 22.7453 5.62813C22.9172 6.06719 23.1203 6.72969 23.175 7.94844C23.2359 9.26563 23.2484 9.66094 23.2484 12.9969C23.2484 16.3328 23.2359 16.7297 23.175 18.0469C23.1203 19.2656 22.9156 19.9266 22.7453 20.3672C22.5449 20.9099 22.225 21.4007 21.8094 21.8031C21.3719 22.2406 20.9563 22.5109 20.3719 22.7375C19.9344 22.9094 19.2719 23.1125 18.0516 23.1688C16.7344 23.2281 16.3391 23.2422 13.0016 23.2422C9.66406 23.2422 9.26719 23.2281 7.95 23.1688C6.73125 23.1125 6.07031 22.9094 5.62969 22.7375C5.08672 22.5374 4.59551 22.2181 4.19219 21.8031C3.77617 21.4001 3.45582 20.9088 3.25469 20.3656C3.08438 19.9266 2.87969 19.2641 2.825 18.0453C2.76563 16.7281 2.75313 16.3328 2.75313 12.9937C2.75313 9.65625 2.76563 9.2625 2.825 7.94531C2.88125 6.72656 3.08438 6.06406 3.25625 5.62344C3.48281 5.04063 3.75469 4.62344 4.19219 4.18594C4.62969 3.74844 5.04531 3.47813 5.62969 3.25156C6.07031 3.07969 6.73125 2.87656 7.95 2.82031C9.10313 2.76719 9.55 2.75156 11.8797 2.75V2.75313ZM19.6734 4.82812C19.4765 4.82812 19.2814 4.86692 19.0994 4.94231C18.9174 5.01769 18.7521 5.12818 18.6128 5.26746C18.4735 5.40675 18.363 5.57211 18.2876 5.7541C18.2122 5.93609 18.1734 6.13114 18.1734 6.32813C18.1734 6.52511 18.2122 6.72016 18.2876 6.90215C18.363 7.08414 18.4735 7.2495 18.6128 7.38879C18.7521 7.52807 18.9174 7.63856 19.0994 7.71394C19.2814 7.78933 19.4765 7.82813 19.6734 7.82813C20.0713 7.82813 20.4528 7.67009 20.7341 7.38879C21.0154 7.10748 21.1734 6.72595 21.1734 6.32813C21.1734 5.9303 21.0154 5.54877 20.7341 5.26746C20.4528 4.98616 20.0713 4.82812 19.6734 4.82812ZM13.0016 6.58125C12.1501 6.56797 11.3045 6.7242 10.514 7.04085C9.72353 7.35749 9.00393 7.82824 8.39711 8.42566C7.79029 9.02309 7.30838 9.73526 6.97944 10.5207C6.6505 11.3062 6.48109 12.1492 6.48109 13.0008C6.48109 13.8523 6.6505 14.6954 6.97944 15.4808C7.30838 16.2663 7.79029 16.9785 8.39711 17.5759C9.00393 18.1733 9.72353 18.6441 10.514 18.9607C11.3045 19.2774 12.1501 19.4336 13.0016 19.4203C14.6868 19.394 16.2941 18.7061 17.4765 17.5051C18.659 16.304 19.3217 14.6862 19.3217 13.0008C19.3217 11.3154 18.659 9.69752 17.4765 8.49648C16.2941 7.29545 14.6868 6.60754 13.0016 6.58125ZM13.0016 8.83281C14.1068 8.83281 15.1667 9.27185 15.9482 10.0534C16.7297 10.8349 17.1688 11.8948 17.1688 13C17.1688 14.1052 16.7297 15.1651 15.9482 15.9466C15.1667 16.7281 14.1068 17.1672 13.0016 17.1672C11.8964 17.1672 10.8364 16.7281 10.0549 15.9466C9.27342 15.1651 8.83438 14.1052 8.83438 13C8.83438 11.8948 9.27342 10.8349 10.0549 10.0534C10.8364 9.27185 11.8964 8.83281 13.0016 8.83281Z" fill="#096746"/>
</g>
<defs>
<clipPath id="clip0_46_955">
<rect width="25" height="25" fill="white" transform="translate(0.5 0.5)"/>
</clipPath>
</defs>
</svg>
