<svg width="26" height="26" viewBox="0 0 26 26" fill="none" xmlns="http://www.w3.org/2000/svg">
<g clip-path="url(#clip0_46_961)">
<path d="M0.5 2.29063C0.5 1.30156 1.32187 0.5 2.33594 0.5H23.6641C24.6781 0.5 25.5 1.30156 25.5 2.29063V23.7094C25.5 24.6984 24.6781 25.5 23.6641 25.5H2.33594C1.32187 25.5 0.5 24.6984 0.5 23.7094V2.29063ZM8.22344 21.4281V10.1391H4.47188V21.4281H8.22344ZM6.34844 8.59688C7.65625 8.59688 8.47031 7.73125 8.47031 6.64688C8.44687 5.53906 7.65781 4.69688 6.37344 4.69688C5.08906 4.69688 4.25 5.54063 4.25 6.64688C4.25 7.73125 5.06406 8.59688 6.32344 8.59688H6.34844ZM14.0172 21.4281V15.1234C14.0172 14.7859 14.0422 14.4484 14.1422 14.2078C14.4125 13.5344 15.0297 12.8359 16.0672 12.8359C17.425 12.8359 17.9672 13.8703 17.9672 15.3891V21.4281H21.7187V14.9531C21.7187 11.4844 19.8688 9.87188 17.4 9.87188C15.4094 9.87188 14.5172 10.9656 14.0172 11.7359V11.775H13.9922C14.0005 11.762 14.0088 11.7489 14.0172 11.7359V10.1391H10.2672C10.3141 11.1984 10.2672 21.4281 10.2672 21.4281H14.0172Z" fill="#096746"/>
</g>
<defs>
<clipPath id="clip0_46_961">
<rect width="25" height="25" fill="white" transform="translate(0.5 0.5)"/>
</clipPath>
</defs>
</svg>
