<svg width="30" height="30" viewBox="0 0 30 30" fill="none" xmlns="http://www.w3.org/2000/svg">
<path d="M9.42375 28.1253C20.745 28.1253 26.9381 18.7447 26.9381 10.6241C26.9381 10.3616 26.9381 10.0953 26.9269 9.83282C28.1326 8.95998 29.1732 7.87936 30 6.64157C28.8737 7.13817 27.6802 7.46546 26.4581 7.61282C27.7454 6.84339 28.7095 5.63276 29.1712 4.20595C27.9619 4.92243 26.6382 5.4254 25.2581 5.69282C24.3303 4.70474 23.1026 4.05017 21.7652 3.83049C20.4277 3.61082 19.0551 3.8383 17.86 4.47771C16.6649 5.11711 15.714 6.13275 15.1546 7.36731C14.5952 8.60187 14.4585 9.98645 14.7656 11.3066C12.3183 11.1839 9.92403 10.5481 7.73821 9.44047C5.55238 8.33286 3.62378 6.77816 2.0775 4.8772C1.29251 6.23298 1.05295 7.8367 1.40746 9.3627C1.76197 10.8887 2.68398 12.2226 3.98625 13.0934C3.01039 13.0603 2.05598 12.7982 1.2 12.3284V12.4128C1.20168 13.8331 1.6937 15.2092 2.59289 16.3086C3.49208 17.408 4.74328 18.1632 6.135 18.4466C5.60674 18.5921 5.06106 18.6646 4.51313 18.6622C4.12684 18.6634 3.74134 18.6276 3.36187 18.5553C3.75522 19.7779 4.52114 20.8469 5.55234 21.6125C6.58354 22.3781 7.82838 22.8019 9.1125 22.8247C6.93104 24.5381 4.23638 25.4673 1.4625 25.4628C0.973726 25.4649 0.485293 25.4367 0 25.3784C2.81534 27.1733 6.08493 28.1264 9.42375 28.1253Z" fill="#101012"/>
</svg>
