<svg width="26" height="26" viewBox="0 0 26 26" fill="none" xmlns="http://www.w3.org/2000/svg">
<g clip-path="url(#clip0_46_957)">
<path d="M8.35313 23.9376C17.7875 23.9376 22.9484 16.1204 22.9484 9.35323C22.9484 9.13448 22.9484 8.91261 22.9391 8.69386C23.9438 7.96649 24.811 7.06597 25.5 6.03448C24.5614 6.44831 23.5668 6.72105 22.5484 6.84386C23.6211 6.20267 24.4246 5.19381 24.8094 4.00479C23.8015 4.60186 22.6985 5.021 21.5484 5.24386C20.7753 4.42046 19.7522 3.87498 18.6376 3.69192C17.5231 3.50885 16.3793 3.69842 15.3833 4.23126C14.3874 4.7641 13.595 5.61046 13.1288 6.63926C12.6626 7.66806 12.5487 8.82188 12.8047 9.92198C10.7652 9.81972 8.77003 9.2899 6.9485 8.36689C5.12698 7.44388 3.51982 6.1483 2.23125 4.56417C1.57709 5.69399 1.37746 7.03042 1.67288 8.30208C1.96831 9.57375 2.73665 10.6853 3.82187 11.411C3.00866 11.3834 2.21331 11.165 1.5 10.7735V10.8439C1.5014 12.0274 1.91142 13.1742 2.66074 14.0904C3.41006 15.0065 4.45273 15.6358 5.6125 15.872C5.17229 15.9933 4.71755 16.0537 4.26094 16.0517C3.93904 16.0526 3.61778 16.0228 3.30156 15.9626C3.62935 16.9814 4.26761 17.8722 5.12695 18.5102C5.98628 19.1482 7.02365 19.5014 8.09375 19.5204C6.27587 20.9482 4.03031 21.7226 1.71875 21.7189C1.31144 21.7206 0.904411 21.6971 0.5 21.6485C2.84612 23.1443 5.57078 23.9385 8.35313 23.9376Z" fill="#096746"/>
</g>
<defs>
<clipPath id="clip0_46_957">
<rect width="25" height="25" fill="white" transform="translate(0.5 0.5)"/>
</clipPath>
</defs>
</svg>
