<svg width="26" height="26" viewBox="0 0 26 26" fill="none" xmlns="http://www.w3.org/2000/svg">
<g clip-path="url(#clip0_46_963)">
<path d="M13.0797 3.62305H13.2188C14.5031 3.62773 21.0109 3.67461 22.7656 4.14648C23.2961 4.2905 23.7795 4.57121 24.1674 4.96056C24.5554 5.34991 24.8344 5.83427 24.9766 6.36523C25.1344 6.95898 25.2453 7.74492 25.3203 8.55586L25.3359 8.71836L25.3703 9.12461L25.3828 9.28711C25.4844 10.7152 25.4969 12.0527 25.4984 12.3449V12.4621C25.4969 12.7652 25.4828 14.1934 25.3703 15.6809L25.3578 15.8449L25.3437 16.0074C25.2656 16.9012 25.15 17.7887 24.9766 18.4418C24.8349 18.973 24.556 19.4576 24.1679 19.847C23.7799 20.2364 23.2963 20.517 22.7656 20.6605C20.9531 21.148 14.0641 21.1824 13.1094 21.184H12.8875C12.4047 21.184 10.4078 21.1746 8.31406 21.1027L8.04844 21.0934L7.9125 21.0871L7.64531 21.0762L7.37812 21.0652C5.64375 20.9887 3.99219 20.8652 3.23125 20.659C2.70077 20.5155 2.21729 20.2352 1.82926 19.8461C1.44122 19.4569 1.16226 18.9727 1.02031 18.4418C0.846875 17.7902 0.73125 16.9012 0.653125 16.0074L0.640625 15.8434L0.628125 15.6809C0.551012 14.6221 0.508281 13.5611 0.5 12.4996L0.5 12.3074C0.503125 11.9715 0.515625 10.8105 0.6 9.5293L0.610938 9.36836L0.615625 9.28711L0.628125 9.12461L0.6625 8.71836L0.678125 8.55586C0.753125 7.74492 0.864062 6.95742 1.02187 6.36523C1.16358 5.83406 1.44244 5.34947 1.83049 4.96005C2.21854 4.57063 2.70214 4.29007 3.23281 4.14648C3.99375 3.94336 5.64531 3.81836 7.37969 3.74023L7.64531 3.7293L7.91406 3.71992L8.04844 3.71523L8.31562 3.7043C9.80267 3.65644 11.2903 3.62988 12.7781 3.62461H13.0797V3.62305ZM10.5 8.63867V16.1668L16.9953 12.4043L10.5 8.63867Z" fill="#096746"/>
</g>
<defs>
<clipPath id="clip0_46_963">
<rect width="25" height="25" fill="white" transform="translate(0.5 0.5)"/>
</clipPath>
</defs>
</svg>
