<svg width="100" height="100" viewBox="0 0 100 100" fill="none" xmlns="http://www.w3.org/2000/svg">
<g clip-path="url(#clip0_46_848)">
<path d="M50 100C77.6142 100 100 77.6142 100 50C100 22.3858 77.6142 0 50 0C22.3858 0 0 22.3858 0 50C0 77.6142 22.3858 100 50 100Z" fill="#6AA9FF"/>
<path d="M100 50C100 22.5371 77.4629 0 50 0V100C77.4629 100 100 77.4629 100 50Z" fill="#4895FF"/>
<path d="M50 94.1406C74.3782 94.1406 94.1406 74.3782 94.1406 50C94.1406 25.6218 74.3782 5.85938 50 5.85938C25.6218 5.85938 5.85938 25.6218 5.85938 50C5.85938 74.3782 25.6218 94.1406 50 94.1406Z" fill="#EDF5FF"/>
<path d="M94.1406 50C94.1406 25.7672 74.2328 5.85938 50 5.85938V94.1406C74.2328 94.1406 94.1406 74.2328 94.1406 50Z" fill="#D5E8FE"/>
<path d="M25.1409 77.7891C26.7589 77.7891 28.0706 76.4774 28.0706 74.8594C28.0706 73.2414 26.7589 71.9297 25.1409 71.9297C23.5228 71.9297 22.2112 73.2414 22.2112 74.8594C22.2112 76.4774 23.5228 77.7891 25.1409 77.7891Z" fill="#47568C"/>
<path d="M74.8591 28.0703C76.4772 28.0703 77.7888 26.7586 77.7888 25.1406C77.7888 23.5226 76.4772 22.2109 74.8591 22.2109C73.2411 22.2109 71.9294 23.5226 71.9294 25.1406C71.9294 26.7586 73.2411 28.0703 74.8591 28.0703Z" fill="#29376D"/>
<path d="M25.1409 28.0703C26.7589 28.0703 28.0706 26.7586 28.0706 25.1406C28.0706 23.5226 26.7589 22.2109 25.1409 22.2109C23.5228 22.2109 22.2112 23.5226 22.2112 25.1406C22.2112 26.7586 23.5228 28.0703 25.1409 28.0703Z" fill="#47568C"/>
<path d="M74.8591 77.7891C76.4772 77.7891 77.7888 76.4774 77.7888 74.8594C77.7888 73.2414 76.4772 71.9297 74.8591 71.9297C73.2411 71.9297 71.9294 73.2414 71.9294 74.8594C71.9294 76.4774 73.2411 77.7891 74.8591 77.7891Z" fill="#29376D"/>
<path d="M20.7031 52.9297H14.8438C13.2244 52.9297 11.9141 51.6193 11.9141 50C11.9141 48.3807 13.2244 47.0703 14.8438 47.0703H20.7031C22.3225 47.0703 23.6328 48.3807 23.6328 50C23.6328 51.6193 22.3225 52.9297 20.7031 52.9297Z" fill="#47568C"/>
<path d="M85.1562 52.9297H79.2969C77.6775 52.9297 76.3672 51.6193 76.3672 50C76.3672 48.3807 77.6775 47.0703 79.2969 47.0703H85.1562C86.7756 47.0703 88.0859 48.3807 88.0859 50C88.0859 51.6193 86.7756 52.9297 85.1562 52.9297Z" fill="#29376D"/>
<path d="M47.0703 14.8438V20.7031C47.0703 22.3225 48.3807 23.6328 50 23.6328V11.9141C48.3807 11.9141 47.0703 13.2244 47.0703 14.8438Z" fill="#47568C"/>
<path d="M52.9297 20.7031V14.8438C52.9297 13.2244 51.6193 11.9141 50 11.9141V23.6328C51.6193 23.6328 52.9297 22.3225 52.9297 20.7031Z" fill="#FF7B4A"/>
<path d="M50 76.3672C48.3807 76.3672 47.0703 77.6775 47.0703 79.2969V85.1562C47.0703 86.7756 48.3807 88.0859 50 88.0859C51.6193 88.0859 52.9297 86.7756 52.9297 85.1562V79.2969C52.9297 77.6775 51.6193 76.3672 50 76.3672Z" fill="#47568C"/>
<path d="M69.6494 65.5068L52.9297 48.7869V32.4219C52.9297 30.8025 51.6193 29.4922 50 29.4922C48.3807 29.4922 47.0703 30.8025 47.0703 32.4219V50C47.0703 50.7781 47.3793 51.5221 47.9287 52.0713L50 54.1428L65.5068 69.6496C66.6512 70.7939 68.5053 70.7939 69.6496 69.6496C70.7939 68.5053 70.7939 66.6512 69.6494 65.5068Z" fill="#47568C"/>
<path d="M52.9297 20.7031V14.8438C52.9297 13.2244 51.6193 11.9141 50 11.9141V23.6328C51.6193 23.6328 52.9297 22.3225 52.9297 20.7031Z" fill="#29376D"/>
<path d="M52.9297 85.1562V79.2969C52.9297 77.6775 51.6193 76.3672 50 76.3672V88.0859C51.6193 88.0859 52.9297 86.7756 52.9297 85.1562Z" fill="#29376D"/>
<path d="M69.6494 69.6494C70.7938 68.5051 70.7938 66.651 69.6494 65.5066L52.9297 48.7869V32.4219C52.9297 30.8025 51.6193 29.4922 50 29.4922V54.1428L65.5068 69.6496C66.6512 70.7939 68.5051 70.7939 69.6494 69.6494Z" fill="#29376D"/>
</g>
<defs>
<clipPath id="clip0_46_848">
<rect width="100" height="100" fill="white"/>
</clipPath>
</defs>
</svg>
