<svg width="100" height="100" viewBox="0 0 100 100" fill="none" xmlns="http://www.w3.org/2000/svg">
<path d="M35.9217 34.8448L28.15 24.9998C27.8925 24.686 27.6532 24.3577 27.4333 24.0165C21.8333 15.4165 27.6667 1.6665 27.6667 1.6665C27.6667 1.6665 42.6 1.8665 48.2 10.4665C49.9456 13.3665 50.7924 16.7188 50.6333 20.0998V31.6532L35.9217 34.8448Z" fill="#4FBA6F"/>
<path d="M44.6984 39.2564C44.6192 39.2566 44.5401 39.2511 44.4617 39.2398C44.2449 39.2091 44.0362 39.136 43.8476 39.0247C43.6591 38.9133 43.4943 38.7659 43.3627 38.5908C43.2312 38.4158 43.1354 38.2165 43.0809 38.0044C43.0264 37.7923 43.0142 37.5716 43.045 37.3548C45.3884 20.8714 32.495 11.4498 32.3634 11.3548C32.0126 11.0942 31.7781 10.7063 31.7105 10.2746C31.6429 9.84292 31.7475 9.40193 32.0019 9.04662C32.2562 8.69131 32.64 8.4501 33.0704 8.37494C33.5009 8.29978 33.9436 8.39668 34.3034 8.64477C34.9017 9.07311 48.97 19.3581 46.3467 37.8231C46.2905 38.2204 46.0929 38.5841 45.7901 38.8475C45.4873 39.1108 45.0996 39.256 44.6984 39.2564Z" fill="#24AE5F"/>
<path d="M46.6566 34.2565C47.0155 29.3359 48.3623 24.5382 50.6166 20.1498V20.1331C53.4815 14.6116 57.926 10.0685 63.3833 7.08312C63.7663 6.87082 64.1874 6.73604 64.6225 6.68647C65.0576 6.6369 65.4982 6.67352 65.9192 6.79424C66.3401 6.91495 66.7332 7.1174 67.0759 7.39002C67.4186 7.66264 67.7043 8.0001 67.9166 8.38312C68.1289 8.76614 68.2637 9.18723 68.3133 9.62234C68.3628 10.0575 68.3262 10.4981 68.2055 10.919C68.0848 11.34 67.8823 11.733 67.6097 12.0758C67.3371 12.4185 66.9996 12.7042 66.6166 12.9165C54.7433 19.4998 53.4766 31.9515 53.3333 34.5515L46.6566 34.2565Z" fill="#A56A43"/>
<path d="M93.3333 55C93.3333 78.8833 71.6666 98.3333 63.3333 98.3333C55 98.3333 56.6666 95 50 95C43.3333 95 45 98.3333 36.6666 98.3333C31.25 98.3333 20.2333 90.1333 13.1666 77.85C9.03321 70.9353 6.79153 63.055 6.66663 55C6.66663 32.8333 16.6666 25 28.3333 25C38.3333 25 41.6666 31.6667 50 31.6667C57.5333 31.6667 60.9833 26.2167 68.9666 25.1667C69.8626 25.0582 70.7641 25.0026 71.6666 25C83.3333 25 93.3333 32.8333 93.3333 55Z" fill="#C03A2B"/>
<path d="M73.3333 43.3333C73.3306 53.9412 69.1155 64.1138 61.6146 71.6147C54.1138 79.1156 43.9411 83.3307 33.3333 83.3333C26.2406 83.3502 19.2743 81.456 13.1666 77.85C9.03321 70.9353 6.79153 63.055 6.66663 55C6.66663 32.8333 16.6666 25 28.3333 25C38.3333 25 41.6666 31.6667 50 31.6667C57.5333 31.6667 60.9833 26.2167 68.9666 25.1667C71.8484 30.788 73.3455 37.0164 73.3333 43.3333Z" fill="#E64C3C"/>
</svg>
