<svg width="100" height="100" viewBox="0 0 100 100" fill="none" xmlns="http://www.w3.org/2000/svg">
<path d="M15.959 59.2931C14.776 58.6726 13.1113 58.9634 12.2109 60.2892L0.492187 77.8673C0.171875 78.3478 0 78.9142 0 79.4923V88.2814C0 89.8986 1.3125 91.2111 2.92969 91.2111H14.6484C16.2656 91.2111 17.5781 89.8986 17.5781 88.2814V61.9142C17.5781 60.0269 15.9785 59.3117 15.959 59.2931Z" fill="#FFDF40"/>
<path d="M38.0859 91.2111H26.3672C24.7492 91.2111 23.4375 89.8994 23.4375 88.2814V67.7736C23.4375 67.1953 23.6086 66.6299 23.9295 66.1486L35.6482 48.5705C36.3645 47.4963 37.6996 47.0174 38.935 47.3916C40.1705 47.7656 41.0156 48.9045 41.0156 50.1955V88.2814C41.0156 89.8994 39.7039 91.2111 38.0859 91.2111Z" fill="#FFDF40"/>
<path d="M15.959 59.2931C14.776 58.6726 13.1113 58.9634 12.2109 60.2892L8.78906 65.422V91.2111H14.6484C16.2656 91.2111 17.5781 89.8986 17.5781 88.2814V61.9142C17.5781 60.0269 15.9785 59.3117 15.959 59.2931Z" fill="#FFBE40"/>
<path d="M41.0156 88.2814V50.1955C41.0156 48.9045 40.1705 47.7656 38.935 47.3916C37.6996 47.0174 36.3645 47.4963 35.6482 48.5705L32.2266 53.7029V91.2111H38.0859C39.7039 91.2111 41.0156 89.8994 41.0156 88.2814Z" fill="#FFBE40"/>
<path d="M61.5234 91.2111H49.8047C48.1867 91.2111 46.875 89.8993 46.875 88.2814V56.0548C46.875 55.4765 47.0461 54.9111 47.367 54.4298L59.0857 36.8517C59.802 35.7775 61.1371 35.2987 62.3723 35.6728C63.608 36.0468 64.4531 37.1857 64.4531 38.4767V88.2814C64.4531 89.8993 63.1414 91.2111 61.5234 91.2111Z" fill="#FFDF40"/>
<path d="M62.3725 35.6728C61.1373 35.2987 59.8021 35.7775 59.0859 36.8517L55.6641 41.9843V91.2111H61.5234C63.1414 91.2111 64.4531 89.8993 64.4531 88.2814V38.4767C64.4531 37.1857 63.608 36.0468 62.3725 35.6728Z" fill="#FFBE40"/>
<path d="M84.9609 91.2108H73.2422C71.6242 91.2108 70.3125 89.8991 70.3125 88.2811V44.3358C70.3125 43.6688 70.54 43.022 70.9574 42.5018L82.6762 27.9022C84.4051 25.7489 87.8906 26.9776 87.8906 29.7362V88.2811C87.8906 89.8991 86.5789 91.2108 84.9609 91.2108Z" fill="#FFDF40"/>
<path d="M87.8906 29.7362C87.8906 26.9778 84.4051 25.7489 82.6762 27.9022L79.1016 32.3555V91.2108H84.9609C86.5789 91.2108 87.8906 89.8991 87.8906 88.2811V29.7362Z" fill="#FFBE40"/>
<path d="M100 11.7012V23.4375C100 25.0547 98.6875 26.3672 97.0703 26.3672C95.4531 26.3672 94.1406 25.0547 94.1406 23.4375V20.0488L75.5273 43.2402C74.6641 44.3164 73.166 44.6445 71.9316 44.0273L62.5273 39.3242L52.2422 54.75C51.4219 55.9805 49.8164 56.4063 48.4941 55.7461L39.0898 51.043L28.8047 66.4688C27.9844 67.6992 26.3789 68.125 25.0566 67.4648L17.5781 63.7246L15.6523 62.7617L0 86.2383V76.5625C0 75.9844 0.171875 75.418 0.492187 74.9375L12.2109 57.3594C12.8201 56.4625 13.7924 56.0152 14.7715 56.0566C15.6477 56.1193 14.7937 55.7805 25.3633 61.0664L35.6484 45.6406C36.4688 44.4102 38.0742 43.9844 39.3965 44.6445L48.8008 49.3477L59.0859 33.9219C59.9043 32.6934 61.5117 32.2656 62.834 32.9258L72.4375 37.7285L90.9629 14.6484H85.3516C83.7344 14.6484 82.4219 13.3359 82.4219 11.7188C82.4219 10.1016 83.7344 8.78906 85.3516 8.78906H97.0703C98.6699 8.78906 99.9883 10.082 100 11.7012Z" fill="#FF5959"/>
<path d="M97.0703 8.78906H85.3516C83.7344 8.78906 82.4219 10.1016 82.4219 11.7188C82.4219 13.3359 83.7344 14.6484 85.3516 14.6484H90.9629L72.4375 37.7285L62.834 32.9258C61.5117 32.2656 59.9043 32.6934 59.0859 33.9219L48.8008 49.3477L43.9453 46.9195V53.4713L48.4941 55.7461C49.8164 56.4063 51.4219 55.9805 52.2422 54.75L62.5273 39.3242L71.9316 44.0273C73.166 44.6445 74.6641 44.3164 75.5273 43.2402L94.1406 20.0488V23.4375C94.1406 25.0547 95.4531 26.3672 97.0703 26.3672C98.6875 26.3672 100 25.0547 100 23.4375V11.7012C99.9883 10.082 98.6699 8.78906 97.0703 8.78906Z" fill="#E63A57"/>
</svg>
