<svg width="100" height="100" viewBox="0 0 100 100" fill="none" xmlns="http://www.w3.org/2000/svg">
<g clip-path="url(#clip0_46_784)">
<path d="M66.3785 25.392C67.7168 23.1482 70.167 21.6445 72.9693 21.6445C77.2053 21.6445 80.6391 25.0785 80.6391 29.3143C80.6391 29.6195 80.6191 29.9201 80.5846 30.2162C81.5082 29.957 82.4443 29.8221 83.3686 29.8221C84.2246 29.8221 85.0324 29.94 85.7807 30.167C85.7992 29.885 85.8119 29.6012 85.8119 29.3145C85.8119 22.2215 80.0619 16.4717 72.9691 16.4717C68.742 16.4717 64.9928 18.5145 62.6523 21.6662L66.3785 25.392Z" fill="#FED2A4"/>
<path d="M21.1778 50.8864L21.4433 50.8386L21.3149 50.6013C21.0952 50.195 20.9067 49.7839 20.7456 49.3712C17.0251 48.8427 14.1636 45.646 14.1636 41.7796C14.1636 37.5437 17.5976 34.1099 21.8333 34.1099C24.0499 34.1099 26.0458 35.0513 27.446 36.5548C27.745 35.2397 28.3663 34.0786 29.2895 33.1554C29.638 32.8069 30.02 32.5022 30.431 32.2405C28.1546 30.1876 25.1403 28.937 21.8335 28.937C14.7407 28.937 8.99072 34.687 8.99072 41.7798C8.99072 46.9136 12.004 51.3421 16.3577 53.3978C17.4694 52.1558 19.153 51.2511 21.1778 50.8864Z" fill="#FED2A4"/>
<path d="M55.9417 37.8125C56.4977 37.5477 57.1163 37.4125 57.786 37.4125C58.8981 37.4125 60.1417 37.7891 61.3821 38.5018L61.6374 38.6483L61.6733 38.3561C62.3005 33.2594 64.9968 29.56 68.0843 29.56C70.3216 29.56 72.3833 31.4686 73.5991 34.6655L73.7198 34.9828L73.9335 34.7188C74.2438 34.3352 74.5694 33.9723 74.9011 33.6385L54.6718 13.4094C54.2587 12.9963 53.5848 13.0237 53.1987 13.4621C48.9009 18.3418 47.9202 25.1178 50.2489 30.867C52.7913 31.1262 55.0126 33.8838 55.9417 37.8125Z" fill="#FB2B3A"/>
<path d="M55.9417 37.8125C56.4977 37.5477 57.1163 37.4125 57.786 37.4125C57.9864 37.4125 58.1925 37.4289 58.4007 37.4533C53.4442 31.4592 53.2905 22.8326 57.9337 16.6713L54.6718 13.4094C54.2587 12.9963 53.5848 13.0237 53.1987 13.4621C48.9009 18.3418 47.9202 25.1178 50.2489 30.867C52.7913 31.1262 55.0126 33.8838 55.9417 37.8125Z" fill="#E41F2D"/>
<path d="M58.3569 33.1527C57.9821 33.1527 57.6071 33.0097 57.3211 32.7236C56.7491 32.1515 56.7491 31.224 57.3211 30.6521L58.9426 29.0306C59.5147 28.4585 60.4422 28.4585 61.0141 29.0306C61.5862 29.6027 61.5862 30.5302 61.0141 31.1021L59.3926 32.7236C59.1065 33.0097 58.7317 33.1527 58.3569 33.1527Z" fill="#FE646F"/>
<path d="M57.8569 25.9512H55.5637C54.7547 25.9512 54.0989 25.2953 54.0989 24.4863C54.0989 23.6773 54.7547 23.0215 55.5637 23.0215H57.8569C58.6659 23.0215 59.3217 23.6773 59.3217 24.4863C59.3217 25.2953 58.6659 25.9512 57.8569 25.9512Z" fill="#FE646F"/>
<path d="M42.3787 20.9094C47.9735 15.3146 48.2188 6.39628 43.1147 0.509948C42.7318 0.0685417 42.0541 0.0443229 41.641 0.457409L21.9268 20.1719C21.5137 20.5849 21.5379 21.2627 21.9793 21.6455C27.8654 26.7494 36.784 26.5041 42.3787 20.9094Z" fill="#FD4755"/>
<path d="M25.7072 17.0644C25.5783 16.9526 25.4894 16.8146 25.4322 16.6665L21.9265 20.1722C21.5134 20.5853 21.5377 21.263 21.9791 21.6458C27.8654 26.7499 36.7838 26.5046 42.3785 20.9099C43.4716 19.8167 44.3578 18.5954 45.0425 17.2956C39.4306 21.9325 31.233 21.8558 25.7072 17.0644Z" fill="#FB2B3A"/>
<path d="M38.1474 18.4326C37.7726 18.4326 37.3976 18.2896 37.1117 18.0035L35.6654 16.5572C35.0933 15.9851 35.0933 15.0576 35.6654 14.4857C36.2375 13.9136 37.165 13.9136 37.7369 14.4857L39.1832 15.932C39.7552 16.5041 39.7552 17.4316 39.1832 18.0035C38.8972 18.2894 38.5222 18.4326 38.1474 18.4326Z" fill="#E41F2D"/>
<path d="M31.724 20.9237C30.915 20.9237 30.2592 20.2679 30.2592 19.4589V17.4136C30.2592 16.6046 30.915 15.9487 31.724 15.9487C32.533 15.9487 33.1888 16.6046 33.1888 17.4136V19.4589C33.1888 20.2679 32.533 20.9237 31.724 20.9237Z" fill="#E41F2D"/>
<path d="M40.9279 12.1289H38.8826C38.0736 12.1289 37.4177 11.473 37.4177 10.6641C37.4177 9.85508 38.0736 9.19922 38.8826 9.19922H40.9279C41.7369 9.19922 42.3927 9.85508 42.3927 10.6641C42.3927 11.473 41.7369 12.1289 40.9279 12.1289Z" fill="#E41F2D"/>
<path d="M32.5175 62.2431C32.5175 61.2957 32.6255 60.3734 32.8241 59.4849C29.3034 58.3685 26.964 56.164 26.964 53.7078C26.964 51.4711 28.8718 49.4097 32.0671 48.1937L32.3839 48.0732L32.1208 47.8595C31.7323 47.5443 31.3654 47.2144 31.0302 46.8793C28.9948 44.8439 27.6884 42.3242 27.3364 39.7695C25.4702 39.3636 23.6282 39.6525 22.1947 40.7422C19.4974 42.7924 19.1421 46.9939 21.1435 50.6943C17.7603 51.3039 15.1499 53.4597 14.7581 56.3345C14.4359 58.6984 15.6904 60.9945 17.8675 62.5662H32.5257C32.523 62.4584 32.5175 62.3513 32.5175 62.2431Z" fill="#80D261"/>
<path d="M52.971 62.5665C52.9878 62.5458 53.0067 62.5257 53.0233 62.505C53.0262 62.4181 53.03 62.3312 53.03 62.2435C53.03 57.9065 49.5018 54.3784 45.1649 54.3784C40.828 54.3784 37.2997 57.9065 37.2997 62.2435C37.2997 62.3519 37.3055 62.4591 37.3098 62.5665H52.971Z" fill="#017B4E"/>
<path d="M45.1649 49.5959C49.5716 49.5959 53.4569 51.8627 55.7219 55.2898C55.6536 54.0244 55.729 52.7525 55.9491 51.5C55.8016 51.2684 55.6569 51.0334 55.5177 50.7922C54.0343 48.2228 53.2399 45.4643 53.2809 43.0242C53.3214 40.6207 54.1686 38.8207 55.6665 37.9559C55.8136 37.8709 55.9661 37.7967 56.1227 37.7316C55.1313 33.5824 52.6997 30.6494 49.8567 30.6494C47.4587 30.6494 45.3546 32.7377 44.1593 35.8807C43.8475 35.4953 43.513 35.1195 43.1514 34.758C38.8048 30.4113 32.5366 29.632 29.1512 33.0174C25.7659 36.4027 26.5452 42.6709 30.8919 47.0176C31.2481 47.3738 31.6182 47.7035 31.9975 48.0113C28.8557 49.2068 26.7684 51.3105 26.7684 53.7078C26.7684 56.2992 29.2061 58.5477 32.7796 59.6764C33.9692 53.9291 39.0704 49.5959 45.1649 49.5959Z" fill="#017B4E"/>
<path d="M41.0095 60.1109C39.9661 59.9037 38.9907 59.6068 38.1075 59.2363C37.6981 60.1959 37.4782 61.2555 37.496 62.3687C37.4968 62.3695 37.4974 62.3701 37.4981 62.3709H41.4077C41.4923 62.0678 41.5983 61.7619 41.7255 61.4545C41.964 60.8773 41.622 60.2326 41.0095 60.1109Z" fill="#026841"/>
<path d="M26.7687 53.708C26.7687 56.2539 29.1206 58.4702 32.5919 59.6174C32.8611 58.3219 33.3273 57.0991 33.9546 55.9787C33.5316 55.2692 33.2997 54.5051 33.2997 53.7082C33.2997 51.6649 34.8157 49.835 37.2087 48.5989C37.8003 48.2932 37.9052 47.4989 37.4337 47.0286C37.4302 47.025 37.4267 47.0215 37.423 47.0178C33.0763 42.6711 32.297 36.403 35.6823 33.0176C36.3499 32.35 37.1308 31.8469 37.9857 31.4987C34.7005 30.3879 31.3292 30.8395 29.1511 33.0176C25.7657 36.403 26.545 42.6711 30.8917 47.0178C31.248 47.3739 31.6181 47.7037 31.9974 48.0116C28.8558 49.2069 26.7687 51.3106 26.7687 53.708Z" fill="#026841"/>
<path d="M43.7407 49.6783C44.2085 49.6255 44.6833 49.5958 45.165 49.5958C46.1982 49.5958 47.2019 49.7232 48.1638 49.9582L40.1767 41.971C39.6046 41.399 38.6771 41.399 38.1052 41.971C37.5331 42.5431 37.5331 43.4707 38.1052 44.0425L43.7407 49.6783Z" fill="#026841"/>
<path d="M85.9436 46.7271C86.3228 46.4191 86.693 46.0895 87.0492 45.7334C91.3959 41.3867 92.1752 35.1186 88.7898 31.7332C85.4045 28.3479 79.1363 29.1271 74.7896 33.4738C74.4281 33.8354 74.0937 34.2111 73.7818 34.5965C72.5865 31.4535 70.4824 29.3652 68.0844 29.3652C64.8271 29.3652 62.1096 33.2146 61.4797 38.3326C59.3617 37.1162 57.217 36.8355 55.5693 37.7869C52.3445 39.6488 52.2457 45.5152 55.3488 50.89C55.5258 51.1965 55.7115 51.4916 55.9008 51.7813C56.3701 48.8131 57.6459 45.9453 59.7459 43.5393C59.9141 43.3467 60.157 43.2361 60.4125 43.2361C60.6467 43.2361 60.867 43.3273 61.0324 43.4928L80.1061 62.5664H83.302C83.2658 61.4426 82.8754 60.2324 82.1832 59.0311C87.3121 58.4062 91.1726 55.6855 91.1726 52.4238C91.1725 50.0262 89.0853 47.9227 85.9436 46.7271Z" fill="#68CA44"/>
<path d="M79.8361 40.6864C79.264 40.1143 78.3365 40.1143 77.7646 40.6864L68.1335 50.3174L70.205 52.3889L79.8361 42.7579C80.4082 42.186 80.4082 41.2584 79.8361 40.6864Z" fill="#80D261"/>
<path d="M57.8124 62.2432C57.8124 62.2719 57.8115 62.3006 57.8105 62.3291L57.8035 62.5662H80.3822L61.1705 43.3545C60.7298 42.9139 60.0085 42.941 59.5988 43.4106C56.7257 46.7026 55.358 50.8512 55.4947 54.959C56.9523 57.02 57.8124 59.5323 57.8124 62.2432Z" fill="white"/>
<path d="M68.8218 62.5661H75.6079C76.6478 62.1347 77.6224 61.4976 78.4679 60.652L65.9618 48.146C62.5083 51.5995 62.5083 57.1985 65.9618 60.652C66.8073 61.4976 67.782 62.1347 68.8218 62.5661Z" fill="#FEDF74"/>
<path d="M68.8275 62.5661H72.1459C71.1056 62.1349 70.1306 61.4978 69.2849 60.652C66.407 57.7741 65.9297 53.4069 67.8484 50.0323L65.9621 48.146C62.5086 51.5995 62.5086 57.1985 65.9621 60.652C66.8088 61.4989 67.7857 62.1349 68.8275 62.5661Z" fill="#FED402"/>
<path d="M37.5033 62.5662C37.4988 62.459 37.4951 62.3516 37.4951 62.2432C37.4951 58.0072 40.9291 54.5734 45.1648 54.5734C49.4005 54.5734 52.8345 58.0074 52.8345 62.2432C52.8345 62.3516 52.8308 62.459 52.8263 62.5662H57.9994C58.0021 62.4586 58.0076 62.3516 58.0076 62.2432C58.0076 55.1502 52.2576 49.4004 45.1648 49.4004C38.072 49.4004 32.322 55.1504 32.322 62.2432C32.322 62.3516 32.3275 62.4584 32.3302 62.5662H37.5033Z" fill="#FED2A4"/>
<path d="M34.9406 100H63.5222C63.912 100 64.2994 99.9276 64.6597 99.7788C78.7363 93.9669 88.8165 80.4415 89.6328 64.4692C89.6912 63.3257 88.7677 62.3706 87.6224 62.3706H10.8404C9.69525 62.3706 8.77162 63.3255 8.83002 64.4692C9.64623 80.4415 19.7265 93.9669 33.8031 99.7788C34.1634 99.9276 34.5507 100 34.9406 100Z" fill="#D8ECFE"/>
<path d="M17.5383 71.833H9.89001C12.9308 84.5211 21.95 94.8846 33.8031 99.7787C34.1635 99.9275 34.5508 100 34.9406 100H42.5888C42.199 100 41.8117 99.9275 41.4513 99.7787C29.5982 94.8848 20.5791 84.5211 17.5383 71.833Z" fill="#C4E2FF"/>
<path d="M87.6224 62.3706H10.8404C9.69525 62.3706 8.77162 63.3255 8.83002 64.4692C8.95892 66.9919 9.31947 69.4532 9.88998 71.8331H88.5728C89.1431 69.4532 89.5038 66.9919 89.6328 64.4692C89.6912 63.3257 88.7675 62.3706 87.6224 62.3706Z" fill="#EAF6FF"/>
<path d="M8.83002 64.4692C8.95892 66.9919 9.31947 69.4532 9.88998 71.8331H17.5382C16.9679 69.4532 16.6072 66.9919 16.4783 64.4692C16.4199 63.3257 17.3435 62.3706 18.4886 62.3706H10.8404C9.69525 62.3706 8.77162 63.3257 8.83002 64.4692Z" fill="#D8ECFE"/>
<path d="M74.6317 9.22999C75.1189 9.09952 75.4368 8.62823 75.3704 8.12843C75.1068 6.14093 74.2124 4.2212 72.6853 2.69386C71.1581 1.16671 69.2384 0.272178 67.2509 0.00870124C66.7511 -0.0575097 66.2798 0.260459 66.1493 0.747373L63.4954 10.6517C63.295 11.3997 63.9794 12.0841 64.7275 11.8837L74.6317 9.22999Z" fill="#FE9901"/>
<path d="M67.8948 10.6519L70.4689 1.04562C69.4554 0.502061 68.3638 0.156357 67.2509 0.00870124C66.7511 -0.0575097 66.2798 0.260459 66.1493 0.747373L63.4954 10.6517C63.295 11.3997 63.9794 12.0841 64.7275 11.8837L67.8685 11.0421C67.8525 10.9173 67.8589 10.7857 67.8948 10.6519Z" fill="#FB8801"/>
</g>
<defs>
<clipPath id="clip0_46_784">
<rect width="100" height="100" fill="white"/>
</clipPath>
</defs>
</svg>
