<svg width="214" height="40" viewBox="0 0 214 40" fill="none" xmlns="http://www.w3.org/2000/svg">
<path d="M84.4776 7.85498H80V28.059H92.3955V24.1002H84.4776V7.85498Z" fill="#4845D2"/>
<path d="M92.8223 21.206C92.8223 25.5199 95.7164 28.3867 100.085 28.3867C104.426 28.3867 107.32 25.5199 107.32 21.206C107.32 16.8922 104.426 13.998 100.085 13.998C95.7164 13.998 92.8223 16.8922 92.8223 21.206ZM97.0541 21.1787C97.0541 19.131 98.2555 17.7659 100.085 17.7659C101.887 17.7659 103.088 19.131 103.088 21.1787C103.088 23.2538 101.887 24.6189 100.085 24.6189C98.2555 24.6189 97.0541 23.2538 97.0541 21.1787Z" fill="#4845D2"/>
<path d="M107.997 20.988C107.997 25.1106 110.673 27.8955 114.468 27.8955C116.297 27.8955 117.881 27.2402 118.673 26.1755V28.0593C118.673 29.9432 117.499 31.1991 115.424 31.1991C113.567 31.1991 112.284 30.3255 112.202 28.7692H107.943C108.325 32.5097 111.219 35.0215 115.178 35.0215C119.847 35.0215 122.795 31.991 122.795 27.1856V14.408H119L118.782 15.8003C118.017 14.681 116.407 13.9438 114.55 13.9438C110.728 13.9438 107.997 16.8106 107.997 20.988ZM112.257 20.8787C112.257 18.9128 113.567 17.6023 115.233 17.6023C117.171 17.6023 118.591 18.8856 118.591 20.8787C118.591 22.8718 117.198 24.237 115.26 24.237C113.594 24.237 112.257 22.8718 112.257 20.8787Z" fill="#4845D2"/>
<path d="M124.02 21.206C124.02 25.5199 126.914 28.3867 131.283 28.3867C135.624 28.3867 138.518 25.5199 138.518 21.206C138.518 16.8922 135.624 13.998 131.283 13.998C126.914 13.998 124.02 16.8922 124.02 21.206ZM128.252 21.1787C128.252 19.131 129.453 17.7659 131.283 17.7659C133.084 17.7659 134.286 19.131 134.286 21.1787C134.286 23.2538 133.084 24.6189 131.283 24.6189C129.453 24.6189 128.252 23.2538 128.252 21.1787Z" fill="#4845D2"/>
<path d="M142.144 12.278C143.454 12.278 144.519 11.2132 144.519 9.87534C144.519 8.5375 143.454 7.5 142.144 7.5C140.806 7.5 139.741 8.5375 139.741 9.87534C139.741 11.2132 140.806 12.278 142.144 12.278ZM140.014 28.059H144.246V14.4076H140.014V28.059Z" fill="#4845D2"/>
<path d="M146.709 34.6116H150.859V26.6938C151.65 27.7313 153.453 28.4412 155.336 28.4412C159.404 28.4412 161.861 25.3287 161.753 21.0148C161.643 16.6191 159.104 13.9707 155.309 13.9707C153.37 13.9707 151.541 14.8171 150.776 16.0731L150.558 14.4076H146.709V34.6116ZM150.94 21.2332C150.94 19.1856 152.305 17.8205 154.271 17.8205C156.264 17.8205 157.52 19.2128 157.52 21.2332C157.52 23.2537 156.264 24.6461 154.271 24.6461C152.305 24.6461 150.94 23.281 150.94 21.2332Z" fill="#4845D2"/>
<path d="M162.202 23.7451C162.311 26.5027 164.496 28.4138 167.936 28.4138C171.24 28.4138 173.533 26.6665 173.533 23.8543C173.533 21.834 172.332 20.4961 170.092 19.95L167.663 19.3493C166.79 19.131 166.243 18.9125 166.243 18.2026C166.243 17.4927 166.816 17.0286 167.663 17.0286C168.618 17.0286 169.246 17.6566 169.22 18.5848H173.015C172.905 15.7453 170.748 13.9707 167.745 13.9707C164.715 13.9707 162.448 15.7727 162.448 18.503C162.448 20.3322 163.458 21.834 166.161 22.5438L168.563 23.1717C169.273 23.3628 169.573 23.6905 169.573 24.1546C169.573 24.8372 168.946 25.2741 167.881 25.2741C166.652 25.2741 165.997 24.7007 165.997 23.7451H162.202Z" fill="#4845D2"/>
<path d="M179.968 28.414C181.635 28.414 183.3 27.6495 184.146 26.5301L184.42 28.0591H188.378V14.4077H184.173V21.5065C184.173 23.5541 183.573 24.6735 181.635 24.6735C180.132 24.6735 179.15 23.991 179.15 21.4518V14.4077H174.945V22.9807C174.945 26.2298 176.747 28.414 179.968 28.414Z" fill="#4845D2"/>
<path d="M195.046 28.0593V20.6057C195.046 18.3122 196.275 17.657 197.476 17.657C198.814 17.657 199.688 18.4761 199.688 20.1688V28.0593H203.838V20.6057C203.838 18.285 205.039 17.6297 206.24 17.6297C207.578 17.6297 208.479 18.4487 208.479 20.1688V28.0593H212.575V19.1313C212.575 16.0188 210.936 13.9438 207.414 13.9438C205.449 13.9438 203.838 14.8993 203.128 16.3737C202.309 14.8993 200.889 13.9438 198.623 13.9438C197.121 13.9438 195.729 14.6263 194.91 15.7185L194.746 14.408H190.814V28.0593H195.046Z" fill="#4845D2"/>
<path d="M0 20C0 8.9543 8.9543 0 20 0H46.25C57.2958 0 66.25 8.9543 66.25 20V40H20C8.9543 40 0 31.0458 0 20Z" fill="#4845D2"/>
<path d="M46.25 7.5H20C13.0964 7.5 7.5 13.0964 7.5 20C7.5 26.9036 13.0964 32.5 20 32.5H46.25C53.1536 32.5 58.75 26.9036 58.75 20C58.75 13.0964 53.1536 7.5 46.25 7.5Z" fill="#A5B4FC"/>
<path d="M20 26.25C23.4518 26.25 26.25 23.4518 26.25 20C26.25 16.5482 23.4518 13.75 20 13.75C16.5482 13.75 13.75 16.5482 13.75 20C13.75 23.4518 16.5482 26.25 20 26.25Z" fill="#101012"/>
<path d="M17.5 18.75C18.1904 18.75 18.75 18.1904 18.75 17.5C18.75 16.8096 18.1904 16.25 17.5 16.25C16.8096 16.25 16.25 16.8096 16.25 17.5C16.25 18.1904 16.8096 18.75 17.5 18.75Z" fill="white"/>
<path d="M47.5 26.25C50.9518 26.25 53.75 23.4518 53.75 20C53.75 16.5482 50.9518 13.75 47.5 13.75C44.0482 13.75 41.25 16.5482 41.25 20C41.25 23.4518 44.0482 26.25 47.5 26.25Z" fill="#101012"/>
<path d="M45 18.75C45.6904 18.75 46.25 18.1904 46.25 17.5C46.25 16.8096 45.6904 16.25 45 16.25C44.3096 16.25 43.75 16.8096 43.75 17.5C43.75 18.1904 44.3096 18.75 45 18.75Z" fill="white"/>
</svg>
