<svg width="182" height="40" viewBox="0 0 182 40" fill="none" xmlns="http://www.w3.org/2000/svg">
<g clip-path="url(#clip0_46_932)">
<path fill-rule="evenodd" clip-rule="evenodd" d="M57.5994 2.66237C57.5994 1.30687 58.7102 0.208008 60.0806 0.208008H64.4032C65.3785 0.208008 66.3238 0.542348 67.0779 1.15412L68.3928 2.22073L68.4257 2.2504C68.456 2.24027 68.4864 2.23038 68.5168 2.22073C70.8891 1.46913 73.7674 1.32619 76.705 1.32619C79.6427 1.32619 82.5209 1.46913 84.8932 2.22073C84.9237 2.23038 84.954 2.24027 84.9843 2.2504L85.0172 2.22073L86.3321 1.15412C87.0863 0.542348 88.0316 0.208008 89.0069 0.208008H93.3294C94.6999 0.208008 95.8107 1.30687 95.8107 2.66237V4.17962C95.8107 5.35352 95.3108 6.47312 94.4335 7.26376L93.3727 8.21984C92.8549 8.68659 92.2333 9.02628 91.5582 9.21147L91.3073 9.28031C92.2902 11.6002 92.8332 14.08 92.8332 16.0861C92.8332 24.1558 87.7855 27.6409 83.3379 30.7118C79.8354 33.1301 76.705 35.2914 76.705 39.2324C76.705 35.2914 73.5747 33.1301 70.0721 30.7118C65.6245 27.6409 60.5768 24.1558 60.5768 16.0861C60.5768 14.08 61.1199 11.6002 62.1028 9.28031L61.8519 9.21147C61.1767 9.02628 60.5552 8.68659 60.0373 8.21984L58.9765 7.26376C58.0993 6.47312 57.5994 5.35352 57.5994 4.17962V2.66237ZM79.9307 22.6834C79.9307 23.0689 79.7607 23.4386 79.4583 23.7113C79.1559 23.9839 78.7456 24.137 78.3178 24.137C77.9485 24.137 77.5922 24.0228 77.3072 23.8161C77.7924 25.101 79.0343 26.3185 80.9232 24.3606C82.5907 22.5414 80.849 18.7044 79.1522 16.4276C78.5867 15.6686 77.6582 15.3034 76.705 15.3034C75.7519 15.3034 74.8234 15.6686 74.2578 16.4276C72.561 18.7044 70.8194 22.5414 72.4869 24.3606C74.3758 26.3185 75.6176 25.101 76.1029 23.8161C75.8178 24.0228 75.4615 24.137 75.0922 24.137C74.6644 24.137 74.2542 23.9839 73.9518 23.7113C73.6493 23.4386 73.4794 23.0689 73.4794 22.6834H79.9307ZM70.5287 11.3252H66.0357L69.5766 14.1298C70.3559 14.7469 71.4948 14.5496 71.9769 13.714C72.5857 12.659 71.7771 11.3252 70.5287 11.3252ZM82.8813 11.3252H87.3744L83.8334 14.1298C83.0542 14.7469 81.9153 14.5496 81.4331 13.714C80.8243 12.659 81.6329 11.3252 82.8813 11.3252Z" fill="#72B800"/>
<path d="M101.16 27.8497H105.141V12.8351H101.16V27.8497ZM101.16 10.4936H105.141V6.92285H101.16V10.4936Z" fill="#355030"/>
<path d="M107.707 32.7672H111.687V26.1526H111.746C112.594 27.4404 113.97 28.2892 116.077 28.2892C119.941 28.2892 122.575 25.216 122.575 20.3575C122.575 15.6746 120.028 12.4258 116.048 12.4258C113.999 12.4258 112.594 13.3916 111.628 14.7087H111.541V12.8355H107.707V32.7672ZM115.228 24.9819C112.858 24.9819 111.599 23.1965 111.599 20.4746C111.599 17.7819 112.594 15.6453 115.082 15.6453C117.541 15.6453 118.536 17.6355 118.536 20.4746C118.536 23.3136 117.248 24.9819 115.228 24.9819Z" fill="#355030"/>
<path d="M130.516 28.2892C134.262 28.2892 136.838 26.4746 136.838 23.4599C136.838 19.9477 134.057 19.2453 131.54 18.7185C129.403 18.2794 127.413 18.1624 127.413 16.8746C127.413 15.7916 128.438 15.2063 129.989 15.2063C131.686 15.2063 132.711 15.7916 132.886 17.4014H136.486C136.194 14.3868 133.999 12.4258 130.047 12.4258C126.623 12.4258 123.93 13.977 123.93 17.2258C123.93 20.5038 126.564 21.2355 129.257 21.7624C131.306 22.1721 133.208 22.3185 133.208 23.7526C133.208 24.8063 132.213 25.4794 130.457 25.4794C128.672 25.4794 127.442 24.7185 127.179 22.9916H123.491C123.725 26.1819 126.155 28.2892 130.516 28.2892Z" fill="#355030"/>
<path d="M151.951 27.8496V12.835H147.971V21.4984C147.971 23.4886 146.829 24.8935 144.956 24.8935C143.259 24.8935 142.468 23.9276 142.468 22.1715V12.835H138.517V22.8447C138.517 26.1228 140.39 28.2594 143.727 28.2594C145.834 28.2594 147.005 27.4691 148.029 26.0935H148.117V27.8496H151.951Z" fill="#355030"/>
<path d="M154.526 27.8502H158.507V19.1282C158.507 17.138 159.59 15.8502 161.2 15.8502C162.663 15.8502 163.512 16.7282 163.512 18.4258V27.8502H167.492V19.1282C167.492 17.138 168.517 15.8502 170.185 15.8502C171.648 15.8502 172.497 16.7282 172.497 18.4258V27.8502H176.478V17.7526C176.478 14.4746 174.692 12.4258 171.531 12.4258C169.629 12.4258 168.048 13.4209 167.024 15.0599H166.965C166.234 13.4794 164.712 12.4258 162.809 12.4258C160.731 12.4258 159.268 13.4794 158.448 14.855H158.361V12.8355H154.526V27.8502Z" fill="#355030"/>
<path d="M0.668945 27.8497H4.64943V6.92285H0.668945V27.8497Z" fill="#355030"/>
<path d="M14.382 28.2892C19.0357 28.2892 22.2259 24.8355 22.2259 20.3575C22.2259 15.8794 19.0357 12.4258 14.382 12.4258C9.72833 12.4258 6.53809 15.8794 6.53809 20.3575C6.53809 24.8355 9.72833 28.2892 14.382 28.2892ZM14.382 25.2453C11.9235 25.2453 10.5772 23.2843 10.5772 20.3575C10.5772 17.4307 11.9235 15.4404 14.382 15.4404C16.8113 15.4404 18.1869 17.4307 18.1869 20.3575C18.1869 23.2843 16.8113 25.2453 14.382 25.2453Z" fill="#355030"/>
<path d="M30.6911 32.9721C32.9155 32.9721 34.8472 32.4453 36.1057 31.2746C37.2179 30.2502 37.8911 28.816 37.8911 26.7087V12.8355H34.0569V14.416H33.9984C33.0911 13.1575 31.7155 12.4258 29.8423 12.4258C26.0374 12.4258 23.3447 15.2941 23.3447 19.7721C23.3447 24.3087 26.6228 26.9429 29.9594 26.9429C31.8618 26.9429 33.0033 26.1819 33.8813 25.1868H33.9691V26.8258C33.9691 28.8746 32.8862 29.9575 30.6325 29.9575C28.7886 29.9575 27.9398 29.2258 27.6179 28.2892H23.6667C24.0764 31.216 26.5935 32.9721 30.6911 32.9721ZM30.6325 23.7526C28.5838 23.7526 27.2374 22.2599 27.2374 19.7136C27.2374 17.1965 28.5838 15.616 30.6033 15.616C33.0033 15.616 34.174 17.4892 34.174 19.6843C34.174 21.9087 33.1496 23.7526 30.6325 23.7526Z" fill="#355030"/>
<path d="M47.5656 28.2892C52.2192 28.2892 55.4095 24.8355 55.4095 20.3575C55.4095 15.8794 52.2192 12.4258 47.5656 12.4258C42.9119 12.4258 39.7217 15.8794 39.7217 20.3575C39.7217 24.8355 42.9119 28.2892 47.5656 28.2892ZM47.5656 25.2453C45.107 25.2453 43.7607 23.2843 43.7607 20.3575C43.7607 17.4307 45.107 15.4404 47.5656 15.4404C49.9948 15.4404 51.3705 17.4307 51.3705 20.3575C51.3705 23.2843 49.9948 25.2453 47.5656 25.2453Z" fill="#355030"/>
<path d="M176.296 9.5574C176.296 8.88388 176.841 8.33789 177.515 8.33789H179.954C180.627 8.33789 181.174 8.88388 181.174 9.5574C181.174 10.2309 180.627 10.7769 179.954 10.7769H177.515C176.841 10.7769 176.296 10.2309 176.296 9.5574Z" fill="#355030"/>
</g>
<defs>
<clipPath id="clip0_46_932">
<rect width="181.463" height="40" fill="white"/>
</clipPath>
</defs>
</svg>
