<svg width="64" height="40" viewBox="0 0 64 40" fill="none" xmlns="http://www.w3.org/2000/svg">
<g clip-path="url(#clip0_46_892)">
<path d="M59.5712 4.91685C59.5712 4.96349 59.5712 5.02179 59.5593 5.05677C59.4997 5.51151 59.4997 5.96624 59.5354 6.43264C59.5593 6.54924 59.5831 6.66584 59.6786 6.75913C59.8336 6.93402 60.072 6.89904 60.1675 6.68916C60.2152 6.58423 60.2152 6.47928 60.1913 6.37435C60.072 5.93126 60.0482 5.46487 60.0363 5.01013C60.0363 4.98681 60.0363 4.95183 60.0363 4.91685C60.1675 4.90519 60.2868 4.89353 60.394 4.89353C60.4776 4.88187 60.5491 4.87021 60.6088 4.83523C60.7876 4.74195 60.7876 4.54374 60.5968 4.45045C60.5252 4.41547 60.4299 4.40381 60.3464 4.40381C60.0482 4.41547 59.7501 4.41547 59.4519 4.41547C59.3447 4.41547 59.2373 4.42714 59.1299 4.43879C59.0703 4.45045 58.9988 4.45045 58.9511 4.48544C58.8676 4.52041 58.8199 4.57871 58.8199 4.66033C58.8319 4.74195 58.8676 4.78859 58.9511 4.82357C58.9988 4.85855 59.0584 4.87021 59.118 4.87021C59.2611 4.88187 59.4162 4.90519 59.5712 4.91685ZM62.8507 5.45321C62.8507 5.46487 62.8626 5.47653 62.8626 5.47653C62.9103 5.79134 62.958 6.09451 62.9938 6.39766C63.0058 6.5026 63.0177 6.59588 63.0892 6.6775C63.2442 6.87572 63.4828 6.8524 63.59 6.64253C63.6378 6.53758 63.6497 6.43264 63.6259 6.31604C63.5543 5.96624 63.5185 5.61644 63.4469 5.27831C63.3992 5.06843 63.3397 4.87021 63.28 4.68365C63.2442 4.56705 63.1608 4.48543 63.0177 4.47377C62.8746 4.45045 62.7672 4.52041 62.7076 4.62535C62.636 4.71863 62.5764 4.81191 62.5287 4.91685C62.4452 5.10341 62.3737 5.28997 62.2783 5.46487C62.2663 5.51151 62.2544 5.54649 62.2306 5.58146C62.2187 5.55814 62.2068 5.54649 62.2068 5.54649C62.0517 5.25499 61.9086 4.96349 61.7536 4.68365C61.7297 4.66033 61.7178 4.63701 61.7059 4.61369C61.6343 4.50875 61.5509 4.45045 61.4197 4.45045C61.3004 4.46211 61.2049 4.53207 61.1454 4.63701C61.1215 4.68365 61.1215 4.71863 61.1096 4.76527C61.0619 5.13839 61.0022 5.51151 60.9546 5.88463C60.9307 6.09451 60.9188 6.30438 60.9188 6.51426C60.9069 6.5609 60.9188 6.6192 60.9426 6.66584C60.9665 6.75912 61.038 6.81743 61.1334 6.82908C61.2527 6.84074 61.3361 6.80576 61.3719 6.71248C61.4077 6.64253 61.4197 6.58423 61.4316 6.52593C61.4793 6.31604 61.515 6.11783 61.5509 5.91961C61.5747 5.80301 61.5866 5.70973 61.6224 5.58146C61.6462 5.62811 61.67 5.66309 61.6939 5.69806C61.8012 5.83799 61.9086 5.97791 62.0398 6.09451C62.1709 6.18778 62.2783 6.17613 62.3856 6.07118C62.4095 6.04786 62.4214 6.03621 62.4452 6.01288C62.5526 5.84964 62.6838 5.68641 62.791 5.52316C62.8149 5.49984 62.8269 5.47653 62.8507 5.45321Z" fill="#101012"/>
<path d="M35.3714 5.14563C35.2885 5.36722 35.2726 5.52687 35.3109 5.65956C35.3532 5.83999 35.4629 5.89907 35.6118 5.85317C37.0125 5.51451 40.0841 6.47578 41.2213 6.7437C41.4895 6.79996 41.7076 6.46146 41.5246 6.15797C41.2575 5.86406 38.1874 4.60572 37.0159 4.53711C36.5567 4.51174 35.7358 4.39661 35.3714 5.14563Z" fill="#101012"/>
<path d="M47.3753 1.07274C47.5246 1.15698 47.608 1.23735 47.6492 1.32714C47.7106 1.44492 47.6782 1.52641 47.5751 1.56799C46.6492 2.00983 45.4171 3.91202 44.9198 4.56807C44.7992 4.71898 44.5211 4.63128 44.4791 4.3831C44.4878 4.10248 45.5799 2.03818 46.1895 1.47594C46.429 1.25642 46.8248 0.8257 47.3753 1.07274Z" fill="#101012"/>
<path d="M40.0008 0.136178C40.1802 0.00401716 40.3666 -0.042296 40.4618 0.043592C41.8588 1.21173 42.5996 3.06157 43.0583 4.75506C43.0756 4.79452 43.0767 4.85114 43.0628 4.9102C43.0571 4.96068 43.0194 5.01401 42.9595 5.05527C42.8955 5.10083 42.8404 5.1147 42.8145 5.07545C42.2022 4.2612 38.7052 1.09311 40.0008 0.136178Z" fill="#101012"/>
<path d="M10.4191 20.3888C10.7539 20.145 11.1179 19.9421 11.5031 19.7847C11.9061 19.672 12.3356 19.6907 12.7268 19.838C13.1179 19.9852 13.4495 20.253 13.6711 20.6008C13.8694 20.9477 13.9469 21.3482 13.8922 21.742C13.8375 22.1358 13.6534 22.5015 13.3675 22.7841C13.146 23.0132 12.8945 23.2128 12.6196 23.3777C11.3947 24.1514 10.1589 24.8827 8.92315 25.6564C8.67029 25.85 8.40205 26.0238 8.12098 26.1758C7.69346 26.3842 7.20488 26.44 6.73971 26.3336C6.27455 26.2272 5.86205 25.9651 5.57356 25.5929C5.3579 25.3292 5.17589 25.041 5.03155 24.7343C3.86083 22.3284 2.64675 19.933 1.51937 17.4847C0.999045 16.4249 0.576285 15.206 0.164362 14.0295C-0.0138551 13.6877 -0.0486568 13.2914 0.067367 12.9249C0.183391 12.5583 0.441086 12.2505 0.785637 12.0669C1.13019 11.8832 1.53441 11.8383 1.91234 11.9416C2.29026 12.0449 2.61208 12.2882 2.80934 12.6199C3.41565 13.4077 3.95237 14.2445 4.41367 15.1212C5.5844 17.241 6.70094 19.3607 7.8283 21.4169C7.89395 21.5305 7.96633 21.6401 8.0451 21.7454C8.89364 21.3966 9.69173 20.9405 10.4191 20.3888Z" fill="#101012"/>
<path d="M22.5226 19.649C19.8451 22.712 15.3573 21.9383 13.1026 17.9955C11.4982 15.1974 11.2164 10.5763 14.707 7.66168C15.4523 7.05148 16.3436 6.63579 17.2977 6.45341C18.4675 6.28944 19.6604 6.49122 20.7059 7.02993C21.7513 7.56864 22.5959 8.41668 23.1189 9.45289C25.0267 12.8445 24.7557 17.1688 22.5226 19.649ZM21.4386 12.5053C21.1541 11.6719 20.5835 10.9603 19.8234 10.4915C19.3933 10.1918 18.8707 10.0461 18.3436 10.0789C17.8164 10.1117 17.317 10.3211 16.9291 10.6717C15.3791 12.0178 15.0538 15.2081 16.1811 17.1053C16.3249 17.4146 16.5359 17.6895 16.7996 17.9108C17.0633 18.1321 17.3733 18.2943 17.7079 18.3862C18.0424 18.4781 18.3934 18.4973 18.7364 18.4427C19.0794 18.388 19.406 18.2607 19.6934 18.0697C20.5337 17.4327 21.1501 16.5556 21.4571 15.5603C21.7641 14.565 21.7462 13.5009 21.4061 12.516L21.4386 12.5053Z" fill="#101012"/>
<path d="M33.4496 13.8409C33.1755 13.8986 32.8924 13.902 32.6168 13.851C32.3414 13.8 32.079 13.6958 31.8454 13.5442C31.6409 13.4299 31.4649 13.2727 31.33 13.0839C31.1952 12.895 31.1048 12.6794 31.0655 12.4523C31.026 12.2253 31.0386 11.9926 31.1022 11.7709C31.1658 11.5491 31.279 11.3439 31.4335 11.17C31.7025 10.8206 32.0845 10.5704 32.5175 10.4599C33.6477 10.1392 34.8113 9.94368 35.9863 9.87704C36.2445 9.84768 36.506 9.86904 36.7555 9.93986C37.0052 10.0108 37.2377 10.1296 37.4397 10.2896C37.6416 10.4495 37.8089 10.6473 37.9316 10.8713C38.0543 11.0953 38.13 11.341 38.1543 11.594C38.493 12.8368 38.5301 14.1398 38.2626 15.399C37.2871 19.4689 33.9266 20.8679 30.1543 19.5643C29.0954 19.2158 28.1669 18.5663 27.4876 17.6989C26.5816 16.6544 25.9393 15.4165 25.6123 14.0848C25.3474 12.8989 25.3764 11.6683 25.697 10.4957C26.0175 9.32304 26.6204 8.24236 27.4551 7.3439C28.2473 6.36738 29.2755 5.59887 30.447 5.10755C31.1873 4.70859 32.0535 4.59516 32.8752 4.78958C33.0615 4.84002 33.2307 4.93829 33.3652 5.07421C33.4996 5.21014 33.5945 5.37875 33.6398 5.56258C33.6852 5.74639 33.6794 5.93873 33.6231 6.11964C33.5667 6.30054 33.462 6.46342 33.3196 6.59138C33.0489 6.83098 32.7548 7.04398 32.4415 7.22731C31.4778 7.82738 30.6392 8.6006 29.97 9.50604C29.5314 10.0919 29.2293 10.7648 29.0851 11.477C28.9408 12.1893 28.958 12.9239 29.1354 13.629C29.3812 14.5905 29.9267 15.4535 30.6963 16.0985C33.0811 18.2183 36.1814 16.1727 35.6394 13.2792C34.8481 13.47 34.1543 13.6714 33.4496 13.8409Z" fill="#101012"/>
<path d="M48.02 19.8186C44.497 21.9384 40.4862 19.8186 39.6081 15.3671C38.9686 12.1875 40.1827 7.73595 44.432 6.04014C45.3361 5.6871 46.3168 5.56314 47.2829 5.67978C48.4438 5.88755 49.5087 6.44631 50.3274 7.27728C51.1461 8.10824 51.6776 9.16948 51.8466 10.3115C52.562 14.0952 50.936 18.1334 48.02 19.8186ZM49.245 12.6856C49.2439 11.8051 48.9254 10.9531 48.3453 10.2797C48.0352 9.86312 47.5869 9.56466 47.0769 9.43512C46.5668 9.30566 46.0268 9.35312 45.5485 9.56957C43.6407 10.375 42.2965 13.3003 42.7843 15.4519C42.8216 15.7896 42.9338 16.1152 43.1131 16.406C43.2925 16.6968 43.5347 16.9458 43.8228 17.1357C44.1108 17.3254 44.4378 17.4514 44.7808 17.5048C45.1238 17.558 45.4747 17.5375 45.8087 17.4445C46.8171 17.1 47.6903 16.4563 48.3063 15.6031C48.9224 14.7499 49.2506 13.7299 49.245 12.6856Z" fill="#101012"/>
<path d="M55.4093 20.7091C55.3561 21.097 55.1475 21.4484 54.8294 21.6859C54.5112 21.9234 54.1095 22.0277 53.7128 21.9757C53.3161 21.9237 52.9567 21.7197 52.7138 21.4086C52.4708 21.0976 52.3643 20.7048 52.4174 20.3169C52.4706 19.929 52.6793 19.5777 52.9973 19.3401C53.3155 19.1026 53.7172 18.9984 54.1139 19.0504C54.5106 19.1024 54.87 19.3063 55.113 19.6174C55.3559 19.9285 55.4625 20.3212 55.4093 20.7091ZM54.4662 6.41128C54.6723 6.10341 54.9748 5.86897 55.3284 5.7429C55.682 5.61684 56.0678 5.60591 56.4283 5.71176C56.7947 5.8014 57.1184 6.01141 57.3454 6.30662C57.5724 6.60184 57.6886 6.96432 57.6749 7.33338C57.6271 7.92535 57.5365 8.51328 57.4039 9.09276C57.0462 11.0536 56.6993 13.0143 56.3199 14.9539C56.1464 15.7277 55.9188 16.4696 55.6694 17.2538C55.5827 17.499 55.4378 17.7206 55.2467 17.9004C55.1279 18.0357 54.9762 18.1394 54.8054 18.202C54.6347 18.2648 54.4506 18.2843 54.2702 18.2589C54.0897 18.2336 53.9186 18.1641 53.7729 18.057C53.6272 17.9498 53.5114 17.8085 53.4364 17.646C53.3075 17.3546 53.2375 17.0414 53.2304 16.7239C53.2304 15.4097 53.2304 14.0848 53.3172 12.7599C53.4645 10.8692 53.7544 8.99165 54.1844 7.14259C54.235 6.89487 54.3303 6.65797 54.4662 6.44308V6.41128Z" fill="#101012"/>
<path fill-rule="evenodd" clip-rule="evenodd" d="M5.83876 29.2262C5.71077 29.5056 5.67567 29.817 5.73821 30.1168C5.77982 30.5119 5.87121 30.9005 6.0103 31.2738C6.18396 31.7309 6.37828 32.1829 6.61788 32.74C6.67298 32.8681 6.73056 33.002 6.79081 33.1428C7.11392 33.8975 7.51934 34.8621 8.06011 36.258C8.21318 36.6545 8.34909 37.0543 8.48597 37.4569C8.54126 37.6195 8.59675 37.7827 8.65355 37.9462C8.85715 38.5277 9.20748 39.0501 9.67184 39.4641C9.86902 39.6916 10.1306 39.8574 10.4238 39.9403C10.7228 40.0249 11.0408 40.0195 11.3367 39.925C11.6325 39.8303 11.8923 39.6509 12.0824 39.4099C12.2687 39.1736 12.3796 38.8889 12.4011 38.5914C12.522 38.012 12.4807 37.4111 12.2815 36.8525C11.9652 35.925 11.6049 34.9961 11.1895 34.0875L11.1876 34.0835C10.5041 32.662 9.80939 31.2504 9.08179 29.8382L9.07634 29.8283C8.86334 29.4604 8.58653 29.1315 8.25835 28.8564C8.04529 28.6109 7.75141 28.4452 7.42687 28.3881C7.0954 28.3299 6.75355 28.3886 6.46233 28.554C6.18684 28.7078 5.96846 28.9431 5.83876 29.2262Z" fill="#101012"/>
<path fill-rule="evenodd" clip-rule="evenodd" d="M16.2788 25.726C15.2072 25.4546 14.088 25.4151 12.9993 25.6101C12.156 25.6913 11.3266 25.8815 10.7507 26.2582C10.4578 26.45 10.221 26.6961 10.0893 27.0091C9.9568 27.3237 9.93989 27.6835 10.0484 28.0844C10.2466 28.8188 10.504 29.5328 10.7604 30.2445L10.802 30.3598L10.803 30.3623C11.5752 32.43 12.3547 34.4906 13.1413 36.5441C13.2331 36.8678 13.3628 37.18 13.5279 37.4744L13.531 37.4799C13.7491 37.8457 14.0288 38.1729 14.3583 38.4477C14.5232 38.5988 14.727 38.7033 14.948 38.7501C15.1712 38.7971 15.4033 38.7835 15.619 38.7104C15.8348 38.6374 16.0259 38.5079 16.1715 38.3359C16.3148 38.1667 16.4086 37.9629 16.4431 37.746C16.5853 37.1567 16.5397 36.539 16.3124 35.9757C16.2415 35.7861 16.1859 35.5924 16.1273 35.3885C16.1077 35.3205 16.0879 35.2513 16.067 35.1809C17.8676 34.4927 19.7835 33.5673 20.4573 31.4146C20.7211 30.6707 20.7431 29.8651 20.5202 29.1084C20.2971 28.3509 19.8393 27.6794 19.2101 27.1865C18.3536 26.4965 17.3532 25.998 16.2788 25.726ZM13.3083 28.3664C13.3438 28.3564 13.3795 28.3471 13.4153 28.3385C14.5876 28.1583 15.787 28.3984 16.7926 29.0144C17.2358 29.3158 17.4173 29.6506 17.4485 29.9728C17.4807 30.3045 17.3573 30.664 17.1095 31.0095C16.6413 31.6622 15.7867 32.1847 15.0148 32.2821C14.4521 31.015 13.8806 29.6966 13.3083 28.3664Z" fill="#101012"/>
<path d="M23.4209 23.4066C24.697 22.8303 26.2779 22.7307 27.5149 23.1359C27.8264 23.2247 28.0967 23.4166 28.2795 23.6788C28.4611 23.9395 28.545 24.2536 28.517 24.5676C28.5151 24.7714 28.464 24.9719 28.3677 25.1528C28.2697 25.337 28.1278 25.4954 27.954 25.6147C27.7801 25.7338 27.5795 25.8105 27.369 25.8378C27.1585 25.8653 26.9444 25.8427 26.7447 25.7721L26.7295 25.7667L26.7152 25.7594C26.613 25.7071 26.5045 25.6677 26.3922 25.6421L26.3851 25.6406C25.5149 25.4146 24.6941 25.789 24.3943 26.2491C24.2513 26.4685 24.2336 26.6899 24.3527 26.8914C24.4802 27.1071 24.793 27.3492 25.426 27.5217C25.6001 27.5685 25.7786 27.6136 25.9596 27.6594C26.4601 27.7861 26.9803 27.9177 27.4833 28.1002L27.4852 28.1009C29.8058 28.9642 30.6699 30.7521 30.374 32.4337C30.0814 34.0967 28.661 35.6102 26.5249 35.9672C25.7476 36.1357 24.9387 36.1028 24.1782 35.872C23.4159 35.6405 22.7287 35.218 22.185 34.6464L22.1708 34.6315C21.9991 34.4161 21.8837 34.1631 21.8325 33.8947C21.7854 33.6524 21.8102 33.402 21.9039 33.173C21.997 32.9454 22.1544 32.7484 22.3576 32.6048C22.5722 32.4421 22.831 32.3445 23.1018 32.3241C23.3717 32.3038 23.6418 32.3612 23.8788 32.489C24.1155 32.6008 24.3357 32.7435 24.5333 32.9131L24.537 32.9162C24.8867 33.2288 25.3097 33.3103 25.7153 33.2348C26.1269 33.1583 26.5139 32.9202 26.7628 32.6043C27.01 32.2904 27.1093 31.9175 26.9915 31.5555C26.873 31.1908 26.5165 30.7823 25.7333 30.4407C25.5286 30.3557 25.3163 30.2872 25.0955 30.2205C25.036 30.2025 24.9754 30.1846 24.9141 30.1664C24.7509 30.1179 24.5829 30.068 24.4181 30.013C24.3047 29.9752 24.1921 29.9394 24.0807 29.9038C23.776 29.8068 23.479 29.7123 23.1932 29.5855C22.5711 29.3784 22.0337 28.9807 21.6609 28.4514C21.2865 27.9199 21.0981 27.2844 21.1238 26.6397C21.1258 25.0685 22.1379 23.986 23.4209 23.4066Z" fill="#101012"/>
<path d="M39.6008 23.2393C39.3533 23.1212 39.0797 23.0651 38.8046 23.0761C38.5294 23.0872 38.2614 23.165 38.0248 23.3027C37.7896 23.4394 37.5927 23.6309 37.4516 23.8601C37.3223 24.0531 37.2327 24.2689 37.1881 24.4955C37.1434 24.722 37.1445 24.9547 37.1912 25.1806C37.2373 25.471 37.2883 25.7533 37.3388 26.0318C37.4223 26.4926 37.5036 26.9431 37.5573 27.4023L37.5593 27.414C37.6813 28.1342 37.7453 28.8627 37.751 29.5927L37.7515 29.6031C37.7933 30.3914 37.5185 31.1644 36.9863 31.7581L36.9778 31.7686C36.8046 31.9856 36.5731 32.1512 36.309 32.247C36.045 32.3427 35.759 32.3647 35.4829 32.3105C35.2068 32.2563 34.9516 32.1282 34.7458 31.9402C34.54 31.7523 34.3915 31.5114 34.3174 31.2459C34.1593 30.6862 34.0677 30.1104 34.0444 29.5302L34.3146 25.3245C34.3186 25.2696 34.3232 25.2132 34.3278 25.1563C34.3381 25.0286 34.3486 24.8985 34.353 24.7772C34.3593 24.5986 34.3539 24.415 34.3113 24.2412C34.2678 24.0635 34.185 23.8945 34.0381 23.7506C33.8926 23.6082 33.6963 23.5031 33.4492 23.4315C33.0023 23.3051 32.6245 23.3091 32.3097 23.4397C31.9947 23.5703 31.7789 23.8129 31.6262 24.0931C31.4746 24.3709 31.3773 24.6998 31.3036 25.0292C31.249 25.2737 31.2051 25.5303 31.1633 25.7746C31.1489 25.8588 31.1348 25.9414 31.1205 26.0217L31.1202 26.0241C30.8969 27.3637 30.8304 28.7239 30.9221 30.0782C30.9392 30.8102 31.0953 31.5326 31.3825 32.2087C31.7066 33.0811 32.2936 33.8369 33.0661 34.3764C33.8402 34.9171 34.7639 35.215 35.715 35.2307C36.6661 35.2464 37.5996 34.9792 38.392 34.4646C39.1831 33.9507 39.7962 33.2142 40.1502 32.3524C40.6453 31.2547 40.8779 30.0609 40.8299 28.862C40.8008 27.9867 40.7521 27.1047 40.7036 26.2272C40.6798 25.7967 40.6561 25.3672 40.6348 24.9402C40.6241 24.5122 40.4797 24.0975 40.221 23.752C40.0609 23.5335 39.8478 23.3573 39.6008 23.2393Z" fill="#101012"/>
<path d="M48.3602 29.834C48.3351 29.8652 48.3086 29.8975 48.281 29.931C48.0797 28.7957 47.8932 27.6608 47.7064 26.5242C47.6394 26.1164 47.572 25.7068 47.5043 25.2985L47.4966 25.2529L47.4719 25.2135C47.4253 25.1395 47.4206 25.0668 47.4206 24.9119V24.894L47.4178 24.8763C47.3673 24.5564 47.2193 24.2586 46.9932 24.0221C46.7677 23.7862 46.4749 23.622 46.1528 23.5507C45.8313 23.4732 45.4934 23.4903 45.1816 23.5999C44.8707 23.7093 44.5997 23.9058 44.4025 24.1649C44.2385 24.3637 44.104 24.5843 44.0033 24.8199C43.7746 25.3275 43.544 25.8365 43.3127 26.3467L43.3087 26.3555C42.7314 27.6295 42.1501 28.9119 41.5857 30.2045L41.584 30.2086C41.2375 31.0467 40.9515 31.9298 40.6665 32.8102C40.6096 32.9859 40.5527 33.1615 40.4954 33.3367C40.3925 33.6145 40.3475 33.9096 40.3629 34.2046C40.3442 34.4687 40.4088 34.7322 40.5483 34.9594C40.6905 35.1912 40.9035 35.3735 41.1572 35.4809C41.4261 35.5962 41.7267 35.6206 42.0115 35.5505C42.2957 35.4804 42.5481 35.32 42.7289 35.0945C42.9598 34.8168 43.1585 34.5139 43.3205 34.193C43.7985 33.2368 44.2555 32.269 44.7103 31.3054C44.8863 30.9326 45.0573 30.5988 45.2518 30.2353C45.2652 30.2801 45.2788 30.3238 45.2929 30.3676C45.4968 31.2454 45.841 32.0861 46.3127 32.859C46.402 33.0227 46.5264 33.1658 46.6773 33.2785C46.83 33.3925 47.0063 33.4725 47.1938 33.5131C47.3814 33.5537 47.5757 33.5539 47.7634 33.5136C47.9507 33.4735 48.1275 33.3934 48.2804 33.2799L48.5828 33.0585L50.9304 31.1252L50.7915 31.9902C50.601 33.1792 50.4119 34.3583 50.211 35.5376C50.0795 36.0604 50.0797 36.6064 50.2115 37.1289C50.2686 37.423 50.4141 37.6937 50.6294 37.9066C50.8465 38.1213 51.1245 38.2671 51.4274 38.3253C51.7303 38.3834 52.0441 38.3512 52.328 38.2327C52.6078 38.1161 52.8458 37.921 53.0122 37.6724C53.3993 37.2028 53.6402 36.6344 53.7064 36.0346C53.806 35.1877 53.9185 34.3293 54.0312 33.4711C54.1609 32.4819 54.2906 31.493 54.4002 30.5231L54.4005 30.5201C54.506 29.4584 54.557 28.3923 54.5535 27.3255C54.5765 26.9885 54.4907 26.6526 54.3078 26.3656C54.1243 26.0776 53.8525 25.8537 53.5312 25.7256C53.197 25.5771 52.8229 25.5374 52.4639 25.6125C52.1073 25.687 51.7845 25.8708 51.5423 26.1371C51.1093 26.5286 50.7031 26.9476 50.3263 27.3914L50.3237 27.3944C49.9124 27.8955 49.5038 28.4065 49.0979 28.9143C48.8511 29.2229 48.605 29.5308 48.3602 29.834Z" fill="#101012"/>
</g>
<defs>
<clipPath id="clip0_46_892">
<rect width="63.6364" height="40" fill="white"/>
</clipPath>
</defs>
</svg>
