<svg width="40" height="40" viewBox="0 0 40 40" fill="none" xmlns="http://www.w3.org/2000/svg">
<g clip-path="url(#clip0_46_926)">
<path d="M19.9987 0C31.0447 0 39.9987 8.954 39.9987 20V34C39.9987 35.5913 39.3666 37.1174 38.2413 38.2426C37.1161 39.3679 35.59 40 33.9987 40H20.9987V31.226C20.9987 29.224 21.1207 27.15 22.1707 25.446C22.9224 24.2248 23.928 23.1796 25.1192 22.3813C26.3105 21.5829 27.6595 21.0501 29.0747 20.819L29.4577 20.757C29.6156 20.703 29.7527 20.601 29.8497 20.4653C29.9468 20.3296 29.999 20.1669 29.999 20C29.999 19.8331 29.9468 19.6704 29.8497 19.5347C29.7527 19.399 29.6156 19.297 29.4577 19.243L29.0747 19.181C27.0069 18.8432 25.0974 17.8644 23.6158 16.3829C22.1343 14.9013 21.1555 12.9918 20.8177 10.924L20.7557 10.541C20.7017 10.3831 20.5997 10.246 20.464 10.149C20.3283 10.0519 20.1656 9.99975 19.9987 9.99975C19.8318 9.99975 19.6691 10.0519 19.5334 10.149C19.3977 10.246 19.2957 10.3831 19.2417 10.541L19.1797 10.924C18.9486 12.3393 18.4159 13.6883 17.6175 14.8795C16.8192 16.0707 15.7739 17.0763 14.5527 17.828C12.8487 18.878 10.7747 19 8.77271 19H0.0227051C0.545705 8.419 9.2887 0 19.9987 0Z" fill="#F06225"/>
<path d="M0 21H8.774C10.776 21 12.85 21.122 14.554 22.172C15.886 22.9928 17.0072 24.114 17.828 25.446C18.878 27.15 19 29.224 19 31.226V40H6C4.4087 40 2.88258 39.3679 1.75736 38.2426C0.632141 37.1174 0 35.5913 0 34L0 21ZM40 2C40 2.53043 39.7893 3.03914 39.4142 3.41421C39.0391 3.78929 38.5304 4 38 4C37.4696 4 36.9609 3.78929 36.5858 3.41421C36.2107 3.03914 36 2.53043 36 2C36 1.46957 36.2107 0.960859 36.5858 0.585786C36.9609 0.210714 37.4696 0 38 0C38.5304 0 39.0391 0.210714 39.4142 0.585786C39.7893 0.960859 40 1.46957 40 2Z" fill="#F06225"/>
</g>
<defs>
<clipPath id="clip0_46_926">
<rect width="40" height="40" fill="white"/>
</clipPath>
</defs>
</svg>
