<svg width="480" height="480" viewBox="0 0 480 480" fill="none" xmlns="http://www.w3.org/2000/svg">
<path d="M378.433 370.973C378.03 368.598 376.703 366.479 374.74 365.081C372.778 363.682 370.342 363.119 367.965 363.514L364.988 364.014C361.148 347.092 369.414 336.388 375.095 319.219C382.071 300.572 382.102 274.983 375.207 233.658L370.501 205.743C370.166 203.687 369.427 201.717 368.328 199.947C367.229 198.177 365.791 196.642 364.096 195.429C362.402 194.217 360.484 193.352 358.454 192.883C356.424 192.415 354.321 192.353 352.266 192.7C347.922 192.922 343.695 194.191 339.946 196.398C338.649 192.924 336.186 190.007 332.978 188.147C329.77 186.286 326.015 185.596 322.355 186.195C318.051 186.469 313.87 187.744 310.146 189.92C308.857 186.451 306.402 183.537 303.201 181.678C300.001 179.818 296.253 179.129 292.6 179.727C288.369 179.962 284.25 181.173 280.564 183.265L277.077 162.474H281.337C286.159 162.469 290.781 160.552 294.191 157.142C297.6 153.733 299.517 149.11 299.522 144.289V58.2597C299.517 53.4381 297.6 48.8154 294.191 45.4061C290.781 41.9968 286.159 40.0793 281.337 40.0745H195.302C190.48 40.0793 185.858 41.9968 182.448 45.4061C179.039 48.8154 177.122 53.4381 177.117 58.2597V144.289C177.122 149.11 179.039 153.733 182.448 157.142C185.858 160.552 190.48 162.469 195.302 162.474H238.181L245.48 233.033C246.513 238.882 244.732 269.257 244.707 275.76C244.701 275.956 244.642 276.147 244.537 276.312C244.431 276.477 244.283 276.611 244.107 276.698C243.932 276.786 243.736 276.824 243.54 276.809C243.345 276.794 243.157 276.726 242.997 276.613L211.892 257.127C207.87 254.631 203.271 253.219 198.541 253.028C193.812 252.837 189.114 253.873 184.903 256.036L180.055 258.544C178.695 259.273 177.516 260.297 176.605 261.543C175.693 262.788 175.074 264.222 174.791 265.738C174.509 267.255 174.57 268.816 174.972 270.306C175.374 271.796 176.105 273.176 177.112 274.345L251.105 358.706C256.723 365.092 260.419 372.937 261.766 381.335L258.773 381.835C256.399 382.243 254.282 383.572 252.883 385.532C251.483 387.493 250.915 389.927 251.301 392.304L258.68 436.28C258.881 437.468 259.545 438.528 260.526 439.227C261.507 439.927 262.725 440.21 263.914 440.014L382.077 420.192C383.263 419.986 384.32 419.321 385.019 418.341C385.718 417.361 386.002 416.145 385.811 414.957L378.433 370.973ZM235.868 115.821C235.016 116.673 233.859 117.152 232.654 117.152C231.448 117.152 230.292 116.673 229.439 115.821L209.407 95.7889C208.576 94.932 208.115 93.7826 208.124 92.5888C208.134 91.3951 208.612 90.2528 209.456 89.4087C210.3 88.5646 211.442 88.0864 212.636 88.0774C213.83 88.0683 214.979 88.5292 215.836 89.3604L232.654 106.178L265.495 73.337C266.351 72.5058 267.501 72.0451 268.695 72.0542C269.888 72.0633 271.031 72.5416 271.875 73.3857C272.719 74.2299 273.197 75.3722 273.206 76.5659C273.215 77.7597 272.754 78.9091 271.923 79.7659L235.868 115.821ZM270.729 379.812C269.1 369.757 264.669 360.364 257.945 352.712L183.945 268.348C183.834 268.223 183.753 268.074 183.709 267.912C183.665 267.75 183.66 267.581 183.692 267.416C183.719 267.247 183.785 267.087 183.883 266.946C183.982 266.806 184.111 266.691 184.26 266.608L189.079 264.117C191.885 262.673 195.016 261.981 198.169 262.107C201.322 262.233 204.388 263.173 207.069 264.837L238.183 284.332C239.705 285.269 241.446 285.792 243.232 285.849C245.019 285.905 246.789 285.494 248.367 284.655C249.946 283.816 251.277 282.579 252.23 281.067C253.182 279.554 253.723 277.819 253.797 276.033C253.824 268.478 255.684 239.032 254.517 232.018L245.635 146.251C245.342 144.476 245.764 142.657 246.809 141.193C247.855 139.729 249.438 138.74 251.212 138.441L256.792 137.487C258.563 137.192 260.379 137.61 261.842 138.651C263.305 139.692 264.296 141.27 264.598 143.04L279.613 232.448C279.712 233.037 279.926 233.601 280.243 234.107C280.56 234.613 280.974 235.052 281.46 235.398C281.947 235.744 282.497 235.991 283.079 236.125C283.66 236.259 284.263 236.277 284.852 236.177C285.441 236.078 286.004 235.864 286.51 235.547C287.017 235.23 287.455 234.817 287.802 234.33C288.148 233.844 288.395 233.294 288.529 232.712C288.662 232.13 288.68 231.527 288.581 230.938L282.884 197.096C282.703 195.368 283.182 193.636 284.226 192.247C285.27 190.858 286.8 189.916 288.51 189.609L294.113 188.694C295.886 188.409 297.7 188.832 299.163 189.873C300.626 190.914 301.621 192.489 301.933 194.258L303.775 205.26L303.806 205.451L303.809 205.457L308.45 233.345C308.663 234.521 309.33 235.565 310.306 236.253C311.283 236.941 312.491 237.217 313.67 237.021C314.848 236.825 315.902 236.173 316.604 235.206C317.305 234.239 317.598 233.035 317.419 231.854L312.769 203.923C312.618 203.044 312.644 202.139 312.844 201.269C313.044 200.4 313.414 199.579 313.934 198.853C314.453 198.128 315.111 197.513 315.87 197.043C316.629 196.574 317.473 196.259 318.354 196.118L323.873 195.159C325.649 194.872 327.468 195.294 328.938 196.333C330.407 197.372 331.41 198.947 331.731 200.718L337.343 234.255C337.542 235.445 338.205 236.506 339.187 237.207C340.169 237.907 341.388 238.188 342.578 237.99C343.767 237.791 344.828 237.127 345.529 236.146C346.229 235.164 346.511 233.944 346.312 232.755L342.569 210.375V210.366C342.29 208.603 342.713 206.8 343.747 205.345C344.781 203.891 346.344 202.899 348.101 202.583L353.77 201.668C354.646 201.523 355.541 201.552 356.405 201.753C357.269 201.954 358.085 202.324 358.806 202.841C359.527 203.359 360.139 204.013 360.606 204.767C361.074 205.521 361.388 206.36 361.531 207.236L366.238 235.161C372.853 274.805 372.955 298.991 366.575 316.04L366.57 316.048C360.603 333.688 352.516 345.065 355.529 362.639L356.017 365.516L270.729 379.812Z" fill="url(#paint0_linear_46_780)"/>
<path d="M139.77 119.39H78.639C75.023 119.394 71.5562 120.832 68.9992 123.389C66.4423 125.946 65.0041 129.413 65.0001 133.029V194.16C65.0041 197.776 66.4423 201.243 68.9992 203.8C71.5562 206.357 75.023 207.795 78.639 207.799H139.77C143.386 207.795 146.853 206.357 149.41 203.8C151.967 201.243 153.405 197.776 153.409 194.16V133.029C153.405 129.413 151.967 125.946 149.41 123.389C146.853 120.832 143.386 119.394 139.77 119.39ZM109.202 179.469C105.017 179.43 101.017 177.74 98.0709 174.767C95.1251 171.794 93.4725 167.778 93.4725 163.592C93.4725 159.407 95.1251 155.391 98.0709 152.418C101.017 149.445 105.017 147.755 109.202 147.716C113.388 147.755 117.388 149.445 120.334 152.418C123.28 155.391 124.932 159.407 124.932 163.592C124.932 167.778 123.28 171.794 120.334 174.767C117.388 177.74 113.388 179.43 109.202 179.469Z" fill="url(#paint1_linear_46_780)"/>
<path d="M401.426 74.0653H340.295C336.679 74.0693 333.212 75.5075 330.655 78.0644C328.098 80.6214 326.66 84.0882 326.656 87.7042V148.835C326.66 152.451 328.098 155.918 330.655 158.475C333.212 161.032 336.679 162.47 340.295 162.474H401.426C405.042 162.47 408.509 161.032 411.066 158.475C413.623 155.918 415.061 152.451 415.065 148.835V87.7042C415.061 84.0882 413.623 80.6214 411.066 78.0644C408.509 75.5075 405.042 74.0693 401.426 74.0653ZM370.863 134.148C366.673 134.117 362.665 132.43 359.714 129.456C356.762 126.482 355.106 122.462 355.106 118.272C355.106 114.082 356.762 110.061 359.714 107.088C362.665 104.114 366.673 102.427 370.863 102.395C375.053 102.427 379.06 104.114 382.012 107.088C384.963 110.061 386.62 114.082 386.62 118.272C386.62 122.462 384.963 126.482 382.012 129.456C379.06 132.43 375.053 134.117 370.863 134.148Z" fill="url(#paint2_linear_46_780)"/>
<defs>
<linearGradient id="paint0_linear_46_780" x1="26.0001" y1="38.1492" x2="366" y2="402.149" gradientUnits="userSpaceOnUse">
<stop stop-color="#FD8FBB"/>
<stop offset="1" stop-color="#95043E"/>
</linearGradient>
<linearGradient id="paint1_linear_46_780" x1="26.0001" y1="38.1492" x2="366" y2="402.149" gradientUnits="userSpaceOnUse">
<stop stop-color="#FD8FBB"/>
<stop offset="1" stop-color="#95043E"/>
</linearGradient>
<linearGradient id="paint2_linear_46_780" x1="26.0001" y1="38.1492" x2="366" y2="402.149" gradientUnits="userSpaceOnUse">
<stop stop-color="#FD8FBB"/>
<stop offset="1" stop-color="#95043E"/>
</linearGradient>
</defs>
</svg>
