<svg width="480" height="480" viewBox="0 0 480 480" fill="none" xmlns="http://www.w3.org/2000/svg">
<path d="M217.361 321.892C217.361 306.851 229.593 294.619 244.634 294.619H340.549C338.84 291.474 336.935 288.692 334.795 286.424C307.049 257.005 249.571 255.873 244.103 255.832C241.93 254.16 238.089 243.055 237.934 223.509C250.866 213.091 261.139 197.164 265.816 178.563C271.003 176.772 275.407 172.145 277.971 165.609C280.258 159.786 281.298 151.127 276.726 145.904C275.917 144.981 274.585 143.808 272.644 143.077C285.003 109.508 286.326 84.2032 276.53 67.8303C269.88 56.7211 258.044 49.8755 242.303 48.0346C237.403 47.4619 232.93 46.0937 228.193 44.6482C219.693 42.0482 210.066 39.1027 196.17 40.3845C174.915 42.3391 160.243 48.5164 152.556 58.7484C148.697 63.8848 147.474 68.9894 147.161 72.6121C136.179 74.1031 124.592 81.635 122.892 106.081C121.819 121.554 125.188 134.113 133.02 144.304C132.26 144.84 131.629 145.408 131.192 145.908C126.615 151.131 127.66 159.79 129.947 165.613C132.506 172.145 136.915 176.777 142.101 178.568C146.724 196.959 156.824 212.714 169.552 223.137C169.438 242.928 165.556 254.16 163.37 255.837C157.056 255.896 100.337 257.264 72.8371 286.428C56.4369 303.783 53.3687 350.233 53.0005 376.379C52.9823 377.597 53.4732 378.766 54.3278 379.634C55.1823 380.497 56.3642 380.988 57.5824 380.988H217.361V321.892ZM150.329 173.809C149.911 171.891 148.311 170.459 146.356 170.259C142.651 169.872 139.82 165.886 138.411 162.29C136.601 157.672 136.801 153.295 138.033 151.899C138.438 151.436 139.265 151.34 140.515 151.64C140.683 151.686 140.861 151.64 141.038 151.672C141.27 151.708 141.492 151.804 141.729 151.804C141.842 151.804 141.951 151.74 142.065 151.731C142.406 151.708 142.715 151.622 143.047 151.522C143.22 151.468 143.401 151.486 143.57 151.413C143.711 151.354 143.815 151.249 143.947 151.177C144.051 151.118 144.174 151.118 144.274 151.049C144.406 150.963 144.506 150.845 144.624 150.749C144.67 150.708 144.715 150.672 144.761 150.631C145.056 150.368 145.311 150.072 145.524 149.745C145.538 149.722 145.556 149.704 145.57 149.681C146.011 148.981 146.283 148.177 146.297 147.327C146.306 146.527 146.333 145.808 146.356 145.049C146.711 131.008 152.797 118.54 163.002 111.435C170.375 106.303 178.902 104.835 185.829 107.526C208.189 116.226 222.898 114.581 233.634 113.376C237.53 112.944 240.893 112.567 244.044 112.699C249.639 112.935 257.853 131.59 261.753 148.222C261.862 148.718 262.048 149.186 262.312 149.613C262.33 149.64 262.348 149.663 262.366 149.69C262.585 150.031 262.853 150.336 263.153 150.613C263.221 150.672 263.285 150.727 263.353 150.786C263.457 150.872 263.544 150.972 263.662 151.049C263.766 151.118 263.894 151.122 264.003 151.186C264.339 151.377 264.694 151.513 265.076 151.608C265.262 151.654 265.435 151.713 265.621 151.74C265.703 151.749 265.776 151.79 265.857 151.795C266.344 151.831 266.83 151.786 267.289 151.672H267.303C268.607 151.349 269.471 151.436 269.876 151.904C271.107 153.308 271.307 157.681 269.498 162.299C268.085 165.9 265.262 169.881 261.557 170.268C259.603 170.468 258.003 171.9 257.585 173.818C251.048 203.859 227.489 227.396 203.952 227.396C180.416 227.396 156.861 203.859 150.32 173.818L150.329 173.809ZM169.934 262.114C175.406 256.551 177.879 242.673 178.506 229.323C186.502 233.896 195.166 236.482 203.961 236.482C212.593 236.482 221.107 234.005 228.984 229.587C229.63 242.887 232.112 256.651 237.58 262.155C237.598 262.178 237.621 262.187 237.639 262.205C233.962 267.932 224.343 278.637 203.816 278.637C183.166 278.637 173.556 267.801 169.934 262.114Z" fill="url(#paint0_linear_46_782)"/>
<path d="M408.273 303.71H244.634C234.607 303.71 226.452 311.864 226.452 321.892V421.893C226.452 431.92 234.607 440.075 244.634 440.075H408.273C418.3 440.075 426.455 431.92 426.455 421.893V321.892C426.455 311.864 418.3 303.71 408.273 303.71ZM262.816 335.528H286.38C288.262 330.251 293.262 326.437 299.181 326.437C306.699 326.437 312.817 332.555 312.817 340.074C312.817 347.592 306.699 353.71 299.181 353.71C293.262 353.71 288.262 349.896 286.38 344.619H262.816C260.303 344.619 258.271 342.587 258.271 340.074C258.271 337.56 260.303 335.528 262.816 335.528ZM262.816 371.892H340.926C342.808 366.615 347.808 362.801 353.727 362.801C361.245 362.801 367.363 368.919 367.363 376.438C367.363 383.956 361.245 390.074 353.727 390.074C347.808 390.074 342.808 386.26 340.926 380.983H262.816C260.303 380.983 258.271 378.951 258.271 376.438C258.271 373.924 260.303 371.892 262.816 371.892ZM312.817 421.893C306.899 421.893 301.899 418.079 300.017 412.802H262.816C260.303 412.802 258.271 410.77 258.271 408.256C258.271 405.743 260.303 403.711 262.816 403.711H300.017C301.899 398.433 306.899 394.62 312.817 394.62C320.335 394.62 326.454 400.738 326.454 408.256C326.454 415.774 320.335 421.893 312.817 421.893ZM390.091 412.802H330.163C330.672 411.374 330.999 409.856 330.999 408.256C330.999 406.656 330.672 405.138 330.163 403.711H390.091C392.604 403.711 394.636 405.743 394.636 408.256C394.636 410.77 392.604 412.802 390.091 412.802ZM390.091 380.983H371.072C371.581 379.556 371.909 378.038 371.909 376.438C371.909 374.838 371.581 373.319 371.072 371.892H390.091C392.604 371.892 394.636 373.924 394.636 376.438C394.636 378.951 392.604 380.983 390.091 380.983ZM390.091 344.619H316.526C317.035 343.192 317.363 341.674 317.363 340.074C317.363 338.474 317.035 336.955 316.526 335.528H390.091C392.604 335.528 394.636 337.56 394.636 340.074C394.636 342.587 392.604 344.619 390.091 344.619Z" fill="url(#paint1_linear_46_782)"/>
<defs>
<linearGradient id="paint0_linear_46_782" x1="34" y1="34.1494" x2="364" y2="414.149" gradientUnits="userSpaceOnUse">
<stop stop-color="#ACA0F7"/>
<stop offset="1" stop-color="#2913B4"/>
</linearGradient>
<linearGradient id="paint1_linear_46_782" x1="34" y1="34.1494" x2="364" y2="414.149" gradientUnits="userSpaceOnUse">
<stop stop-color="#ACA0F7"/>
<stop offset="1" stop-color="#2913B4"/>
</linearGradient>
</defs>
</svg>
